<svg width="147" height="109" fill="none" xmlns="http://www.w3.org/2000/svg"><path d="M118.222 2.94l.391.92.916-.388-.384-.918-.923.386zM5 51l-.922.386.388.927.925-.393L5 51zM117.836 2.018l.922-.387-.388-.926-.925.392.391.92zM4.614 50.078l-.39-.92-.917.388.384.918.923-.386zM115.222 26.94l.391.92.916-.388-.384-.918-.923.386zM2 75l-.922.386.388.927.925-.392L2 75zm112.836-48.982l.922-.387-.388-.926-.925.392.391.92zM1.614 74.078l-.391-.92-.916.388.384.918.923-.386zM32 84l-.922.386.388.927.925-.392L32 84zm113.222-48.06l.391.92.916-.388-.384-.918-.923.386zM31.614 83.078l-.39-.92-.917.388.384.918.923-.386zm113.222-48.06l.922-.387-.388-.926-.925.392.391.92zm-4.614 23.922l.391.92.916-.388-.384-.918-.923.386zM27 107l-.922.386.388.927.925-.392L27 107zm112.836-48.982l.922-.387-.388-.926-.925.392.391.92zm-113.222 48.06l-.39-.921-.917.389.384.918.923-.386zM117.83 2.02L4.609 50.08l.782 1.84L118.613 3.86l-.782-1.84zm-.917.384l.386.922 1.845-.772-.387-.923-1.844.773zM5.004 50.998l113.223-48.06-.782-1.84L4.223 49.157l.782 1.84zm.918-.384l-.386-.923-1.845.773.387.922 1.844-.772zM114.831 26.02L1.609 74.08l.782 1.84 113.222-48.06-.782-1.84zm-.918.384l.387.922 1.845-.772-.387-.923-1.845.773zM2.004 74.998l113.223-48.06-.782-1.84L1.223 73.157l.782 1.84zm.918-.384l-.386-.923-1.845.773.387.922 1.844-.772zM32.391 84.92l113.222-48.06-.782-1.84L31.609 83.08l.782 1.84zm-1.7-1.456l.387.922 1.844-.772-.386-.923-1.845.773zm113.754-49.367L31.223 82.157l.782 1.841 113.222-48.06-.782-1.84zm1.7 1.457l-.387-.923-1.844.773.386.922 1.845-.772zm-6.314 22.466L26.609 106.08l.782 1.841 113.222-48.06-.782-1.841zm-.917.384l.386.922 1.845-.772-.387-.923-1.844.773zm-111.91 48.594l113.223-48.06-.782-1.84-113.222 48.059.782 1.841zm.918-.384l-.386-.923-1.845.773.387.922 1.844-.772z" fill="#7562E0"/></svg>