<svg width="30" height="30" fill="none" xmlns="http://www.w3.org/2000/svg"><path d="M8.609 30a7.61 7.61 0 01-5.386-2.196A7.426 7.426 0 011 22.484c0-2.015.79-3.904 2.223-5.32l15.752-15.56C21.23-.62 24.731-.52 27.121 1.84c2.39 2.36 2.493 5.82.239 8.046L12.562 24.504a3.601 3.601 0 01-5.043 0 3.497 3.497 0 010-4.982L17.543 9.62a.873.873 0 011.224 0 .847.847 0 010 1.21l-10.024 9.9a1.8 1.8 0 000 2.564c.716.706 1.88.705 2.595 0L26.136 8.677c1.555-1.537 1.453-3.957-.24-5.628-1.691-1.672-4.14-1.773-5.697-.236L4.447 18.373a5.736 5.736 0 00-1.716 4.11 5.74 5.74 0 001.716 4.112A5.88 5.88 0 008.61 28.29a5.88 5.88 0 004.161-1.695l15.752-15.56a.873.873 0 011.224 0 .847.847 0 010 1.209l-15.752 15.56A7.61 7.61 0 018.61 30z" fill="#fff"/></svg>