<svg width="43" height="43" fill="none" xmlns="http://www.w3.org/2000/svg"><path d="M35.636 7H8.364C7.61 7 7 7.61 7 8.364v27.272C7 36.39 7.61 37 8.364 37h27.272C36.39 37 37 36.39 37 35.636V8.364C37 7.61 36.39 7 35.636 7zM30 4v5M13 4v5m-6 6h30" stroke="#000" stroke-width="2" stroke-linecap="round" stroke-linejoin="round"/><path d="M15 21h5l-2.857 3.462c.47 0 .932.112 1.346.326.415.215.768.525 1.03.904a2.692 2.692 0 01.265 2.598 2.78 2.78 0 01-.828 1.08 2.896 2.896 0 01-1.255.576 2.93 2.93 0 01-1.386-.065 2.877 2.877 0 01-1.191-.69M24 23.077L27 21v9" stroke="#000" stroke-width="2" stroke-linecap="round" stroke-linejoin="round"/></svg>