<svg width="66" height="66" fill="none" xmlns="http://www.w3.org/2000/svg"><path d="M66 33.202C66 14.865 51.225 0 33 0S0 14.865 0 33.202C0 49.773 12.068 63.509 27.844 66V42.799h-8.38v-9.597h8.38v-7.315c0-8.321 4.926-12.918 12.464-12.918 3.61 0 7.387.649 7.387.649v8.17h-4.16c-4.1 0-5.379 2.56-5.379 5.188v6.226h9.153l-1.463 9.597h-7.69V66C53.932 63.51 66 49.773 66 33.202z" fill="#1877F2"/><path d="M46.1 42.146l1.503-9.7H38.2v-6.29c0-2.654 1.313-5.243 5.524-5.243H48v-8.258S44.12 12 40.412 12c-7.744 0-12.805 4.645-12.805 13.054v7.393H19v9.699h8.607v23.446a34.59 34.59 0 0010.594 0V42.146H46.1z" fill="#fff"/></svg>