<svg width="67" height="66" fill="none" xmlns="http://www.w3.org/2000/svg"><path d="M47.04 0H19.96C8.954 0 0 8.82 0 19.662v26.676C0 57.18 8.954 66 19.96 66h27.08C58.046 66 67 57.18 67 46.338V19.662C67 8.82 58.046 0 47.04 0zm13.22 46.338c0 7.192-5.919 13.022-13.22 13.022H19.96c-7.301 0-13.22-5.83-13.22-13.022V19.662c0-7.192 5.92-13.022 13.22-13.022h27.08c7.301 0 13.22 5.83 13.22 13.022v26.676z" fill="url(#paint0_linear)"/><path d="M33.5 16C23.85 16 16 23.626 16 33c0 9.374 7.85 17 17.5 17S51 42.374 51 33c0-9.374-7.85-17-17.5-17zm0 27.388c-5.906 0-10.693-4.651-10.693-10.388S27.594 22.612 33.5 22.612 44.193 27.263 44.193 33 39.406 43.388 33.5 43.388z" fill="url(#paint1_linear)"/><path d="M51 20a4 4 0 100-8 4 4 0 000 8z" fill="url(#paint2_linear)"/><defs><linearGradient id="paint0_linear" x1="33.5" y1="65.808" x2="33.5" y2=".513" gradientUnits="userSpaceOnUse"><stop stop-color="#E09B3D"/><stop offset=".3" stop-color="#C74C4D"/><stop offset=".6" stop-color="#C21975"/><stop offset="1" stop-color="#7024C4"/></linearGradient><linearGradient id="paint1_linear" x1="33.5" y1="65.674" x2="33.5" y2=".646" gradientUnits="userSpaceOnUse"><stop stop-color="#E09B3D"/><stop offset=".3" stop-color="#C74C4D"/><stop offset=".6" stop-color="#C21975"/><stop offset="1" stop-color="#7024C4"/></linearGradient><linearGradient id="paint2_linear" x1="51" y1="64.651" x2="51" y2=".798" gradientUnits="userSpaceOnUse"><stop stop-color="#E09B3D"/><stop offset=".3" stop-color="#C74C4D"/><stop offset=".6" stop-color="#C21975"/><stop offset="1" stop-color="#7024C4"/></linearGradient></defs></svg>