<svg width="30" height="30" fill="none" xmlns="http://www.w3.org/2000/svg"><path fill-rule="evenodd" clip-rule="evenodd" d="M30 15c0 8.284-6.716 15-15 15-8.284 0-15-6.716-15-15C0 6.716 6.716 0 15 0c8.284 0 15 6.716 15 15zm-14.308-4.032c-1.433.584-4.297 1.794-8.592 3.628-.698.272-1.063.538-1.096.798-.056.44.505.613 1.27.849l.322.1c.752.24 1.764.52 2.29.532.477.01 1.01-.183 1.598-.579 4.013-2.656 6.084-3.998 6.214-4.027.092-.02.22-.046.305.029.087.075.078.217.069.255-.056.233-2.26 2.242-3.4 3.281-.356.325-.608.554-.66.607-.115.117-.233.229-.346.336-.699.66-1.223 1.155.029 1.964.602.389 1.083.71 1.563 1.031.525.35 1.048.7 1.725 1.135.172.11.337.226.497.338.61.426 1.16.81 1.837.749.393-.036.8-.399 1.007-1.481.488-2.559 1.447-8.101 1.669-10.385.02-.2-.005-.456-.025-.569a.605.605 0 00-.21-.391c-.176-.14-.448-.17-.57-.168-.554.01-1.405.3-5.496 1.968z" fill="#fff"/></svg>