<svg width="66" height="66" fill="none" xmlns="http://www.w3.org/2000/svg"><path d="M33 66c18.225 0 33-14.775 33-33S51.225 0 33 0 0 14.775 0 33s14.775 33 33 33z" fill="url(#paint0_linear)"/><path fill-rule="evenodd" clip-rule="evenodd" d="M14.475 31.915c9.664-4.234 16.107-7.025 19.332-8.373 9.206-3.85 11.118-4.52 12.365-4.542.275-.005.888.064 1.285.388.335.273.427.643.472.902.044.26.099.85.055 1.313-.499 5.27-2.657 18.061-3.756 23.965-.464 2.498-1.38 3.335-2.265 3.417-1.925.178-3.387-1.28-5.251-2.508-2.918-1.923-4.566-3.12-7.398-4.997-3.273-2.169-1.151-3.36.714-5.309.488-.51 8.97-8.267 9.134-8.971.02-.088.04-.416-.154-.59-.194-.172-.48-.113-.687-.066-.292.067-4.953 3.164-13.982 9.293-1.323.914-2.521 1.359-3.595 1.335-1.184-.025-3.46-.673-5.153-1.226-2.076-.678-3.726-1.037-3.582-2.19.075-.6.897-1.214 2.466-1.841z" fill="#fff"/><defs><linearGradient id="paint0_linear" x1="33" y1="0" x2="33" y2="65.51" gradientUnits="userSpaceOnUse"><stop stop-color="#2AABEE"/><stop offset="1" stop-color="#229ED9"/></linearGradient></defs></svg>