<svg width="80" height="80" viewBox="0 0 80 80" fill="none" xmlns="http://www.w3.org/2000/svg">
<path d="M40 46.5C45.5228 46.5 50 42.0228 50 36.5C50 30.9772 45.5228 26.5 40 26.5C34.4772 26.5 30 30.9772 30 36.5C30 42.0228 34.4772 46.5 40 46.5Z" stroke="#F58220" stroke-width="2" stroke-linecap="round" stroke-linejoin="round"/>
<path d="M65 36.5C65 59 40 76.5 40 76.5C40 76.5 15 59 15 36.5C15 29.8696 17.6339 23.5107 22.3223 18.8223C27.0107 14.1339 33.3696 11.5 40 11.5C46.6304 11.5 52.9893 14.1339 57.6777 18.8223C62.3661 23.5107 65 29.8696 65 36.5V36.5Z" stroke="#F58220" stroke-width="2" stroke-linecap="round" stroke-linejoin="round"/>
</svg>
