<svg width="80" height="80" viewBox="0 0 80 80" fill="none" xmlns="http://www.w3.org/2000/svg">
<path d="M38.3328 8.08721L13.1283 13.1281L8.08737 38.3326C8.00665 38.7362 8.02682 39.1535 8.14609 39.5474C8.26536 39.9413 8.48003 40.2997 8.77105 40.5907L41.4125 73.2322C41.6447 73.4643 41.9203 73.6485 42.2236 73.7741C42.5269 73.8998 42.852 73.9644 43.1803 73.9644C43.5086 73.9644 43.8337 73.8998 44.137 73.7741C44.4403 73.6485 44.7159 73.4643 44.9481 73.2322L73.2323 44.9479C73.4645 44.7158 73.6486 44.4402 73.7743 44.1369C73.8999 43.8336 73.9646 43.5085 73.9646 43.1802C73.9646 42.8519 73.8999 42.5268 73.7743 42.2235C73.6486 41.9201 73.4645 41.6445 73.2323 41.4124L40.5909 8.7709C40.2998 8.47988 39.9415 8.2652 39.5475 8.14594C39.1536 8.02667 38.7364 8.0065 38.3328 8.08721V8.08721Z" stroke="#F58220" stroke-width="2" stroke-linecap="round" stroke-linejoin="round"/>
<path d="M26.25 30C28.3211 30 30 28.3211 30 26.25C30 24.1789 28.3211 22.5 26.25 22.5C24.1789 22.5 22.5 24.1789 22.5 26.25C22.5 28.3211 24.1789 30 26.25 30Z" fill="#F58220"/>
</svg>
