<svg width="26" height="26" fill="none" xmlns="http://www.w3.org/2000/svg"><path d="M25.878 13.098c0-6.903-5.596-12.5-12.5-12.5s-12.5 5.597-12.5 12.5c0 6.904 5.596 12.5 12.5 12.5s12.5-5.596 12.5-12.5z" fill="#F58220"/><path d="M20.065 8.118l-2.322 10.336c-.175.729-.632.91-1.28.567l-3.538-2.46-1.707 1.549c-.189.178-.347.327-.711.327l.254-3.4 6.556-5.593c.285-.24-.061-.373-.443-.133L8.77 14.13l-3.49-1.031c-.758-.224-.772-.717.159-1.06l13.648-4.964c.632-.224 1.185.133.979 1.044z" fill="#fff"/></svg>