<svg width="500" height="500" viewBox="0 0 500 500" fill="none" xmlns="http://www.w3.org/2000/svg">
<path d="M500 382.4H0V382.65H500V382.4Z" fill="#EBEBEB"/>
<path d="M449.9 398.49H416.78V398.74H449.9V398.49Z" fill="#EBEBEB"/>
<path d="M331.22 401.21H322.53V401.46H331.22V401.21Z" fill="#EBEBEB"/>
<path d="M415.78 389.21H396.59V389.46H415.78V389.21Z" fill="#EBEBEB"/>
<path d="M95.65 390.89H52.46V391.14H95.65V390.89Z" fill="#EBEBEB"/>
<path d="M110.89 390.89H104.56V391.14H110.89V390.89Z" fill="#EBEBEB"/>
<path d="M225.15 395.11H131.47V395.36H225.15V395.11Z" fill="#EBEBEB"/>
<path d="M335.4 189.84C358.347 189.84 376.95 171.237 376.95 148.29C376.95 125.343 358.347 106.74 335.4 106.74C312.453 106.74 293.85 125.343 293.85 148.29C293.85 171.237 312.453 189.84 335.4 189.84Z" fill="#F5F5F5"/>
<path d="M409.55 140.1C409.55 138.305 408.837 136.583 407.567 135.313C406.298 134.043 404.576 133.33 402.78 133.33C402.122 133.328 401.468 133.426 400.84 133.62C400.936 132.931 400.986 132.236 400.99 131.54C400.994 129.431 400.531 127.347 399.635 125.437C398.739 123.527 397.432 121.84 395.808 120.494C394.183 119.149 392.282 118.179 390.239 117.654C388.195 117.13 386.062 117.064 383.99 117.46C382.577 115.139 380.447 113.341 377.923 112.336C375.399 111.331 372.616 111.174 369.994 111.889C367.373 112.603 365.055 114.15 363.389 116.297C361.723 118.443 360.801 121.073 360.76 123.79H360.55C357.547 123.878 354.696 125.134 352.603 127.289C350.511 129.444 349.34 132.331 349.34 135.335C349.34 138.339 350.511 141.226 352.603 143.381C354.696 145.537 357.547 146.792 360.55 146.88H403C404.759 146.823 406.426 146.083 407.649 144.817C408.872 143.552 409.554 141.86 409.55 140.1Z" fill="#EBEBEB"/>
<path d="M302.61 177.34C302.61 175.546 301.898 173.826 300.631 172.556C299.363 171.287 297.644 170.573 295.85 170.57C295.172 170.564 294.498 170.661 293.85 170.86C294.157 168.823 294.02 166.743 293.448 164.764C292.876 162.784 291.882 160.952 290.535 159.393C289.188 157.834 287.519 156.585 285.644 155.732C283.768 154.879 281.73 154.441 279.67 154.45C278.784 154.452 277.9 154.536 277.03 154.7C275.611 152.402 273.487 150.624 270.975 149.632C268.463 148.64 265.698 148.487 263.092 149.196C260.486 149.905 258.179 151.437 256.515 153.564C254.851 155.692 253.92 158.3 253.86 161H253.65C250.647 161.088 247.796 162.343 245.703 164.499C243.611 166.654 242.44 169.541 242.44 172.545C242.44 175.549 243.611 178.435 245.703 180.591C247.796 182.746 250.647 184.002 253.65 184.09H296C297.765 184.051 299.445 183.323 300.68 182.061C301.915 180.8 302.608 179.105 302.61 177.34Z" fill="#EBEBEB"/>
<path d="M116 190.15C116 188.356 115.288 186.636 114.021 185.366C112.753 184.097 111.034 183.383 109.24 183.38C108.563 183.376 107.89 183.47 107.24 183.66C107.344 182.975 107.398 182.283 107.4 181.59C107.395 179.483 106.926 177.403 106.027 175.498C105.129 173.592 103.822 171.908 102.2 170.563C100.578 169.219 98.6802 168.248 96.641 167.718C94.6018 167.189 92.4712 167.114 90.4 167.5C88.9887 165.176 86.8595 163.375 84.3339 162.369C81.8084 161.362 79.0239 161.205 76.4012 161.921C73.7786 162.637 71.4603 164.188 69.7967 166.338C68.1331 168.488 67.2146 171.122 67.18 173.84H66.97C63.9669 173.928 61.1164 175.183 59.0235 177.339C56.9305 179.494 55.7598 182.381 55.7598 185.385C55.7598 188.389 56.9305 191.276 59.0235 193.431C61.1164 195.587 63.9669 196.842 66.97 196.93H109.36C111.136 196.901 112.83 196.173 114.073 194.904C115.316 193.635 116.008 191.926 116 190.15Z" fill="#EBEBEB"/>
<path d="M405.64 222.44C405.64 221.355 405.209 220.315 404.442 219.548C403.675 218.781 402.635 218.35 401.55 218.35C401.151 218.35 400.753 218.407 400.37 218.52C400.549 217.29 400.462 216.035 400.113 214.841C399.765 213.648 399.164 212.543 398.351 211.602C397.538 210.661 396.533 209.906 395.402 209.388C394.272 208.87 393.043 208.601 391.8 208.6C391.266 208.599 390.734 208.649 390.21 208.75C389.349 207.363 388.064 206.292 386.545 205.696C385.026 205.099 383.355 205.01 381.781 205.44C380.207 205.871 378.814 206.799 377.81 208.085C376.806 209.372 376.245 210.948 376.21 212.58H376C374.143 212.58 372.363 213.317 371.05 214.63C369.738 215.943 369 217.723 369 219.58C369 221.436 369.738 223.217 371.05 224.53C372.363 225.842 374.143 226.58 376 226.58H401.62C402.156 226.572 402.685 226.459 403.177 226.247C403.669 226.034 404.114 225.727 404.488 225.343C404.861 224.958 405.155 224.504 405.353 224.006C405.55 223.508 405.648 222.976 405.64 222.44Z" fill="#EBEBEB"/>
<path d="M158.43 90.9099C158.435 90.2714 158.289 89.6407 158.005 89.0691C157.72 88.4975 157.305 88.001 156.792 87.6201C156.28 87.2392 155.685 86.9845 155.055 86.8767C154.426 86.7689 153.78 86.8112 153.17 86.9999C153.349 85.7695 153.262 84.5149 152.913 83.3213C152.565 82.1276 151.964 81.0229 151.151 80.082C150.338 79.1411 149.333 78.386 148.202 77.868C147.072 77.35 145.843 77.0813 144.6 77.0799C144.063 77.0788 143.527 77.1291 143 77.2299C142.139 75.8434 140.854 74.7721 139.335 74.1757C137.816 73.5794 136.145 73.4898 134.571 73.9204C132.997 74.351 131.604 75.2787 130.6 76.5653C129.596 77.8519 129.035 79.4284 129 81.0599H128.88C127.023 81.0599 125.243 81.7974 123.93 83.1102C122.618 84.4229 121.88 86.2034 121.88 88.0599C121.88 89.9164 122.618 91.6969 123.93 93.0097C125.243 94.3224 127.023 95.0599 128.88 95.0599H154.5C155.567 95.0182 156.576 94.5608 157.31 93.7853C158.045 93.0098 158.446 91.9778 158.43 90.9099Z" fill="#EBEBEB"/>
<path d="M89.86 243.66L116.94 366.67L121.86 364.36L93.42 242.97L89.86 243.66Z" fill="#EBEBEB"/>
<path d="M400.78 366.08C400.78 366.08 384 250.5 421.72 131L415.81 126.44C415.81 126.44 371.65 216.84 378.08 369.36L400.78 366.08Z" fill="#E6E6E6"/>
<path d="M432 99.58C445.82 90.52 466.27 104.93 469.08 127.45C467.049 126.279 464.925 125.275 462.73 124.45C461.66 118.78 460.63 113.77 460.63 113.77L461.37 123.94C460.15 123.5 458.82 123.07 457.37 122.68L456.37 117.21L455.92 122.32C453.963 121.863 451.979 121.529 449.98 121.32L447.4 105.32L446.1 121C444.053 120.943 442.004 121.033 439.97 121.27L438.39 110.41V121.49C436.639 121.773 434.909 122.17 433.21 122.68L431.32 106.48C431.32 106.48 431.37 115.59 431.27 123.32C426.38 125.092 421.858 127.75 417.93 131.16L417.78 129.16C417.78 129.16 419.37 107.84 432 99.58Z" fill="#E0E0E0"/>
<path d="M326.042 111.971C326.12 111.652 327.046 108.327 328.061 104.558L329.929 97.7089L331.299 96.6599C333.017 95.3429 334.441 94.5248 336.515 93.6935L338.148 93.046L345.02 94.9811C348.798 96.0439 354.747 97.6902 358.234 98.65C361.72 99.6099 364.865 100.487 365.255 100.599L365.91 100.812L365.708 103.328C365.422 106.764 365.497 107.048 366.801 107.548L367.886 107.978L370.044 106.226C371.231 105.26 372.871 103.986 373.695 103.437C375.161 102.422 375.213 102.402 376.947 102.567C378.954 102.759 379.173 102.553 379.071 100.636C379.021 99.8033 379.096 99.5343 379.377 99.4608C379.891 99.3089 391.837 93.2193 392.319 92.8637C392.614 92.6408 392.508 92.4299 391.845 91.7394C391.415 91.2466 390.76 90.7574 390.419 90.6497C389.428 90.2791 385.685 90.7757 382.554 91.6819C380.065 92.3984 376.716 92.9576 376.516 92.6875C376.471 92.633 377.085 90.8093 377.884 88.6015C378.684 86.3938 379.256 84.4906 379.165 84.3816C378.828 83.9729 376.138 83.5911 375.021 83.7858C373.676 84.009 371.699 85.1507 367.67 87.9792C363.186 91.1408 363.778 91.2224 355.45 86.3124C353.67 85.2644 352.053 84.477 351.927 84.3703C351.674 84.2332 351.65 83.842 352.292 83.3761C357.31 79.8387 359.564 78.9492 376.204 74.0098C381.006 72.5852 385.401 71.2472 385.968 71.0503C386.536 70.8534 387.977 70.3885 389.189 69.9769C390.398 69.5902 391.484 69.1918 391.592 69.1017C391.889 68.8539 390.139 66.378 389.263 65.8427C388.623 65.4555 388.046 65.4758 381.841 66.1141C373.241 66.976 341.395 70.1145 332.496 70.9729C328.513 71.3463 325.371 71.5487 324.907 71.4292C323.443 71.0387 311.351 64.9166 307.391 62.5563C305.233 61.2714 303.068 60.0611 302.589 59.8397C301.264 59.2868 297.816 59.0083 296.237 59.3346C295.475 59.4629 293.685 59.6435 292.227 59.7305C290.77 59.8175 289.254 59.9993 288.838 60.1854C287.333 60.795 286.622 63.1366 287.446 64.7964C288.271 66.4562 291.632 69.0856 298.93 73.7719C303.699 76.8618 310.759 80.8728 313.476 82.0604C315.712 83.0266 316.368 83.5157 316.755 84.4813C316.895 84.8711 317.335 87.1969 317.689 89.6401C320.045 105.601 320.705 109.078 321.604 110.468C322.194 111.403 323.74 112.278 324.927 112.417C325.695 112.49 325.902 112.409 326.042 111.971Z" fill="#F58220"/>
<path d="M412.89 92.34C401.89 79.99 378.41 88.55 369.82 109.55C372.085 108.942 374.396 108.524 376.73 108.3C379.24 103.11 381.55 98.54 381.55 98.54L378.18 108.16C379.47 108.06 380.86 108 382.35 108L384.7 103L383.8 108.05C385.809 108.105 387.813 108.285 389.8 108.59L396.47 93.85L393.65 109.35C395.644 109.824 397.599 110.445 399.5 111.21L403.87 101.14L401 111.8C402.621 112.524 404.188 113.363 405.69 114.31L411.76 99.16C411.76 99.16 409.32 107.94 407.4 115.42C411.656 118.414 415.324 122.167 418.22 126.49L418.89 124.6C418.89 124.6 422.9 103.62 412.89 92.34Z" fill="#E0E0E0"/>
<path d="M402.32 121.63C413.32 110.9 421.58 120.24 421.58 120.24C417.45 121.31 413.76 123.96 410.58 127.33L409.09 125.39L409.33 128.7C408.57 129.58 407.83 130.5 407.12 131.45L404.6 125.72L405.68 133.48C404.68 134.96 403.68 136.48 402.85 138L401.74 132.32L401.83 139.85C400.91 141.55 400.09 143.22 399.36 144.79L398.16 134.36L398 147.85C396.24 152.01 395.32 154.93 395.32 154.93C395.32 154.93 391.32 132.37 402.32 121.63Z" fill="#E0E0E0"/>
<path d="M432 147L429.73 148.31C429.4 146.56 429.01 144.73 428.58 142.87L430.12 140.04L428.18 141.24C428.03 140.62 427.86 140.01 427.7 139.39L429.7 133.85L426.7 136.06C425.1 131.06 423.06 126.67 420.51 124.57C420.51 124.57 445.73 132.63 431.51 159.82C431.51 159.82 431.05 155.52 430.04 149.87L432 147Z" fill="#E0E0E0"/>
<path d="M407.2 124.75L403.2 117.15L404.86 125.07C404.46 125.13 404.05 125.21 403.64 125.29L398.41 118.78L399.7 126.27C397.913 126.811 396.16 127.459 394.45 128.21C392.586 129.045 390.767 129.976 389 131L386.45 124.35L387.64 131.79C385.91 132.79 384.22 133.92 382.64 135.06L381.38 129.2L381.5 135.87C379.5 137.31 377.64 138.77 375.92 140.2L376.08 129.58L374.53 141.37C372.77 142.87 371.18 144.31 369.83 145.59L369.64 138.22L367.77 147.58C365.83 149.51 364.72 150.74 364.72 150.74C365.72 124.95 375.72 114.74 392.26 111.94C408.8 109.14 420.72 126.35 420.72 126.35C420.72 126.35 415.58 123.91 407.2 124.75Z" fill="#E0E0E0"/>
<path d="M455.44 156.27L453.93 164C453.2 162.09 452.21 159.64 450.93 156.91L452.29 145.66L449.81 154.53C447.871 150.497 445.625 146.618 443.09 142.93L445.45 135.13L441.63 140.92C440.86 139.92 440.07 138.92 439.25 138L440.59 133.09L438.52 137.2C437.96 136.58 437.38 135.99 436.79 135.42L438.42 128.87L435.83 134.54C434.218 133.066 432.444 131.781 430.54 130.71L433.17 122.71L429.05 129.97C426.459 128.755 423.62 128.162 420.76 128.24C420.76 128.24 425.76 120.24 434.95 117.49C444.14 114.74 463.95 131.38 455.35 168.09C455.35 168.09 455.09 167.26 454.57 165.83L455.44 156.27Z" fill="#E0E0E0"/>
<path d="M440.28 84.94L441.85 89.5999C441.27 89.6327 440.695 89.7164 440.13 89.8499L438.24 83.78L439.5 90C438.301 90.3583 437.157 90.8799 436.1 91.55L433.5 83.36L435 92.29C434.58 92.6 434.16 92.94 433.73 93.29L430.79 85.5999L433 94C430.827 96.1752 428.972 98.6462 427.49 101.34L426.72 90L425.42 105.39C423.264 110.202 421.525 115.191 420.22 120.3C420.22 120.3 418.62 79.2999 428.49 74.6999C438.36 70.0999 444.23 89.79 444.23 89.79C443.791 89.6606 443.337 89.5867 442.88 89.57L440.28 84.94Z" fill="#E0E0E0"/>
<path d="M426.18 130.55L425.3 138.32L422.3 130.83L418.3 136.69L416.72 131.23L412.1 135.11C412.1 135.11 412.67 125.2 415.62 120.67C418.57 116.14 427.43 119.32 426.18 130.55Z" fill="#E0E0E0"/>
<path d="M303 255.49V201.31C303 201.31 292 213 284.73 211.4C277.46 209.8 268 215.33 268 215.33C268 215.33 277.53 213.94 281.07 217.81C284.61 221.68 300.41 222.09 300.41 222.09V257.47L303 255.49Z" fill="#EBEBEB"/>
<path d="M351.5 238.88H349V242.29H340.76V238.88H332.66V242.29H324.42V238.88H316.33V242.29H308.08V238.88H299.99V242.29H291.75V238.88H283.65V242.29H275.41V238.88H267.31V242.29H259.07V238.88H256.3L248.27 303.08L359.8 302.62L351.5 238.88Z" fill="#E0E0E0"/>
<path d="M369.24 285.48H365.81V290.16H354.49V285.48H343.37V290.16H332.04V285.48H320.92V290.16H309.6V285.48H298.48V290.16H287.15V285.48H276.03V290.16H264.7V285.48H253.58V290.16H242.26V285.48H238.45L227.41 373.69L380.66 373.05L369.24 285.48Z" fill="#EBEBEB"/>
<path d="M425.85 363.3C423.48 360.63 421.25 357.9 418.77 355.3C418.642 355.17 418.524 355.03 418.42 354.88C417.603 354.352 416.751 353.881 415.87 353.47C415.71 353.42 415.19 353.21 414.66 353.01C413.66 352.65 412.66 352.26 411.66 351.86C405.45 349.36 399.87 346.46 395.18 341.53C392.61 338.83 390.56 335.68 387.9 333.06C387.83 333.15 387.31 332.87 387.06 332.67L385.06 332.41C383.99 332.41 382.91 332.41 381.84 332.48C380.31 332.55 378.78 332.67 377.25 332.81C371.25 341.53 363.75 353.44 360.43 355.01C355.28 357.45 307.82 370.01 304.32 369.24C300.82 368.47 282.5 369.98 277.9 369.81C273.3 369.64 264.97 367.6 252.9 362.05C240.83 356.5 234.25 356.47 219.72 351.84C205.19 347.21 195.45 345.45 186.95 352.57C178.45 359.69 155.1 344.66 147.82 342.52C140.54 340.38 126.62 328.05 117.12 333.8C107.62 339.55 99.72 342.29 87.85 352.57C75.98 362.85 52.43 382.72 52.43 382.72H453.43L448.82 374.67C444.427 374.402 440.131 373.259 436.186 371.306C432.241 369.353 428.727 366.631 425.85 363.3Z" fill="#F5F5F5"/>
<path d="M43.18 265C43.18 265 54.85 244 86.47 225.88C86.47 225.88 112.21 223.69 141.27 236.36C141.27 236.36 147.16 246.14 140.46 250C133.76 253.86 128.21 246.1 128.21 246.1C128.21 246.1 126.97 257.92 118.21 258.26C109.45 258.6 106.91 250 106.91 250C106.91 250 106.05 260.85 95.62 263.59C86.6 266 81 258.26 81 258.26C81 258.26 79.2 267.18 71.09 269.75C64.57 271.81 60.09 266.2 60.09 266.2C60.09 266.2 58.22 275.88 51.3 275.88C45.35 275.88 43.18 265 43.18 265Z" fill="#E0E0E0"/>
<path d="M250 427.56C357.082 427.56 443.89 422.492 443.89 416.24C443.89 409.988 357.082 404.92 250 404.92C142.917 404.92 56.11 409.988 56.11 416.24C56.11 422.492 142.917 427.56 250 427.56Z" fill="#F5F5F5"/>
<path d="M384 366.91C384 366.91 388.35 360.54 392.31 358.76C396.27 356.98 396.91 350.21 399.06 349.84C401.21 349.47 403.58 355.71 407.34 357.53C411.1 359.35 416.79 366.87 416.79 366.87L384 366.91Z" fill="#F58220"/>
<path opacity="0.8" d="M384 366.91C384 366.91 388.35 360.54 392.31 358.76C396.27 356.98 396.91 350.21 399.06 349.84C401.21 349.47 403.58 355.71 407.34 357.53C411.1 359.35 416.79 366.87 416.79 366.87L384 366.91Z" fill="white"/>
<path d="M415.62 412.77H383.98L379.98 366.87H419.62L415.62 412.77Z" fill="#F58220"/>
<path d="M421.53 364.49H378.06V369.32H421.53V364.49Z" fill="#F58220"/>
<path opacity="0.2" d="M421.53 364.49H378.06V369.32H421.53V364.49Z" fill="white"/>
<path d="M397.93 367.89C400.81 372.41 413.14 391.06 420.78 392.42L421.72 390.16C421.72 390.16 414.88 390.98 399.72 366.75C399.576 366.515 399.348 366.343 399.082 366.271C398.817 366.198 398.533 366.23 398.29 366.36C398.162 366.433 398.049 366.531 397.961 366.649C397.872 366.767 397.809 366.903 397.775 367.046C397.741 367.19 397.738 367.339 397.764 367.484C397.791 367.63 397.847 367.768 397.93 367.89Z" fill="#263238"/>
<path d="M352.91 353.41C353.235 353.307 353.577 353.271 353.916 353.303C354.256 353.334 354.585 353.434 354.885 353.595C355.185 353.756 355.45 353.976 355.664 354.242C355.878 354.507 356.036 354.812 356.13 355.14L361.53 374.03L368.53 371.22C368.53 371.22 372.76 386.97 364.77 389.46C357 391.89 351 377.35 351 377.35L358.14 375.35L351.32 356.69C351.205 356.37 351.155 356.031 351.173 355.692C351.192 355.353 351.277 355.021 351.425 354.716C351.573 354.41 351.781 354.137 352.036 353.913C352.291 353.689 352.588 353.518 352.91 353.41Z" fill="#F58220"/>
<path opacity="0.4" d="M364.8 389.46C357 391.89 351 377.35 351 377.35L358.14 375.35C358.14 375.35 359.37 377.45 360.75 376.93C362.13 376.41 361.57 374 361.57 374L368.57 371.19C368.57 371.19 372.79 387 364.8 389.46Z" fill="white"/>
<path d="M424.67 416.65C420.74 414.7 416.72 412.86 415.43 412.77C412.67 412.59 411.08 411.36 409.11 409.01C407.14 406.66 406.34 403.94 402.78 400.16C399.22 396.38 403.17 394.86 395.65 393.89C388.13 392.92 391.04 393.53 386.42 390.2C381.8 386.87 382.74 386.88 377.33 384.5C371.92 382.12 375.08 381.22 368.75 380.69C364.38 380.32 357.47 382.62 353.88 385.18C352.29 386.31 351.48 388.18 349.88 389.18C348.11 390.31 345.36 388.18 345.65 391.99C345.842 392.961 345.886 393.956 345.78 394.94C345.27 397.08 336.46 397.07 334.22 397.74C333.686 397.835 333.208 398.128 332.88 398.56C332.37 399.47 333.14 401.08 332.15 401.41C331.84 401.52 331.49 401.41 331.15 401.46C329.96 401.69 330.27 403.83 329.15 404.32C328.03 404.81 326.74 403.81 325.5 404.32C324.55 404.68 324.23 405.96 323.4 406.47C321.95 407.35 320.45 408 319.02 408.94C316.54 410.56 314.39 412.55 311.73 413.94L304.61 415.88L302.48 416.63L424.67 416.65Z" fill="#F58220"/>
<path opacity="0.8" d="M424.67 416.65C420.74 414.7 416.72 412.86 415.43 412.77C412.67 412.59 411.08 411.36 409.11 409.01C407.14 406.66 406.34 403.94 402.78 400.16C399.22 396.38 403.17 394.86 395.65 393.89C388.13 392.92 391.04 393.53 386.42 390.2C381.8 386.87 382.74 386.88 377.33 384.5C371.92 382.12 375.08 381.22 368.75 380.69C364.38 380.32 357.47 382.62 353.88 385.18C352.29 386.31 351.48 388.18 349.88 389.18C348.11 390.31 345.36 388.18 345.65 391.99C345.842 392.961 345.886 393.956 345.78 394.94C345.27 397.08 336.46 397.07 334.22 397.74C333.686 397.835 333.208 398.128 332.88 398.56C332.37 399.47 333.14 401.08 332.15 401.41C331.84 401.52 331.49 401.41 331.15 401.46C329.96 401.69 330.27 403.83 329.15 404.32C328.03 404.81 326.74 403.81 325.5 404.32C324.55 404.68 324.23 405.96 323.4 406.47C321.95 407.35 320.45 408 319.02 408.94C316.54 410.56 314.39 412.55 311.73 413.94L304.61 415.88L302.48 416.63L424.67 416.65Z" fill="white"/>
<path d="M340.75 398.45C340.755 398.523 340.755 398.597 340.75 398.67C340.721 402.057 339.736 405.367 337.91 408.22C337.76 408.45 337.61 408.68 337.44 408.91C336.39 410.401 335.123 411.726 333.68 412.84C333.36 413.101 333.026 413.344 332.68 413.57C332.601 413.63 332.518 413.684 332.43 413.73L332.1 413.94C331.929 414.056 331.752 414.163 331.57 414.26C331.29 414.42 331 414.58 330.71 414.72C327.228 416.473 323.275 417.058 319.434 416.388C315.594 415.718 312.072 413.828 309.39 411C308.167 409.736 307.139 408.297 306.34 406.73C305.022 404.166 304.336 401.323 304.34 398.44V398.38C304.34 397.87 304.34 397.38 304.41 396.86C304.605 394.515 305.261 392.231 306.34 390.14C306.606 389.615 306.899 389.104 307.22 388.61C308.268 386.985 309.564 385.534 311.06 384.31C311.535 383.921 312.033 383.561 312.55 383.23C312.731 383.101 312.917 382.981 313.11 382.87C314.541 381.99 316.09 381.316 317.71 380.87L318.13 380.76C319.576 380.401 321.06 380.22 322.55 380.22C323.017 380.22 323.477 380.24 323.93 380.28H324.28C326.302 380.472 328.277 381.006 330.12 381.86L330.35 381.97C333.087 383.266 335.457 385.225 337.244 387.67C339.03 390.115 340.177 392.968 340.58 395.97C340.697 396.791 340.754 397.62 340.75 398.45Z" fill="#F58220"/>
<path opacity="0.6" d="M340.75 398.45C340.753 401.833 339.811 405.15 338.03 408.026C336.249 410.903 333.7 413.225 330.67 414.73C330.254 414.394 329.914 413.975 329.67 413.5C333.03 403.7 329.67 398.45 329.67 398.45V398.35L329.91 396.78V396.49C330.43 393.58 331.74 388.13 334.58 384.83C336.516 386.533 338.067 388.628 339.131 390.976C340.195 393.324 340.747 395.872 340.75 398.45Z" fill="white"/>
<path opacity="0.6" d="M308.59 395.3C308.59 395.3 305.4 398.49 306.34 406.74C304.439 403.028 303.87 398.775 304.729 394.694C305.589 390.613 307.823 386.951 311.06 384.32C309.295 387.703 308.444 391.487 308.59 395.3Z" fill="white"/>
<path opacity="0.2" d="M334.63 384.83C330.63 389.47 329.63 398.45 329.63 398.45C318.63 401.14 308.56 395.3 308.56 395.3C308.414 391.481 309.265 387.69 311.03 384.3C314.38 381.574 318.591 380.129 322.909 380.223C327.227 380.316 331.371 381.942 334.6 384.81L334.63 384.83Z" fill="white"/>
<path opacity="0.2" d="M330.66 414.73C327.183 416.47 323.239 417.046 319.41 416.375C315.58 415.703 312.068 413.819 309.39 411C312.8 413 319.77 415.87 329.66 413.49C329.902 413.969 330.243 414.392 330.66 414.73Z" fill="white"/>
<g opacity="0.2">
<path opacity="0.2" d="M330.36 382C329.884 382.668 329.446 383.362 329.05 384.08C328.31 385.458 327.672 386.889 327.14 388.36C326.58 389.83 326.14 391.36 325.74 392.85C325.34 394.34 325 395.91 324.74 397.46C324.845 395.883 325.065 394.315 325.4 392.77C325.738 391.218 326.173 389.689 326.7 388.19C327.245 386.703 327.914 385.265 328.7 383.89C329.136 383.197 329.61 382.53 330.12 381.89L330.36 382Z" fill="black"/>
<path opacity="0.2" d="M324.28 380.32C324.03 380.77 323.8 381.23 323.58 381.69C322.846 383.241 322.24 384.85 321.77 386.5C321.24 388.14 320.84 389.82 320.46 391.5C320.08 393.18 319.76 394.88 319.46 396.58C319.562 394.849 319.769 393.126 320.08 391.42C320.379 389.711 320.78 388.021 321.28 386.36C321.779 384.687 322.431 383.063 323.23 381.51C323.45 381.1 323.68 380.69 323.92 380.3L324.28 380.32Z" fill="black"/>
<path opacity="0.2" d="M318.13 380.78L317.82 381.59C317.269 383.075 316.818 384.595 316.47 386.14C316.08 387.68 315.78 389.24 315.47 390.81C315.16 392.38 314.94 393.95 314.71 395.53C314.745 393.93 314.875 392.334 315.1 390.75C315.319 389.152 315.619 387.567 316 386C316.366 384.433 316.857 382.898 317.47 381.41C317.55 381.23 317.63 381.04 317.72 380.86L318.13 380.78Z" fill="black"/>
<path opacity="0.2" d="M313.11 382.88C312.77 384 312.45 385.12 312.22 386.26C311.99 387.4 311.72 388.82 311.52 390.11C311.32 391.4 311.18 392.7 311.06 394.01C310.992 392.697 311.018 391.38 311.14 390.07C311.267 388.757 311.464 387.452 311.73 386.16C311.953 385.173 312.227 384.199 312.55 383.24C312.73 383.111 312.917 382.991 313.11 382.88Z" fill="black"/>
<path opacity="0.2" d="M334.78 404.52C334.833 406.404 334.586 408.284 334.05 410.09C333.783 410.99 333.448 411.87 333.05 412.72C332.92 413.01 332.77 413.3 332.62 413.58C332.541 413.64 332.458 413.694 332.37 413.74C332.917 412.533 333.349 411.278 333.66 409.99C334.128 408.21 334.331 406.37 334.26 404.53C334.231 402.69 333.948 400.863 333.42 399.1C332.902 397.318 332.163 395.608 331.22 394.01C332.337 395.528 333.202 397.216 333.78 399.01C334.389 400.786 334.726 402.643 334.78 404.52Z" fill="black"/>
<path opacity="0.2" d="M338.37 404L338.32 405.51L338.11 407.01C338.065 407.417 337.995 407.821 337.9 408.22C337.75 408.45 337.6 408.68 337.43 408.91C337.579 408.269 337.68 407.617 337.73 406.96L337.88 405.48V404C337.915 403.504 337.915 403.006 337.88 402.51C337.83 402.02 337.83 401.51 337.74 401.04C337.512 399.072 337.017 397.145 336.27 395.31C335.548 393.455 334.557 391.717 333.33 390.15C334.714 391.609 335.828 393.302 336.62 395.15C337.438 397.002 337.983 398.962 338.24 400.97C338.32 401.47 338.31 401.97 338.35 402.48C338.392 402.986 338.399 403.494 338.37 404Z" fill="black"/>
<path opacity="0.2" d="M340.75 398.45C340.755 398.523 340.755 398.597 340.75 398.67L340.69 398.33C340.265 396.257 339.593 394.243 338.69 392.33C337.805 390.393 336.639 388.597 335.23 387C336.786 388.487 338.072 390.233 339.03 392.16C339.666 393.41 340.194 394.711 340.61 396.05C340.713 396.846 340.76 397.648 340.75 398.45Z" fill="black"/>
<path opacity="0.2" d="M307.7 392.42C306.897 393.333 306.208 394.34 305.65 395.42C305.13 396.382 304.692 397.385 304.34 398.42C304.34 397.91 304.34 397.42 304.41 396.9C304.678 396.321 304.982 395.76 305.32 395.22C305.944 394.155 306.749 393.207 307.7 392.42Z" fill="black"/>
<path opacity="0.2" d="M308.56 387.58C307.8 388.44 307.06 389.29 306.34 390.15C306.606 389.625 306.899 389.114 307.22 388.62C307.647 388.248 308.094 387.901 308.56 387.58Z" fill="black"/>
<path opacity="0.2" d="M308.56 399.16C310.22 399.8 311.9 400.36 313.56 400.86C315.256 401.363 316.979 401.774 318.72 402.09C322.185 402.837 325.774 402.793 329.22 401.96C327.543 402.589 325.771 402.927 323.98 402.96C322.187 402.995 320.395 402.854 318.63 402.54C316.874 402.208 315.143 401.754 313.45 401.18C311.771 400.631 310.136 399.956 308.56 399.16Z" fill="black"/>
<path opacity="0.2" d="M308.56 403.51C310.231 404.173 311.941 404.734 313.68 405.19C315.414 405.647 317.179 405.981 318.96 406.19C320.736 406.433 322.529 406.517 324.32 406.44L325.66 406.38L327 406.22C327.9 406.16 328.76 405.9 329.66 405.77C327.936 406.338 326.15 406.694 324.34 406.83C322.526 406.958 320.705 406.912 318.9 406.69C317.099 406.452 315.32 406.07 313.58 405.55C311.845 405.033 310.164 404.35 308.56 403.51Z" fill="black"/>
<path opacity="0.2" d="M309 407.27C310.573 408.003 312.202 408.611 313.87 409.09C315.532 409.566 317.232 409.9 318.95 410.09C319.81 410.23 320.67 410.25 321.53 410.31C322.39 410.37 323.26 410.31 324.13 410.26C325.862 410.162 327.581 409.915 329.27 409.52C327.618 410.101 325.903 410.481 324.16 410.65C322.407 410.825 320.639 410.805 318.89 410.59C317.146 410.375 315.427 409.986 313.76 409.43C312.096 408.895 310.499 408.17 309 407.27Z" fill="black"/>
<path opacity="0.2" d="M309.75 410.1C311.234 410.786 312.769 411.358 314.34 411.81C315.902 412.277 317.501 412.612 319.12 412.81C320.735 413.05 322.371 413.114 324 413L325.22 412.91L326.42 412.71C327.24 412.63 328.01 412.35 328.82 412.19C327.286 412.809 325.674 413.213 324.03 413.39C322.369 413.588 320.691 413.588 319.03 413.39C317.387 413.181 315.769 412.809 314.2 412.28C312.637 411.728 311.144 410.997 309.75 410.1Z" fill="black"/>
</g>
<path d="M113.79 369.84C113.79 369.84 117.35 364.49 123.68 364.1C130.01 363.71 135.35 371.78 135.35 371.78H133.35C133.35 371.78 128.24 366.27 124.58 366.27C120.92 366.27 117.36 370.82 117.36 370.82L113.79 369.84Z" fill="#263238"/>
<path d="M60.08 412.06C62.27 408.41 86.8 410.78 92.34 408.6L95.34 413.75C95.34 413.75 91.11 416.09 84.09 415.26C77.07 414.43 66.46 414.21 63.69 416.65L60.08 412.06Z" fill="#263238"/>
<path opacity="0.3" d="M60.08 412.06C62.27 408.41 86.8 410.78 92.34 408.6L95.34 413.75C95.34 413.75 91.11 416.09 84.09 415.26C77.07 414.43 66.46 414.21 63.69 416.65L60.08 412.06Z" fill="black"/>
<path d="M163.4 400.93C163.2 401.8 162.98 402.65 162.73 403.48C160.73 410.29 157.65 415.8 155.41 416.65H91.82C90.9456 416.65 90.0828 416.45 89.2976 416.065C88.5124 415.681 87.8256 415.121 87.29 414.43L87.24 414.36C87.0052 414.051 86.8072 413.715 86.65 413.36C82.26 404.19 77.83 385.85 84.06 377.49C84.7117 376.618 85.4635 375.826 86.3 375.13L86.48 374.99C87.7995 373.913 89.2596 373.022 90.82 372.34H90.87C95.25 370.34 100.63 369.45 105.87 369.06C107.4 368.94 108.87 368.87 110.41 368.84C114.31 368.73 117.95 368.84 120.85 368.91C131.07 369.17 139.11 372.21 144.59 371.68C146.603 371.47 148.637 371.632 150.59 372.16C151.153 372.318 151.707 372.505 152.25 372.72C154.744 373.774 157.064 375.201 159.13 376.95C165.39 381.92 165.48 392.11 163.4 400.93Z" fill="#263238"/>
<path opacity="0.1" d="M163.4 400.93C163.2 401.8 162.98 402.65 162.73 403.48C160.73 410.29 157.65 415.8 155.41 416.65H91.82C90.9456 416.65 90.0828 416.45 89.2976 416.065C88.5124 415.681 87.8256 415.121 87.29 414.43L87.24 414.36C87.0052 414.051 86.8072 413.715 86.65 413.36C82.26 404.19 77.83 385.85 84.06 377.49C84.7117 376.618 85.4635 375.826 86.3 375.13L86.48 374.99C87.7995 373.913 89.2596 373.022 90.82 372.34H90.87C95.25 370.34 100.63 369.45 105.87 369.06C107.4 368.94 108.87 368.87 110.41 368.84C114.31 368.73 117.95 368.84 120.85 368.91C131.07 369.17 139.11 372.21 144.59 371.68C146.603 371.47 148.637 371.632 150.59 372.16C151.153 372.318 151.707 372.505 152.25 372.72C154.744 373.774 157.064 375.201 159.13 376.95C165.39 381.92 165.48 392.11 163.4 400.93Z" fill="white"/>
<path opacity="0.2" d="M153.66 400.3C149.11 400.3 140.01 402.47 126.56 399.51C120.289 398.02 113.762 397.972 107.47 399.37C107.32 397.37 107.16 395.14 106.98 392.72C105.79 376.47 96.52 369.65 90.87 372.35H90.82C89.287 373.083 87.8329 373.971 86.48 375L86.3 375.14C85.4635 375.836 84.7117 376.628 84.06 377.5C77.83 385.86 82.26 404.2 86.65 413.37C86.8072 413.725 87.0052 414.061 87.24 414.37L87.29 414.44C87.8306 415.053 88.4953 415.544 89.2401 415.88C89.985 416.216 90.7928 416.39 91.61 416.39H103C107.65 416.39 108.2 412.13 107.68 402.98C108.47 402.53 109.44 401.98 110.52 401.24C113.35 399.4 124.36 400.31 129.11 402.09C133.86 403.87 146.32 404.66 152.35 403.68C155.781 403.171 159.263 403.107 162.71 403.49C162.96 402.66 163.18 401.81 163.38 400.94C161.32 400.71 157 400.3 153.66 400.3Z" fill="black"/>
<path opacity="0.2" d="M112.32 377.35C115.09 387.44 116.99 391 117.72 391.99C118.45 392.98 138.59 395.37 142.37 395.36C146.733 395.322 151.083 394.893 155.37 394.08C157.94 393.43 158.77 380.49 152.29 372.73C151.747 372.515 151.193 372.328 150.63 372.17C154.16 380.09 154.24 389.79 153.82 391.17C153.22 393.09 147.29 392.81 144.52 392.75C141.75 392.69 124.52 391.62 122.76 390.92C121.061 390.214 119.614 389.012 118.61 387.47C117.22 385.69 117.03 379.56 114.52 374.27C113.455 372.26 112.066 370.439 110.41 368.88C108.92 368.88 107.41 368.98 105.87 369.1C107.451 369.962 108.84 371.139 109.949 372.557C111.058 373.976 111.865 375.607 112.32 377.35Z" fill="black"/>
<path d="M92.34 386.64L86.8 388C86.8 388 82.87 399.28 85.22 404C87.57 408.72 69.22 415.29 60.08 412L63.66 416.59C63.66 416.59 85.42 415.22 89.57 406.94C93.72 398.66 87.79 397.38 87.4 395.05C87.01 392.72 92.34 386.64 92.34 386.64Z" fill="#263238"/>
<path opacity="0.1" d="M92.34 386.64L86.8 388C86.8 388 82.87 399.28 85.22 404C87.57 408.72 69.22 415.29 60.08 412L63.66 416.59C63.66 416.59 85.42 415.22 89.57 406.94C93.72 398.66 87.79 397.38 87.4 395.05C87.01 392.72 92.34 386.64 92.34 386.64Z" fill="white"/>
<path d="M141.27 154C141.27 154 119.87 142 115.44 138.92C111.01 135.84 87.31 112.57 85.99 111.92C85.99 111.92 86.87 109.26 84.88 107.71C82.89 106.16 75.13 101.07 74.03 101.07C72.93 101.07 70.03 111.92 70.48 114.58C70.93 117.24 81.78 117.9 81.78 117.9C81.78 117.9 104.37 144.2 107.91 147.9C111.45 151.6 135.59 167.31 135.59 167.31L141.27 154Z" fill="#E4897B"/>
<path d="M150.05 156.21C150.05 156.21 154.74 165.68 143.35 180.72L118.24 162.26L128.24 144.11L150.05 156.21Z" fill="#F58220"/>
<path opacity="0.6" d="M143.35 180.72L131.49 172L129.94 170.86L123.25 166L118.25 162.31L121.94 155.64L124 151.8L128.25 144.11L132.35 146.39L135.89 148.39L150.03 156.25C150.494 157.348 150.781 158.512 150.88 159.7C151.35 163.69 150.67 171.05 143.35 180.72Z" fill="white"/>
<path opacity="0.2" d="M143.35 180.72L131.49 172C135.56 163.58 146.09 160.61 150.9 159.66C151.35 163.69 150.67 171.05 143.35 180.72Z" fill="black"/>
<g opacity="0.2">
<path opacity="0.2" d="M135.91 148.35L132.37 150.41V146.39L135.91 148.35Z" fill="white"/>
<path opacity="0.2" d="M128.21 153.04L123.77 159.27L121.93 155.59L124.02 151.8L128.21 153.04Z" fill="white"/>
<path opacity="0.2" d="M131.49 162.41L129.94 170.86L123.25 165.95L131.49 162.41Z" fill="white"/>
<path opacity="0.2" d="M134.56 157.59L137.03 163.92L142.16 156.94L134.56 157.59Z" fill="white"/>
</g>
<path d="M196.72 151.73C196.72 151.73 218.12 139.73 222.55 136.65C226.98 133.57 250.68 110.3 252.01 109.65C252.01 109.65 251.12 106.99 253.11 105.44C255.1 103.89 262.86 98.8 263.96 98.8C265.06 98.8 267.96 109.65 267.51 112.31C267.06 114.97 256.21 115.63 256.21 115.63C256.21 115.63 233.62 141.94 230.08 145.63C226.54 149.32 202.4 165 202.4 165L196.72 151.73Z" fill="#E4897B"/>
<path d="M171.15 278.45C171.15 278.45 170.69 286 170 296.1C169.54 302.38 169 309.63 168.35 316.64C167.51 326.06 166.56 335.04 165.61 340.64C164.74 345.77 153.19 409.48 153.19 409.48H145.45C147.89 350.07 151.67 327.03 151.81 323.57C151.81 322.44 151.9 320.87 151.95 319C152.1 312.22 152.23 301.51 152.31 293.72C152.37 288.1 152.4 284.01 152.4 284.01L171.15 278.45Z" fill="#E4897B"/>
<path d="M201 326.52C200.73 331.71 197.64 409.2 197.64 409.2H189.13C184.78 347.48 186.43 326.05 185.65 321.77C184.32 314.49 183.07 304.92 182.21 297.77C181.52 292.06 181.09 287.95 181.09 287.95L198.44 280.45C198.44 280.45 199.49 289.45 200.28 300.23C200.67 305.63 201.01 311.5 201.11 316.96C201.19 320.38 201.17 323.64 201 326.52Z" fill="#E4897B"/>
<path opacity="0.2" d="M152.27 293.7L170 296.1C169.54 302.38 169 309.63 168.35 316.64L151.91 319C152.06 312.2 152.19 301.49 152.27 293.7Z" fill="black"/>
<path opacity="0.2" d="M201.12 317L185.66 321.76C184.33 314.48 183.08 304.91 182.22 297.76L200.29 300.22C200.68 305.63 201 311.5 201.12 317Z" fill="black"/>
<path d="M155 407.08H144.77C144.602 407.082 144.44 407.141 144.31 407.246C144.179 407.351 144.088 407.497 144.05 407.66L142.4 415.14C142.332 415.461 142.393 415.796 142.571 416.071C142.749 416.347 143.029 416.541 143.35 416.61C143.443 416.62 143.537 416.62 143.63 416.61C146.93 416.56 149.34 416.35 153.48 416.35C156.04 416.35 163.75 416.62 167.27 416.62C170.79 416.62 171.27 413.14 169.82 412.81C163.34 411.4 158.46 409.45 156.39 407.59C156.009 407.249 155.512 407.066 155 407.08Z" fill="#F58220"/>
<path d="M198.28 406.82H188.07C187.903 406.818 187.74 406.874 187.609 406.978C187.478 407.081 187.387 407.227 187.35 407.39L185.69 414.88C185.658 415.042 185.659 415.209 185.692 415.371C185.725 415.533 185.79 415.687 185.883 415.824C185.976 415.961 186.095 416.077 186.234 416.168C186.372 416.258 186.527 416.32 186.69 416.35H186.96C190.27 416.3 192.67 416.1 196.82 416.1C199.37 416.1 207.08 416.36 210.61 416.36C214.14 416.36 214.61 412.88 213.15 412.56C206.67 411.15 201.8 409.19 199.73 407.33C199.534 407.154 199.305 407.018 199.056 406.93C198.807 406.843 198.543 406.805 198.28 406.82Z" fill="#F58220"/>
<path d="M171.85 312.27C171.93 311.59 172.01 310.88 172.09 310.08C173.09 299.84 174.18 287.55 175.09 275.71C178.54 284.99 180.03 298.04 181.83 312.27H202.83C201.09 275.44 196.53 245.48 194.11 232.7H149.57C149.51 237.28 149 281.7 147.85 312.27H171.85Z" fill="#263238"/>
<path opacity="0.2" d="M171.85 312.27C171.93 311.59 172.01 310.88 172.09 310.08C173.09 299.84 174.18 287.55 175.09 275.71C178.54 284.99 180.03 298.04 181.83 312.27H202.83C201.09 275.44 196.53 245.48 194.11 232.7H149.57C149.51 237.28 149 281.7 147.85 312.27H171.85Z" fill="white"/>
<path d="M178 141.49C177.903 141.893 177.782 142.29 177.64 142.68C176.843 144.904 175.393 146.835 173.48 148.22C172.999 148.573 172.491 148.887 171.96 149.16C169.932 150.245 167.605 150.637 165.334 150.275C163.062 149.914 160.972 148.82 159.38 147.16C155.17 142.91 155.28 138 154.8 129.69C154.673 127.904 154.964 126.114 155.65 124.46C156.224 123.08 157.064 121.826 158.122 120.77C159.18 119.714 160.436 118.878 161.818 118.307C163.2 117.737 164.68 117.445 166.175 117.447C167.67 117.449 169.15 117.746 170.53 118.32C178.65 121.64 179.77 134 178 141.49Z" fill="#E4897B"/>
<path opacity="0.2" d="M173.45 148.22C172.969 148.573 172.461 148.887 171.93 149.16C170.538 149.902 168.997 150.324 167.42 150.393C165.844 150.462 164.272 150.178 162.82 149.56C163.196 148.561 163.697 147.614 164.31 146.74C167.436 146.348 170.608 146.862 173.45 148.22Z" fill="black"/>
<path d="M156.72 159C160.82 162.72 170.85 161.35 170.85 161.35C170.85 161.35 177.11 159.63 175.79 157.68C172.11 157.07 170.32 155.35 169.58 153.14C169.181 151.775 169.055 150.344 169.21 148.93C169.269 148.141 169.373 147.357 169.52 146.58L157.12 137.4C158.74 143.46 160.73 154.61 156.72 159Z" fill="#E4897B"/>
<path d="M173.45 133.93L175.24 134.6L174.35 130.94C174.35 130.94 176.97 126.94 174.35 123.47C174.35 123.47 181.59 121.27 177.5 117.47C175.98 116.05 174.09 117.47 169.09 115.3C166.38 114.11 157.9 114.02 157.48 117.47C157.48 117.47 151.37 117.47 150.71 127.87C150.517 130.917 150.997 133.969 152.115 136.81C153.233 139.652 154.962 142.212 157.18 144.31C157.18 144.31 164.56 146.05 168.18 143.09C171.8 140.13 173.45 133.93 173.45 133.93Z" fill="#263238"/>
<path d="M168.73 134.52C168.886 135.302 169.215 136.039 169.692 136.677C170.17 137.316 170.784 137.839 171.49 138.21C173.18 138.93 174.3 136.55 174.05 134.05C173.82 131.83 172.67 128.71 170.86 129.13C169.05 129.55 168.14 132.28 168.73 134.52Z" fill="#E4897B"/>
<path opacity="0.2" d="M175.13 275.66C174.18 287.5 173.13 299.82 172.13 310.06C170.61 295.27 168.75 284.73 168.75 284.73C168.75 284.73 167.01 283.3 162.22 275.66C157.43 268.02 162.22 253.74 162.22 253.74C162 267 175.13 275.66 175.13 275.66Z" fill="black"/>
<path d="M204.38 310.54L203.46 314.01H181.1V310.8L204.38 310.54Z" fill="#F58220"/>
<path d="M172.93 311.02L172.26 314.23H146.94L145.41 311.02H172.93Z" fill="#F58220"/>
<path d="M176.05 156.59C176.05 156.59 172.41 150.84 163.24 150.43C154.07 150.02 153.37 156.33 153.37 156.33L176.05 156.59Z" fill="#F58220"/>
<path opacity="0.5" d="M176.05 156.59C176.05 156.59 172.41 150.84 163.24 150.43C154.07 150.02 153.37 156.33 153.37 156.33L176.05 156.59Z" fill="white"/>
<path d="M143.12 153C145.886 184.133 145.551 215.463 142.12 246.53L195.85 243.25C195.25 188.42 187.9 153.88 187.9 153.88C187.9 153.88 174.05 156.79 162.78 156.37C156.113 156.06 149.51 154.929 143.12 153Z" fill="#F58220"/>
<path d="M187.94 153.92C187.94 153.92 195.12 170.7 195.89 187.68C196.66 204.66 166.73 228 166.73 228C166.73 228 143.66 212.12 125.86 213.56C108.06 215 102.52 221.33 102.52 221.33C102.52 221.33 116.36 191.72 140.46 181.4C140.46 181.4 135.46 164.35 143.12 153.08C143.12 153 159.78 158.46 187.94 153.92Z" fill="#F58220"/>
<path opacity="0.6" d="M195.89 187.68C195.915 188.16 195.915 188.64 195.89 189.12C195.849 189.862 195.759 190.6 195.62 191.33C195.294 193.048 194.781 194.724 194.09 196.33C191.953 201.03 189.166 205.406 185.81 209.33C184.11 211.41 182.31 213.41 180.53 215.27C176.219 219.816 171.609 224.069 166.73 228C160.671 223.989 154.23 220.589 147.5 217.85C145.45 217.03 143.32 216.26 141.15 215.61C136.222 214.015 131.043 213.337 125.87 213.61C120.933 213.939 116.057 214.893 111.36 216.45C110.55 216.73 109.8 217.03 109.11 217.32L108.49 217.59C106.987 218.242 105.553 219.042 104.21 219.98C104.06 220.08 103.92 220.19 103.79 220.29C103.66 220.39 103.32 220.65 103.14 220.81L102.9 221.02C102.839 221.068 102.782 221.122 102.73 221.18L102.61 221.3L102.54 221.37C102.54 221.32 102.66 221.11 102.84 220.75L103.12 220.2C103.4 219.64 103.79 218.89 104.3 217.98L104.52 217.58L104.91 216.89C105.04 216.65 105.18 216.4 105.33 216.15C105.91 215.15 106.59 213.99 107.33 212.76C111.441 206.108 116.306 199.954 121.83 194.42C123.799 192.462 125.883 190.622 128.07 188.91C131.85 185.902 136.005 183.397 140.43 181.46C139.283 177.069 138.761 172.537 138.88 168C138.909 166.571 139.026 165.145 139.23 163.73C139.689 159.903 141.019 156.232 143.12 153C145.577 153.714 148.084 154.246 150.62 154.59C153.934 155.095 157.272 155.429 160.62 155.59C167.355 155.891 174.103 155.654 180.8 154.88C183.08 154.633 185.45 154.3 187.91 153.88L188.14 154.44C189.731 158.432 191.103 162.508 192.25 166.65C192.69 168.24 193.13 169.94 193.55 171.72C193.97 173.5 194.29 175.09 194.61 176.86C195.271 180.435 195.699 184.049 195.89 187.68Z" fill="white"/>
<g opacity="0.2">
<path opacity="0.2" d="M189 201.31L185.84 209.39C184.14 211.47 182.34 213.47 180.56 215.33L174.13 203.33L189 201.31Z" fill="white"/>
<path opacity="0.2" d="M134.56 193.59L121.86 194.32C123.829 192.362 125.913 190.522 128.1 188.81L134.56 193.59Z" fill="white"/>
<path opacity="0.2" d="M149.21 161.6L147.85 174.8L138.85 167.99C138.879 166.561 138.996 165.135 139.2 163.72L149.21 161.6Z" fill="white"/>
<path opacity="0.2" d="M153.37 196.38L149.21 183.7L161.86 181.36L153.37 196.38Z" fill="white"/>
<path opacity="0.2" d="M175.13 184.3V193.79L184.21 190.53L175.13 184.3Z" fill="white"/>
<path opacity="0.2" d="M151.77 211.79L147.5 217.79C145.45 216.97 143.32 216.2 141.15 215.55L137.93 208.21L151.77 211.79Z" fill="white"/>
<path opacity="0.2" d="M119.33 202.69L125.86 205.46L119.33 209.91V202.69Z" fill="white"/>
<path opacity="0.2" d="M111.35 216.36C104.85 218.63 102.52 221.29 102.52 221.29C103.971 218.331 105.584 215.453 107.35 212.67L111.35 216.36Z" fill="white"/>
<path opacity="0.2" d="M164.71 204.08L159.09 209.91L167.59 211.4L164.71 204.08Z" fill="white"/>
<path opacity="0.2" d="M164.71 167.48L171.32 176.38L176.05 166.3L164.71 167.48Z" fill="white"/>
<path opacity="0.2" d="M194.64 176.9L186.19 171.34L192.28 166.69C193.14 169.77 194 173.24 194.64 176.9Z" fill="white"/>
<path opacity="0.2" d="M195.88 189.12C195.698 191.622 195.089 194.074 194.08 196.37L190.54 187.66L195.88 189.12Z" fill="white"/>
<path opacity="0.2" d="M188.17 154.48L182.82 160L180.82 154.92C183.1 154.673 185.47 154.34 187.93 153.92L188.17 154.48Z" fill="white"/>
<path opacity="0.2" d="M160.65 155.6L156.72 163.92L150.62 154.63C153.944 155.126 157.292 155.45 160.65 155.6Z" fill="white"/>
</g>
<path opacity="0.2" d="M195.89 187.68C195.915 188.16 195.915 188.64 195.89 189.12C195.849 189.862 195.759 190.6 195.62 191.33C188.62 180.23 190.28 170.19 190.28 170.19L193.59 171.76C193.97 173.41 194.33 175.13 194.65 176.9C195.296 180.463 195.71 184.064 195.89 187.68Z" fill="black"/>
<path d="M167.53 109.73C179.4 105.64 182.38 121.45 170.59 132.14C158.8 142.83 145.26 144.14 143.72 138.72C142.18 133.3 149.41 116 167.53 109.73Z" fill="#F58220"/>
<path d="M155.64 108.93C161.73 108.93 170.38 115.13 170.38 115.13C170.38 115.13 171.62 121.73 165.55 127.53C159.48 133.33 154 134.25 150.62 132C147.24 129.75 146.3 121 146.3 121C146.608 119.965 147.162 119.02 147.914 118.245C148.666 117.47 149.595 116.889 150.62 116.55C150.62 116.55 151.62 109 155.64 108.93Z" fill="#F58220"/>
<path opacity="0.2" d="M165.55 127.53C159.48 133.33 154.02 134.25 150.62 132.01C150.027 131.594 149.524 131.064 149.14 130.45C146.94 127.14 146.3 121.03 146.3 121.03C152.1 128.03 158.82 120.8 159.75 115.92C160.025 114.761 160.029 113.554 159.76 112.393C159.491 111.233 158.957 110.15 158.2 109.23C162.2 110.09 166.58 112.65 168.84 114.1C169.84 114.71 170.38 115.1 170.38 115.1C170.38 115.1 171.62 121.73 165.55 127.53Z" fill="black"/>
<path opacity="0.6" d="M165.55 127.53C159.48 133.33 154.02 134.25 150.62 132.01C150.027 131.594 149.524 131.064 149.14 130.45C155.22 132.26 162.46 129.25 166.35 123.84C168.413 121.04 169.306 117.547 168.84 114.1C169.84 114.71 170.38 115.1 170.38 115.1C170.38 115.1 171.62 121.73 165.55 127.53Z" fill="white"/>
<path d="M187.94 153.92C187.94 153.92 183.25 163.4 194.64 178.43L219.75 160L209.75 141.85L187.94 153.92Z" fill="#F58220"/>
<path opacity="0.6" d="M219.75 160L213.2 164.81L203.51 171.94L194.64 178.46C194.06 177.7 193.53 176.95 193.03 176.22C192.014 174.732 191.093 173.183 190.27 171.58C188.242 167.857 187.121 163.708 187 159.47C186.932 157.57 187.273 155.677 188 153.92L193.58 150.82L203.19 145.49L207.41 143.14L209.79 141.82L219.75 160Z" fill="white"/>
<g opacity="0.2">
<path opacity="0.2" d="M213.2 164.78L203.51 171.91L199.24 162.41L213.2 164.78Z" fill="white"/>
<path opacity="0.2" d="M212.3 149.5L203.36 153.04L203.13 145.49L207.35 143.14L212.3 149.5Z" fill="white"/>
<path opacity="0.2" d="M196.72 156.94L187 159.47C186.932 157.57 187.273 155.677 188 153.92L193.58 150.82L196.72 156.94Z" fill="white"/>
<path opacity="0.2" d="M194.64 169.07L193 176.19C191.984 174.702 191.063 173.153 190.24 171.55L194.64 169.07Z" fill="white"/>
</g>
<path d="M256.44 324.61L241 323.39L246.1 258.28L261.59 259.49L256.44 324.61ZM244.17 320.61L253.68 321.35L258.31 262.22L248.81 261.48L244.17 320.61Z" fill="#263238"/>
<path d="M245.77 408.54L247.77 408.7C248.327 408.692 248.879 408.8 249.392 409.018C249.904 409.236 250.365 409.558 250.746 409.964C251.127 410.37 251.419 410.852 251.603 411.377C251.787 411.903 251.859 412.461 251.815 413.016C251.771 413.571 251.612 414.111 251.347 414.601C251.082 415.091 250.718 415.52 250.278 415.861C249.838 416.202 249.332 416.448 248.791 416.582C248.251 416.716 247.688 416.736 247.14 416.64L245.14 416.48C244.583 416.489 244.03 416.382 243.517 416.165C243.003 415.949 242.541 415.627 242.159 415.221C241.778 414.815 241.485 414.334 241.3 413.809C241.115 413.283 241.042 412.725 241.085 412.169C241.128 411.614 241.287 411.073 241.552 410.583C241.816 410.092 242.18 409.663 242.62 409.321C243.06 408.979 243.567 408.733 244.108 408.599C244.648 408.464 245.211 408.444 245.76 408.54H245.77Z" fill="#263238"/>
<path opacity="0.1" d="M241.42 412.12C241.355 412.921 241.529 413.723 241.921 414.425C242.312 415.127 242.903 415.697 243.618 416.063C244.334 416.429 245.142 416.574 245.94 416.48C246.738 416.387 247.491 416.058 248.102 415.537C248.713 415.015 249.156 414.324 249.374 413.55C249.592 412.777 249.576 411.956 249.328 411.192C249.079 410.428 248.609 409.754 247.978 409.257C247.346 408.76 246.581 408.462 245.78 408.4C245.248 408.351 244.712 408.409 244.202 408.57C243.693 408.732 243.221 408.993 242.815 409.34C242.409 409.687 242.076 410.111 241.836 410.589C241.597 411.066 241.455 411.587 241.42 412.12Z" fill="white"/>
<path d="M234.85 407.69L236.85 407.84C237.407 407.831 237.96 407.938 238.473 408.155C238.987 408.371 239.449 408.693 239.831 409.099C240.212 409.505 240.505 409.986 240.69 410.511C240.875 411.037 240.948 411.595 240.905 412.151C240.861 412.706 240.703 413.247 240.438 413.737C240.174 414.228 239.81 414.657 239.37 414.999C238.93 415.341 238.423 415.587 237.882 415.721C237.342 415.856 236.779 415.876 236.23 415.78L234.23 415.63C233.673 415.639 233.12 415.532 232.607 415.315C232.093 415.099 231.631 414.777 231.249 414.371C230.868 413.965 230.575 413.484 230.39 412.959C230.205 412.433 230.132 411.875 230.175 411.319C230.218 410.764 230.377 410.223 230.642 409.733C230.906 409.242 231.27 408.813 231.71 408.471C232.15 408.129 232.657 407.883 233.198 407.749C233.738 407.614 234.301 407.594 234.85 407.69Z" fill="#263238"/>
<path opacity="0.2" d="M230.5 411.27C230.437 412.071 230.613 412.872 231.006 413.573C231.398 414.274 231.99 414.842 232.706 415.206C233.422 415.571 234.23 415.714 235.027 415.62C235.825 415.525 236.576 415.195 237.187 414.673C237.797 414.151 238.239 413.459 238.456 412.686C238.673 411.913 238.656 411.092 238.407 410.329C238.158 409.565 237.688 408.893 237.057 408.396C236.425 407.9 235.661 407.602 234.86 407.54C233.788 407.46 232.728 407.807 231.911 408.506C231.094 409.205 230.587 410.198 230.5 411.27Z" fill="white"/>
<path d="M233.03 408.89L248.503 410.103C249.984 410.219 251.279 409.112 251.395 407.631L258.763 313.589C258.879 312.108 257.772 310.813 256.291 310.697L240.819 309.485C239.338 309.369 238.043 310.475 237.927 311.957L230.558 405.998C230.442 407.479 231.549 408.774 233.03 408.89Z" fill="#263238"/>
<path opacity="0.2" d="M240.754 409.482L248.511 410.09C249.992 410.206 251.286 409.099 251.403 407.618L258.771 313.576C258.887 312.095 257.78 310.8 256.299 310.684L248.543 310.077C247.062 309.961 245.767 311.067 245.651 312.548L238.283 406.59C238.167 408.071 239.273 409.366 240.754 409.482Z" fill="white"/>
<path d="M246.822 260.46L259.872 261.504C260.977 261.593 261.944 260.769 262.032 259.664L262.131 258.434C262.219 257.33 261.395 256.363 260.291 256.274L247.241 255.23C246.136 255.142 245.169 255.966 245.081 257.07L244.982 258.3C244.894 259.405 245.718 260.372 246.822 260.46Z" fill="#263238"/>
<path opacity="0.2" d="M246.822 260.46L259.872 261.504C260.977 261.593 261.944 260.769 262.032 259.664L262.131 258.434C262.219 257.33 261.395 256.363 260.291 256.274L247.241 255.23C246.136 255.142 245.169 255.966 245.081 257.07L244.982 258.3C244.894 259.405 245.718 260.372 246.822 260.46Z" fill="white"/>
<path opacity="0.2" d="M247.122 261.759L248.209 261.844C249.31 261.93 250.272 261.107 250.358 260.006L250.454 258.78C250.54 257.679 249.717 256.716 248.616 256.63L247.53 256.545C246.428 256.459 245.466 257.282 245.38 258.383L245.284 259.61C245.198 260.711 246.021 261.673 247.122 261.759Z" fill="black"/>
<path d="M287.54 320.64L280.88 405.64C280.763 407.141 280.054 408.534 278.91 409.512C277.767 410.491 276.281 410.976 274.78 410.86L243.78 408.43C242.729 408.341 241.755 407.84 241.072 407.036C240.388 406.233 240.05 405.192 240.13 404.14L247 315.77C247.087 314.719 247.585 313.745 248.387 313.059C249.188 312.374 250.228 312.033 251.28 312.11L282.28 314.54C283.027 314.593 283.755 314.793 284.424 315.129C285.093 315.465 285.689 315.93 286.178 316.496C286.667 317.063 287.039 317.721 287.273 318.432C287.506 319.143 287.597 319.894 287.54 320.64Z" fill="#F58220"/>
<path opacity="0.2" d="M287.54 320.64L280.88 405.64C280.763 407.141 280.054 408.534 278.91 409.512C277.767 410.491 276.281 410.976 274.78 410.86L243.78 408.43C242.729 408.341 241.755 407.84 241.072 407.036C240.388 406.233 240.05 405.192 240.13 404.14L247 315.77C247.087 314.719 247.585 313.745 248.387 313.059C249.188 312.374 250.228 312.033 251.28 312.11L282.28 314.54C283.027 314.593 283.755 314.793 284.424 315.129C285.093 315.465 285.689 315.93 286.178 316.496C286.667 317.063 287.039 317.721 287.273 318.432C287.506 319.143 287.597 319.894 287.54 320.64Z" fill="white"/>
<path opacity="0.2" d="M266.22 313.28V313.4L265.11 313.31C264.057 313.233 263.015 313.575 262.213 314.263C261.412 314.95 260.914 315.927 260.83 316.98L253.91 405.32C253.847 406.207 254.081 407.089 254.575 407.828C255.07 408.567 255.796 409.12 256.64 409.4L243.75 408.4C242.699 408.313 241.725 407.815 241.039 407.013C240.354 406.212 240.013 405.172 240.09 404.12L247 315.78C247.084 314.727 247.582 313.75 248.383 313.063C249.185 312.375 250.227 312.033 251.28 312.11L266.22 313.28Z" fill="black"/>
<path opacity="0.2" d="M265.958 316.376L265.499 316.341C264.899 316.293 264.374 316.742 264.327 317.342L257.542 403.947C257.495 404.547 257.943 405.071 258.543 405.118L259.002 405.154C259.602 405.201 260.127 404.753 260.174 404.153L266.959 317.548C267.006 316.948 266.558 316.423 265.958 316.376Z" fill="black"/>
<path opacity="0.2" d="M272.167 317.289L271.708 317.253C271.108 317.206 270.583 317.654 270.536 318.254L263.751 404.859C263.704 405.459 264.152 405.984 264.752 406.031L265.211 406.067C265.811 406.114 266.336 405.665 266.383 405.065L273.168 318.461C273.215 317.86 272.767 317.336 272.167 317.289Z" fill="black"/>
<path opacity="0.2" d="M278.379 317.662L277.92 317.626C277.32 317.579 276.796 318.027 276.749 318.628L269.963 405.232C269.916 405.832 270.364 406.357 270.965 406.404L271.423 406.44C272.023 406.487 272.548 406.039 272.595 405.438L279.381 318.834C279.428 318.234 278.979 317.709 278.379 317.662Z" fill="black"/>
<path opacity="0.2" d="M284.572 318.025L284.113 317.989C283.513 317.942 282.989 318.391 282.942 318.991L276.156 405.595C276.109 406.195 276.557 406.72 277.158 406.767L277.616 406.803C278.216 406.85 278.741 406.402 278.788 405.802L285.574 319.197C285.621 318.597 285.172 318.072 284.572 318.025Z" fill="black"/>
</svg>
