<svg width="112" height="36" viewBox="0 0 112 36" fill="none" xmlns="http://www.w3.org/2000/svg">
<path fill-rule="evenodd" clip-rule="evenodd" d="M105.508 31.4514H106.314C106.436 30.7592 106.748 30.1746 107.289 29.7132C107.821 29.2594 108.438 29.0364 109.138 29.0364C109.937 29.0364 110.622 29.3132 111.178 29.8978C111.726 30.4746 112 31.1591 112 31.9513C112 32.7435 111.726 33.4203 111.186 33.9894C110.63 34.5662 109.945 34.8431 109.146 34.8431C108.423 34.8431 107.791 34.6047 107.243 34.1201C106.68 33.6279 106.398 32.9819 106.314 32.2435H105.508V34.7124H104.708V29.1671H105.508V31.4514ZM102.44 29.8824V34.7124H101.641V29.8824H100.225V29.1671H103.871V29.8824H102.44ZM99.624 30.3746L98.9847 30.7745L98.9542 30.7361C98.4747 30.0977 97.8353 29.8055 97.0514 29.8055C96.4348 29.8055 95.8945 29.9977 95.453 30.4284C95.0344 30.8438 94.8213 31.3437 94.8213 31.9359C94.8213 32.3282 94.9202 32.6896 95.1105 33.0203C95.3084 33.3587 95.5748 33.6203 95.9097 33.8125C96.2674 34.0125 96.6556 34.0971 97.059 34.0971C97.8429 34.0971 98.4747 33.7817 98.9618 33.1665L98.9923 33.128L99.6316 33.551L99.6012 33.5972C99.3348 34.0048 98.977 34.3124 98.5432 34.5278C98.0713 34.7585 97.5537 34.8585 97.0362 34.8585C96.2141 34.8585 95.4758 34.6047 94.8745 34.0279C94.3037 33.4741 94.0145 32.7973 94.0145 31.9974C94.0145 31.4668 94.1515 30.9668 94.4179 30.5054C94.6843 30.0439 95.0572 29.6824 95.5215 29.4286C96.0087 29.1594 96.5338 29.0441 97.0895 29.0441C97.4472 29.0441 97.7973 29.0979 98.1398 29.2133C98.4443 29.3133 98.7411 29.4517 98.9999 29.6516C99.2434 29.8362 99.4489 30.0747 99.6012 30.3361L99.624 30.3746ZM92.1421 29.1671H92.9413V34.7124H92.1421V29.1671ZM92.5455 26.9367C92.7205 26.9367 92.8652 26.9982 92.9869 27.1213C93.1087 27.2443 93.1696 27.3982 93.1696 27.5674C93.1696 27.7366 93.1087 27.8904 92.9869 28.0134C92.8652 28.1365 92.7205 28.1981 92.5455 28.1981C92.3704 28.1981 92.2258 28.1365 92.1116 28.0134C91.9899 27.8904 91.929 27.7443 91.929 27.5674C91.929 27.3905 91.9899 27.2443 92.1116 27.1213C92.2258 27.0059 92.3704 26.9367 92.5455 26.9367ZM90.0185 32.0974H86.9892V34.7124H86.1901V29.1671H86.9892V31.3283H90.0185V29.1671H90.8177V34.7124H90.0185V32.0974ZM80.1695 32.0512C80.1923 32.605 80.3674 33.0972 80.7556 33.5049C81.1361 33.9048 81.6081 34.0894 82.1485 34.0894C82.4149 34.0894 82.6812 34.0433 82.9324 33.951C83.1683 33.8664 83.3891 33.7433 83.5794 33.5818C83.8077 33.3818 84.0056 33.0895 84.1578 32.8281L84.1807 32.7819L84.8581 33.1434L84.8352 33.1896C84.6602 33.528 84.4394 33.8587 84.1578 34.1201C83.9066 34.3509 83.6174 34.5355 83.2901 34.6585C82.94 34.7893 82.5747 34.8431 82.2017 34.8431C81.3797 34.8431 80.6414 34.5893 80.0934 33.951C79.5987 33.3741 79.3323 32.7127 79.3323 31.9513C79.3323 31.2514 79.5454 30.6284 79.9716 30.0823C80.5272 29.3748 81.2579 29.0364 82.1561 29.0364C83.0694 29.0364 83.8305 29.3825 84.4014 30.1054C84.8276 30.6515 85.0027 31.3052 85.0103 31.9897V32.0436H80.1695V32.0512ZM29.2955 31.659C29.874 31.9436 30.1861 32.4205 30.1861 33.0973C30.1861 33.5587 30.0186 33.9587 29.7218 34.3048C29.364 34.7124 28.8465 34.8431 28.3213 34.8431C27.6134 34.8431 26.9893 34.6278 26.5022 34.1048L26.4641 34.0664L26.9665 33.4895L27.0045 33.5357C27.3394 33.9125 27.7581 34.0894 28.2528 34.0894C28.542 34.0894 28.8312 34.0202 29.0444 33.8202C29.2499 33.628 29.326 33.3818 29.326 33.105C29.326 32.8358 29.2422 32.5973 29.0367 32.4127C28.8465 32.2359 28.6181 32.1512 28.3593 32.1512H27.8798V31.436H28.2985C28.5268 31.436 28.7247 31.3591 28.9074 31.2206C29.1053 31.0668 29.1814 30.8515 29.1814 30.6054C29.1814 30.3823 29.1129 30.1823 28.9606 30.0208C28.7856 29.8286 28.5268 29.7747 28.2832 29.7747C27.8722 29.7747 27.4993 29.9593 27.1796 30.2054L27.1339 30.2362L26.6773 29.6747L26.7153 29.6363C27.172 29.2517 27.7048 29.0133 28.3061 29.0133C28.7475 29.0133 29.1433 29.1363 29.4782 29.4286C29.8055 29.7132 29.9577 30.0747 29.9577 30.5054C29.9653 31.0438 29.7446 31.436 29.2955 31.659ZM35.9326 33.8741C35.6814 34.1586 35.3846 34.4047 35.0344 34.5739C34.6539 34.7585 34.2505 34.8431 33.8319 34.8431C33.0555 34.8431 32.3933 34.5586 31.8453 33.9894C31.2897 33.4126 31.0233 32.7204 31.0233 31.9205C31.0233 31.1283 31.3049 30.4439 31.8529 29.8824C32.4009 29.321 33.0707 29.0364 33.8471 29.0364C34.2733 29.0364 34.6843 29.121 35.0649 29.3209C35.4074 29.4978 35.689 29.7516 35.925 30.0593V29.1671H36.7242V34.7124H35.925V33.8741H35.9326ZM41.055 34.0125L43.1329 29.1748H43.5667L45.6294 34.0125H46.2916V35.4123H45.5152V34.7201H41.1768V35.443H40.3776V34.0125H41.055ZM49.7166 29.0364C50.5539 29.0364 51.2541 29.3363 51.8174 29.9593C52.3273 30.5207 52.5785 31.1899 52.5785 31.9513C52.5785 32.7281 52.3045 33.4049 51.7793 33.974C51.2237 34.5739 50.5234 34.8431 49.7166 34.8431C48.9098 34.8431 48.202 34.5739 47.6464 33.974C47.1212 33.4049 46.8472 32.7358 46.8472 31.9513C46.8472 31.1899 47.0984 30.5284 47.6083 29.9593C48.1716 29.3363 48.8794 29.0364 49.7166 29.0364ZM59.5962 30.8053L57.5715 34.7124H57.3736L55.349 30.7899L54.0475 34.7124H53.2103L55.0827 29.1671H55.3414L57.4802 33.351L59.619 29.1671H59.893L61.7425 34.7124H60.9053L59.5962 30.8053ZM65.2437 29.0364C66.081 29.0364 66.7812 29.3363 67.3445 29.9593C67.8544 30.5207 68.1056 31.1899 68.1056 31.9513C68.1056 32.7281 67.8316 33.4049 67.3064 33.974C66.7508 34.5739 66.0505 34.8431 65.2437 34.8431C64.4369 34.8431 63.7291 34.5739 63.1735 33.974C62.6483 33.4049 62.3743 32.7358 62.3743 31.9513C62.3743 31.1899 62.6254 30.5284 63.1354 29.9593C63.6986 29.3363 64.4065 29.0364 65.2437 29.0364ZM71.9341 31.7052C72.5582 31.9667 72.8931 32.4435 72.8931 33.1588C72.8931 34.3816 71.9417 34.7201 70.8761 34.7201H69.2549V29.1748H70.8533C71.3023 29.1748 71.8351 29.2517 72.1624 29.5978C72.4288 29.8747 72.5658 30.2054 72.5658 30.59C72.5734 31.1053 72.3679 31.4821 71.9341 31.7052ZM76.0746 30.8284L74.324 34.7124H73.4639L75.9681 29.1671H76.1584L78.7005 34.7124H77.8557L76.0746 30.8284ZM111.178 31.9744C111.178 31.3898 110.972 30.8822 110.569 30.4669C110.173 30.0593 109.701 29.8363 109.138 29.8363C108.567 29.8363 108.095 30.0516 107.7 30.4669C107.296 30.8899 107.091 31.3898 107.091 31.9744C107.091 32.5512 107.281 33.0434 107.669 33.4587C108.065 33.8817 108.56 34.074 109.131 34.074C109.701 34.074 110.188 33.874 110.584 33.4587C110.988 33.0434 111.178 32.5435 111.178 31.9744ZM84.1426 31.336C84.0665 31.0514 83.9523 30.7669 83.7697 30.5361C83.587 30.3054 83.351 30.1362 83.0846 30.0131C82.803 29.8824 82.4986 29.8132 82.1865 29.8132C81.6765 29.8132 81.2351 29.9747 80.8545 30.3131C80.5577 30.5823 80.375 30.9591 80.2608 31.336H84.1426ZM33.908 29.8209C33.535 29.8209 33.1925 29.9131 32.8729 30.0977C32.5532 30.29 32.302 30.5515 32.1193 30.8745C31.9366 31.2053 31.8377 31.5591 31.8377 31.9436C31.8377 32.3205 31.9366 32.6819 32.1193 33.0126C32.302 33.3433 32.5532 33.6126 32.8804 33.8048C33.2001 33.9894 33.535 34.0894 33.908 34.0894C34.2809 34.0894 34.6311 33.9894 34.9507 33.8048C35.2704 33.6202 35.5292 33.3741 35.7119 33.0434C35.8945 32.7127 35.9782 32.3435 35.9782 31.959C35.9782 31.3667 35.7956 30.8514 35.377 30.4284C34.9736 30.0208 34.4788 29.8209 33.908 29.8209ZM43.3308 30.4669L41.839 34.0125H44.7541L43.3308 30.4669ZM49.7091 29.8363C49.1382 29.8363 48.6663 30.0516 48.2705 30.4592C47.8671 30.8822 47.6692 31.3898 47.6692 31.9744C47.6692 32.3512 47.7606 32.7127 47.9432 33.0434C48.1259 33.3664 48.3695 33.6202 48.6891 33.8048C49.0088 33.9894 49.3513 34.074 49.7166 34.074C50.082 34.074 50.4245 33.9894 50.7442 33.8048C51.0639 33.6202 51.3074 33.3664 51.4901 33.0434C51.6728 32.7127 51.7641 32.3589 51.7641 31.9744C51.7641 31.3821 51.5662 30.8822 51.1552 30.4592C50.7518 30.0516 50.2799 29.8363 49.7091 29.8363ZM65.2361 29.8363C64.6653 29.8363 64.1933 30.0516 63.7976 30.4592C63.3942 30.8822 63.1963 31.3898 63.1963 31.9744C63.1963 32.3512 63.2876 32.7127 63.4703 33.0434C63.653 33.3664 63.8965 33.6202 64.2162 33.8048C64.5359 33.9894 64.8784 34.074 65.2437 34.074C65.6091 34.074 65.9516 33.9894 66.2712 33.8048C66.5909 33.6202 66.8345 33.3664 67.0172 33.0434C67.1998 32.7127 67.2912 32.3589 67.2912 31.9744C67.2912 31.3821 67.0933 30.8822 66.6823 30.4592C66.2789 30.0516 65.807 29.8363 65.2361 29.8363ZM70.0617 29.8824V31.4591H70.4575C70.6706 31.4591 71.0436 31.4668 71.2491 31.4129C71.3785 31.3745 71.4926 31.2899 71.5763 31.1822C71.6905 31.0438 71.7286 30.8745 71.7286 30.6977C71.7286 30.5054 71.6829 30.3208 71.5687 30.167C71.485 30.0593 71.3708 29.9439 71.2338 29.9208C71.0131 29.8747 70.6782 29.8824 70.4575 29.8824H70.0617ZM70.0617 32.2205V34.0125H70.7543C70.9674 34.0125 71.2795 34.0125 71.4926 33.9433C71.6449 33.8971 71.759 33.7972 71.8503 33.6741C71.9645 33.5203 72.0026 33.328 72.0026 33.1357C72.0026 32.8742 71.9264 32.6435 71.7438 32.4666C71.5535 32.282 71.3099 32.2205 71.0512 32.2205H70.0617Z" fill="#231F20"/>
<path fill-rule="evenodd" clip-rule="evenodd" d="M0.897963 29.3914H4.7511V25.9916H5.64911V34.2276H4.7511V30.3008H0.897963V34.2276H0V25.9916H0.897963V29.3914ZM7.28998 33.3522L10.3513 25.9916H10.6941L13.9269 33.3522H14.5473V35.443H13.6493V34.2361H7.54305V35.443H6.64503V33.3522H7.28998ZM16.3024 27.955C16.4984 27.955 16.6698 28.0229 16.8086 28.1674C16.9474 28.3119 17.0127 28.4904 17.0127 28.6944C17.0127 28.8984 16.9474 29.0769 16.8086 29.2214C16.6698 29.3659 16.4984 29.4339 16.3024 29.4339C16.1065 29.4339 15.9351 29.3659 15.7963 29.2214C15.6575 29.0769 15.5922 28.8984 15.5922 28.6944C15.5922 28.4904 15.6575 28.3119 15.7963 28.1674C15.9433 28.0314 16.1065 27.955 16.3024 27.955ZM16.3024 32.8847C16.4984 32.8847 16.6698 32.9527 16.8086 33.0972C16.9474 33.2417 17.0127 33.4201 17.0127 33.6241C17.0127 33.8281 16.9474 34.0067 16.8086 34.1511C16.6698 34.2956 16.5065 34.3721 16.3024 34.3721C16.1065 34.3721 15.9351 34.2956 15.7963 34.1511C15.6575 34.0067 15.5922 33.8281 15.5922 33.6241C15.5922 33.4201 15.6575 33.2417 15.7963 33.0972C15.9433 32.9612 16.1065 32.8847 16.3024 32.8847ZM8.30224 33.3522H12.8819L10.539 27.904L8.30224 33.3522Z" fill="#F58220"/>
<path fill-rule="evenodd" clip-rule="evenodd" d="M7.81691 14.9614L7.10256 15.5249L7.06973 15.4745C6.74129 15.0371 6.34713 14.6923 5.86268 14.4568C5.37823 14.2129 4.85272 14.112 4.31079 14.112C3.70317 14.112 3.13665 14.2634 2.60293 14.5662C2.09385 14.8605 1.68326 15.2642 1.38767 15.7857C1.09207 16.3155 0.952507 16.8959 0.952507 17.5099C0.952507 18.4519 1.25631 19.2593 1.9214 19.9238C2.59471 20.5966 3.424 20.891 4.36005 20.891C5.46033 20.891 6.35537 20.4452 7.06973 19.5957L7.10256 19.5537L7.81691 20.1088L7.77587 20.1593C7.37353 20.6807 6.88087 21.076 6.28967 21.362C5.66563 21.6564 4.99234 21.7825 4.30262 21.7825C3.01349 21.7825 1.86394 21.3704 1.00999 20.3611C0.312053 19.5369 0 18.5528 0 17.4594C0 16.2819 0.402382 15.2726 1.22348 14.4484C2.06922 13.5989 3.11201 13.2288 4.2944 13.2288C4.99234 13.2288 5.67386 13.3634 6.30611 13.6746C6.8973 13.969 7.38995 14.3895 7.77587 14.9362L7.81691 14.9614ZM10.1571 14.3138V16.7698H10.4609C11.1013 16.7698 12.0045 16.795 12.604 17.0389C13.0473 17.2155 13.4086 17.4931 13.6714 17.8968C13.9341 18.2921 14.0655 18.7295 14.0655 19.2005C14.0655 19.8481 13.8192 20.3948 13.3758 20.8574C12.8667 21.3872 12.177 21.5722 11.4626 21.5722H9.25384V13.4223H13.3019V14.3222H10.1571V14.3138ZM16.266 15.3568C16.4631 15.3568 16.6356 15.4241 16.7752 15.567C16.9148 15.71 16.9804 15.8866 16.9804 16.0885C16.9804 16.2904 16.9148 16.467 16.7752 16.61C16.6356 16.7529 16.4631 16.8202 16.266 16.8202C16.069 16.8202 15.8965 16.7529 15.757 16.61C15.6174 16.467 15.5517 16.2904 15.5517 16.0885C15.5517 15.8866 15.6174 15.71 15.757 15.567C15.8965 15.4241 16.069 15.3568 16.266 15.3568ZM16.266 20.235C16.4631 20.235 16.6356 20.3023 16.7752 20.4452C16.9148 20.5882 16.9804 20.7648 16.9804 20.9667C16.9804 21.1686 16.9148 21.3452 16.7752 21.4882C16.6356 21.6311 16.4713 21.7068 16.266 21.7068C16.069 21.7068 15.8965 21.6311 15.757 21.4882C15.6174 21.3452 15.5517 21.1686 15.5517 20.9667C15.5517 20.7648 15.6174 20.5882 15.757 20.4452C15.8965 20.3023 16.069 20.235 16.266 20.235ZM10.1571 17.6865V20.6555H11.0603C11.4298 20.6555 11.9471 20.6387 12.2837 20.4873C12.5383 20.3779 12.7353 20.2097 12.8913 19.9742C13.0473 19.7387 13.1213 19.4864 13.1213 19.2088C13.1213 18.864 13.0227 18.5612 12.801 18.3005C12.5875 18.0482 12.3166 17.8884 11.9963 17.8043C11.5529 17.6949 10.9946 17.6865 10.5348 17.6865H10.1571Z" fill="#231F20"/>
<path fill-rule="evenodd" clip-rule="evenodd" d="M27.7865 14.4317H26.5056L27.0475 13.5318H28.6897V21.6817H27.7865V14.4317ZM31.4076 17.6025C31.4076 16.8203 31.4651 15.8615 31.7443 15.1213C31.9495 14.5915 32.2533 14.1121 32.7049 13.7756C33.1237 13.4729 33.5835 13.3131 34.1008 13.3131C34.6181 13.3131 35.0943 13.4644 35.5131 13.7756C35.9811 14.1205 36.2932 14.6167 36.5149 15.155C36.8105 15.8952 36.8761 16.8035 36.8761 17.5941C36.8761 18.3847 36.8105 19.2931 36.5149 20.0248C36.3014 20.5631 35.9893 21.0593 35.5131 21.4042C35.0861 21.7154 34.6181 21.8752 34.0926 21.8752C33.5835 21.8752 33.1155 21.7238 32.7049 21.421C32.2533 21.0846 31.9495 20.6051 31.7443 20.0753C31.4651 19.3435 31.4076 18.3931 31.4076 17.6025ZM38.8139 20.3528C39.011 20.3528 39.1834 20.4201 39.323 20.5631C39.4626 20.7061 39.5283 20.8827 39.5283 21.0846C39.5283 21.2864 39.4626 21.463 39.323 21.606C39.1834 21.749 39.0192 21.8247 38.8139 21.8247C38.6169 21.8247 38.4444 21.749 38.3049 21.606C38.1653 21.463 38.0996 21.2864 38.0996 21.0846C38.0996 20.8827 38.1653 20.7061 38.3049 20.5631C38.4527 20.4201 38.6169 20.3528 38.8139 20.3528ZM40.4807 17.6025C40.4807 16.8203 40.5382 15.8615 40.8174 15.1213C41.0227 14.5915 41.3265 14.1121 41.7781 13.7756C42.1969 13.4729 42.6567 13.3131 43.174 13.3131C43.6913 13.3131 44.1675 13.4644 44.5863 13.7756C45.0543 14.1205 45.3663 14.6167 45.588 15.155C45.8836 15.8952 45.9493 16.8035 45.9493 17.5941C45.9493 18.3847 45.8836 19.2931 45.588 20.0248C45.3745 20.5631 45.0625 21.0593 44.5863 21.4042C44.1593 21.7154 43.6913 21.8752 43.1658 21.8752C42.6567 21.8752 42.1887 21.7238 41.7781 21.421C41.3265 21.0846 41.0227 20.6051 40.8174 20.0753C40.5382 19.3435 40.4807 18.3931 40.4807 17.6025ZM46.5323 17.6025C46.5323 16.8203 46.5898 15.8615 46.8689 15.1213C47.0742 14.5915 47.378 14.1121 47.8296 13.7756C48.2484 13.4729 48.7082 13.3131 49.2255 13.3131C49.7428 13.3131 50.219 13.4644 50.6378 13.7756C51.1058 14.1205 51.4178 14.6167 51.6395 15.155C51.9351 15.8952 52.0008 16.8035 52.0008 17.5941C52.0008 18.3847 51.9351 19.2931 51.6395 20.0248C51.4261 20.5631 51.114 21.0593 50.6378 21.4042C50.2108 21.7154 49.7428 21.8752 49.2173 21.8752C48.7082 21.8752 48.2402 21.7238 47.8296 21.421C47.378 21.0846 47.0742 20.6051 46.8689 20.0753C46.5898 19.3435 46.5323 18.3931 46.5323 17.6025ZM55.6055 18.1997H58.6517V18.9903H55.6055V18.1997ZM64.6951 14.4317H63.4142L63.9561 13.5318H65.5983V21.6817H64.6951V14.4317ZM72.3313 17.2072C72.7337 17.4259 73.136 17.7119 73.3988 18.0988C73.6451 18.4604 73.76 18.8725 73.76 19.3099C73.76 19.9491 73.5548 20.5042 73.1524 20.992C72.6105 21.6481 71.8551 21.8836 71.034 21.8836C70.2786 21.8836 69.5396 21.6901 69.0223 21.1014C68.5953 20.6136 68.3326 20.0416 68.3326 19.3772C68.3326 18.923 68.4475 18.5109 68.6939 18.1324C68.9566 17.7287 69.3753 17.4343 69.7859 17.2072C69.4739 17.0306 69.1947 16.7951 68.9977 16.4839C68.8006 16.1811 68.702 15.8447 68.702 15.483C68.702 15.1045 68.817 14.7513 69.014 14.4317C69.2275 14.0784 69.5231 13.8177 69.8844 13.6243C70.2539 13.4224 70.6563 13.3299 71.075 13.3299C71.4856 13.3299 71.8715 13.4224 72.241 13.6243C72.5859 13.8177 72.8732 14.0868 73.0785 14.4317C73.2756 14.7597 73.3823 15.1214 73.3823 15.5082C73.3823 15.8699 73.292 16.2148 73.095 16.5175C72.8979 16.8035 72.6269 17.0306 72.3313 17.2072ZM75.7225 20.3528C75.9196 20.3528 76.092 20.4201 76.2316 20.5631C76.3712 20.7061 76.4368 20.8827 76.4368 21.0846C76.4368 21.2864 76.3712 21.463 76.2316 21.606C76.092 21.749 75.9278 21.8247 75.7225 21.8247C75.5254 21.8247 75.353 21.749 75.2134 21.606C75.0738 21.463 75.0081 21.2864 75.0081 21.0846C75.0081 20.8827 75.0738 20.7061 75.2134 20.5631C75.353 20.4201 75.5254 20.3528 75.7225 20.3528ZM77.3811 17.6025C77.3811 16.8203 77.4386 15.8615 77.7178 15.1213C77.923 14.5915 78.2268 14.1121 78.6784 13.7756C79.0972 13.4729 79.557 13.3131 80.0743 13.3131C80.5916 13.3131 81.0678 13.4644 81.4866 13.7756C81.9546 14.1205 82.2667 14.6167 82.4884 15.155C82.784 15.8952 82.8497 16.8035 82.8497 17.5941C82.8497 18.3847 82.784 19.2931 82.4884 20.0248C82.2749 20.5631 81.9628 21.0593 81.4866 21.4042C81.0596 21.7154 80.5916 21.8752 80.0661 21.8752C79.557 21.8752 79.089 21.7238 78.6784 21.421C78.2268 21.0846 77.923 20.6051 77.7178 20.0753C77.4386 19.3435 77.3811 18.3931 77.3811 17.6025ZM83.4326 17.6025C83.4326 16.8203 83.4901 15.8615 83.7693 15.1213C83.9746 14.5915 84.2784 14.1121 84.73 13.7756C85.1487 13.4729 85.6086 13.3131 86.1258 13.3131C86.6431 13.3131 87.1194 13.4644 87.5381 13.7756C88.0061 14.1205 88.3182 14.6167 88.5399 15.155C88.8355 15.8952 88.9012 16.8035 88.9012 17.5941C88.9012 18.3847 88.8355 19.2931 88.5399 20.0248C88.3264 20.5631 88.0144 21.0593 87.5381 21.4042C87.1111 21.7154 86.6431 21.8752 86.1176 21.8752C85.6085 21.8752 85.1405 21.7238 84.73 21.421C84.2784 21.0846 83.9746 20.6051 83.7693 20.0753C83.4901 19.3435 83.4326 18.3931 83.4326 17.6025ZM32.2697 17.6193C32.2697 18.2501 32.3026 19.0576 32.4997 19.6547C32.6392 20.0584 32.8445 20.4285 33.1812 20.6809C33.4604 20.8995 33.7723 21.0257 34.1254 21.0257C34.4785 21.0257 34.7905 20.8995 35.0615 20.6892C35.3899 20.4369 35.5952 20.0584 35.7266 19.6631C35.9483 19.0155 36.0139 18.3006 36.0139 17.6193C36.0139 16.9717 35.9647 16.2652 35.7512 15.6512C35.6116 15.2391 35.3981 14.8186 35.045 14.5494C34.7659 14.3391 34.4621 14.2046 34.109 14.2046C33.756 14.2046 33.4439 14.3307 33.1647 14.5494C32.8363 14.8101 32.6228 15.1802 32.4832 15.5755C32.2944 16.1727 32.2697 16.9885 32.2697 17.6193ZM41.3429 17.6193C41.3429 18.2501 41.3758 19.0576 41.5728 19.6547C41.7124 20.0584 41.9177 20.4285 42.2544 20.6809C42.5335 20.8995 42.8455 21.0257 43.1986 21.0257C43.5517 21.0257 43.8637 20.8995 44.1347 20.6892C44.4631 20.4369 44.6684 20.0584 44.7997 19.6631C45.0214 19.0155 45.0872 18.3006 45.0872 17.6193C45.0872 16.9717 45.0379 16.2652 44.8244 15.6512C44.6848 15.2391 44.4713 14.8186 44.1183 14.5494C43.8391 14.3391 43.5353 14.2046 43.1822 14.2046C42.8291 14.2046 42.5171 14.3307 42.2379 14.5494C41.9095 14.8101 41.696 15.1802 41.5564 15.5755C41.3675 16.1727 41.3429 16.9885 41.3429 17.6193ZM47.3945 17.6193C47.3945 18.2501 47.4273 19.0576 47.6243 19.6547C47.7639 20.0584 47.9692 20.4285 48.3059 20.6809C48.585 20.8995 48.8971 21.0257 49.2502 21.0257C49.6032 21.0257 49.9152 20.8995 50.1862 20.6892C50.5146 20.4369 50.7199 20.0584 50.8513 19.6631C51.073 19.0155 51.1387 18.3006 51.1387 17.6193C51.1387 16.9717 51.0894 16.2652 50.8759 15.6512C50.7363 15.2391 50.5229 14.8186 50.1698 14.5494C49.8906 14.3391 49.5868 14.2046 49.2337 14.2046C48.8806 14.2046 48.5686 14.3307 48.2894 14.5494C47.961 14.8101 47.7475 15.1802 47.608 15.5755C47.4191 16.1727 47.3945 16.9885 47.3945 17.6193ZM71.0504 14.2298C70.6645 14.2298 70.3114 14.3391 70.024 14.5999C69.7695 14.8354 69.6217 15.1297 69.6217 15.483C69.6217 15.8531 69.7941 16.1559 70.0569 16.4082C70.3443 16.6858 70.6809 16.8203 71.075 16.8203C71.3214 16.8203 71.5595 16.7531 71.7812 16.6353C72.0029 16.5091 72.1671 16.3409 72.2985 16.1222C72.4134 15.9204 72.4874 15.7017 72.4874 15.4662C72.4874 15.1298 72.3478 14.8522 72.1261 14.6167C71.8387 14.3223 71.4445 14.2298 71.0504 14.2298ZM71.0832 17.6698C70.5742 17.6698 70.1308 17.8296 69.7695 18.1913C69.4328 18.5193 69.2358 18.923 69.2358 19.4024C69.2358 19.6884 69.3179 19.9575 69.4657 20.2099C69.6217 20.4706 69.8352 20.6556 70.0979 20.7902C70.3935 20.9416 70.722 21.0005 71.0504 21.0005C71.5513 21.0005 72.0111 20.8659 72.3724 20.4958C72.6926 20.1678 72.865 19.7893 72.865 19.3267C72.865 18.8641 72.668 18.494 72.3477 18.1744C71.9864 17.838 71.5677 17.6698 71.0832 17.6698ZM78.2433 17.6193C78.2433 18.2501 78.2761 19.0576 78.4732 19.6547C78.6128 20.0584 78.818 20.4285 79.1547 20.6809C79.4339 20.8995 79.7459 21.0257 80.0989 21.0257C80.452 21.0257 80.764 20.8995 81.035 20.6892C81.3634 20.4369 81.5687 20.0584 81.7001 19.6631C81.9218 19.0155 81.9875 18.3006 81.9875 17.6193C81.9875 16.9717 81.9382 16.2652 81.7248 15.6512C81.5852 15.2391 81.3716 14.8186 81.0186 14.5494C80.7394 14.3391 80.4356 14.2046 80.0825 14.2046C79.7295 14.2046 79.4174 14.3307 79.1383 14.5494C78.8098 14.8101 78.5963 15.1802 78.4567 15.5755C78.2761 16.1727 78.2433 16.9885 78.2433 17.6193ZM84.2948 17.6193C84.2948 18.2501 84.3276 19.0576 84.5247 19.6547C84.6643 20.0584 84.8696 20.4285 85.2062 20.6809C85.4854 20.8995 85.7974 21.0257 86.1505 21.0257C86.5035 21.0257 86.8156 20.8995 87.0865 20.6892C87.415 20.4369 87.6202 20.0584 87.7516 19.6631C87.9733 19.0155 88.039 18.3006 88.039 17.6193C88.039 16.9717 87.9898 16.2652 87.7763 15.6512C87.6367 15.2391 87.4232 14.8186 87.0701 14.5494C86.791 14.3391 86.4871 14.2046 86.1341 14.2046C85.781 14.2046 85.469 14.3307 85.1898 14.5494C84.8613 14.8101 84.6478 15.1802 84.5083 15.5755C84.3276 16.1727 84.2948 16.9885 84.2948 17.6193Z" fill="#231F20"/>
<path fill-rule="evenodd" clip-rule="evenodd" d="M4.77882 1.09333H0.903243V8.36861H0V0.218632H5.69023V8.36861H4.78704V1.09333H4.77882ZM8.36703 3.5745H12.2427V0.210213H13.1459V8.36019H12.2427V4.47445H8.36703V8.36019H7.46384V0.210213H8.36703V3.5745ZM15.7241 4.88656H18.7704V5.67717H15.7241V4.88656ZM25.8812 1.09333H22.0055V8.36861H21.1023V0.218632H26.7926V8.36861H25.8894V1.09333H25.8812ZM30.4629 1.11016V8.36019H29.5515V1.11016H27.8025V0.210213H32.2118V1.11016H30.4629ZM33.9854 2.15308C34.1825 2.15308 34.3549 2.22037 34.4945 2.36335C34.6341 2.50633 34.6998 2.68295 34.6998 2.88481C34.6998 3.08667 34.6341 3.26329 34.4945 3.40627C34.3549 3.54925 34.1825 3.61654 33.9854 3.61654C33.7884 3.61654 33.6159 3.54925 33.4764 3.40627C33.3368 3.26329 33.2711 3.08667 33.2711 2.88481C33.2711 2.68295 33.3368 2.50633 33.4764 2.36335C33.6159 2.22878 33.7884 2.15308 33.9854 2.15308ZM33.9854 7.03128C34.1825 7.03128 34.3549 7.09857 34.4945 7.24155C34.6341 7.38453 34.6998 7.56121 34.6998 7.76306C34.6998 7.96492 34.6341 8.14154 34.4945 8.28452C34.3549 8.42751 34.1907 8.50316 33.9854 8.50316C33.7884 8.50316 33.6159 8.42751 33.4764 8.28452C33.3368 8.14154 33.2711 7.96492 33.2711 7.76306C33.2711 7.56121 33.3368 7.38453 33.4764 7.24155C33.6159 7.09857 33.7884 7.03128 33.9854 7.03128Z" fill="#231F20"/>
<path fill-rule="evenodd" clip-rule="evenodd" d="M45.506 1.11022H44.2251L44.7671 0.210268H46.4093V8.36025H45.506V1.11022ZM49.1271 4.28949C49.1271 3.5073 49.1846 2.54847 49.4637 1.80832C49.669 1.27845 49.9728 0.799007 50.4244 0.462579C50.8432 0.159793 51.303 0 51.8203 0C52.3376 0 52.8139 0.151382 53.2326 0.462579C53.7006 0.807418 54.0126 1.30366 54.2343 1.84195C54.5299 2.58209 54.5956 3.49047 54.5956 4.28107C54.5956 5.07168 54.5299 5.98005 54.2343 6.71178C54.0209 7.25006 53.7089 7.74626 53.2326 8.0911C52.8056 8.40229 52.3376 8.56209 51.8121 8.56209C51.303 8.56209 50.835 8.41072 50.4244 8.10793C49.9728 7.77151 49.669 7.29212 49.4637 6.76224C49.1763 6.0221 49.1271 5.07169 49.1271 4.28949ZM56.5334 7.03134C56.7305 7.03134 56.9029 7.09863 57.0425 7.24161C57.1821 7.38459 57.2478 7.56126 57.2478 7.76312C57.2478 7.96497 57.1821 8.1416 57.0425 8.28458C56.9029 8.42756 56.7387 8.50321 56.5334 8.50321C56.3363 8.50321 56.1639 8.42756 56.0243 8.28458C55.8847 8.1416 55.8191 7.96497 55.8191 7.76312C55.8191 7.56126 55.8847 7.38459 56.0243 7.24161C56.1639 7.09863 56.3363 7.03134 56.5334 7.03134ZM58.2003 4.28949C58.2003 3.5073 58.2577 2.54847 58.5369 1.80832C58.7422 1.27845 59.046 0.799007 59.4976 0.462579C59.9164 0.159793 60.3762 0 60.8935 0C61.4108 0 61.887 0.151382 62.3058 0.462579C62.7738 0.807418 63.0858 1.30366 63.3075 1.84195C63.6031 2.58209 63.6688 3.49047 63.6688 4.28107C63.6688 5.07168 63.6031 5.98005 63.3075 6.71178C63.094 7.25006 62.782 7.74626 62.3058 8.0911C61.8788 8.40229 61.4108 8.56209 60.8853 8.56209C60.3762 8.56209 59.9082 8.41072 59.4976 8.10793C59.046 7.77151 58.7422 7.29212 58.5369 6.76224C58.2577 6.0221 58.2003 5.07169 58.2003 4.28949ZM64.2518 4.28949C64.2518 3.5073 64.3093 2.54847 64.5884 1.80832C64.7937 1.27845 65.0975 0.799007 65.5492 0.462579C65.9679 0.159793 66.4277 0 66.945 0C67.4623 0 67.9385 0.151382 68.3573 0.462579C68.8253 0.807418 69.1373 1.30366 69.359 1.84195C69.6546 2.58209 69.7203 3.49047 69.7203 4.28107C69.7203 5.07168 69.6546 5.98005 69.359 6.71178C69.1455 7.25006 68.8335 7.74626 68.3573 8.0911C67.9303 8.40229 67.4623 8.56209 66.9368 8.56209C66.4277 8.56209 65.9597 8.41072 65.5492 8.10793C65.0975 7.77151 64.7937 7.29212 64.5884 6.76224C64.3093 6.0221 64.2518 5.07169 64.2518 4.28949ZM73.325 4.88662H76.3713V5.67723H73.325V4.88662ZM82.4064 1.11022H81.1254L81.6674 0.210268H83.3096V8.36025H82.4064V1.11022ZM89.1722 4.89504C88.9587 4.95391 88.7371 4.98754 88.5071 4.98754C87.8667 4.98754 87.3248 4.75207 86.8814 4.28107C86.4216 3.79325 86.2163 3.21291 86.2163 2.54005C86.2163 2.08587 86.3148 1.6485 86.5365 1.26161C86.7582 0.874714 87.0702 0.571914 87.4479 0.353235C87.8421 0.126146 88.2608 0.00841892 88.7124 0.00841892C89.1476 0.00841892 89.5664 0.11777 89.9441 0.336449C90.3218 0.555127 90.6174 0.866303 90.8309 1.26161C91.0444 1.65691 91.1511 2.07744 91.1511 2.52321C91.1511 2.88487 91.0772 3.24654 90.9541 3.58297C90.7898 4.03715 90.5188 4.49974 90.2561 4.90346L87.8503 8.58735L87.1031 8.09952L89.1722 4.89504ZM93.4338 7.03134C93.6308 7.03134 93.8032 7.09863 93.9428 7.24161C94.0824 7.38459 94.1481 7.56126 94.1481 7.76312C94.1481 7.96497 94.0824 8.1416 93.9428 8.28458C93.8032 8.42756 93.639 8.50321 93.4338 8.50321C93.2367 8.50321 93.0643 8.42756 92.9247 8.28458C92.7851 8.1416 92.7194 7.96497 92.7194 7.76312C92.7194 7.56126 92.7851 7.38459 92.9247 7.24161C93.0725 7.09863 93.2449 7.03134 93.4338 7.03134ZM95.1006 4.28949C95.1006 3.5073 95.1581 2.54847 95.4372 1.80832C95.6425 1.27845 95.9464 0.799007 96.398 0.462579C96.8167 0.159793 97.2765 0 97.7938 0C98.3111 0 98.7874 0.151382 99.2061 0.462579C99.6742 0.807418 99.9862 1.30366 100.208 1.84195C100.503 2.58209 100.569 3.49047 100.569 4.28107C100.569 5.07168 100.503 5.98005 100.208 6.71178C99.9944 7.25006 99.6824 7.74626 99.2061 8.0911C98.7792 8.40229 98.3111 8.56209 97.7856 8.56209C97.2765 8.56209 96.8085 8.41072 96.398 8.10793C95.9464 7.77151 95.6425 7.29212 95.4372 6.76224C95.1581 6.0221 95.1006 5.07169 95.1006 4.28949ZM101.152 4.28949C101.152 3.5073 101.21 2.54847 101.489 1.80832C101.694 1.27845 101.998 0.799007 102.449 0.462579C102.868 0.159793 103.328 0 103.845 0C104.363 0 104.839 0.151382 105.258 0.462579C105.726 0.807418 106.038 1.30366 106.259 1.84195C106.555 2.58209 106.621 3.49047 106.621 4.28107C106.621 5.07168 106.555 5.98005 106.259 6.71178C106.046 7.25006 105.734 7.74626 105.258 8.0911C104.831 8.40229 104.363 8.56209 103.837 8.56209C103.328 8.56209 102.86 8.41072 102.449 8.10793C101.998 7.77151 101.694 7.29212 101.489 6.76224C101.21 6.0221 101.152 5.07169 101.152 4.28949ZM49.981 4.29786C49.981 4.92866 50.0139 5.73613 50.211 6.33329C50.3506 6.737 50.5558 7.10705 50.8924 7.35937C51.1716 7.57805 51.4837 7.70424 51.8367 7.70424C52.1898 7.70424 52.5018 7.57806 52.7728 7.36779C53.1012 7.11547 53.3065 6.73701 53.4379 6.34171C53.6596 5.69408 53.7253 4.97913 53.7253 4.29786C53.7253 3.65023 53.676 2.94376 53.4625 2.32978C53.3229 1.91766 53.1094 1.49712 52.7564 1.22798C52.4772 1.01771 52.1734 0.883114 51.8203 0.883114C51.4672 0.883114 51.1552 1.0093 50.8761 1.22798C50.5476 1.48871 50.3341 1.85876 50.1945 2.25406C50.0139 2.85963 49.981 3.66706 49.981 4.29786ZM59.0624 4.29786C59.0624 4.92866 59.0953 5.73613 59.2924 6.33329C59.4319 6.737 59.6372 7.10705 59.9738 7.35937C60.253 7.57805 60.565 7.70424 60.9181 7.70424C61.2712 7.70424 61.5832 7.57806 61.8542 7.36779C62.1826 7.11547 62.3879 6.73701 62.5193 6.34171C62.741 5.69408 62.8066 4.97913 62.8066 4.29786C62.8066 3.65023 62.7574 2.94376 62.5439 2.32978C62.4043 1.91766 62.1908 1.49712 61.8378 1.22798C61.5586 1.01771 61.2548 0.883114 60.9017 0.883114C60.5486 0.883114 60.2366 1.0093 59.9574 1.22798C59.629 1.48871 59.4155 1.85876 59.2759 2.25406C59.0871 2.85963 59.0624 3.66706 59.0624 4.29786ZM65.1139 4.29786C65.1139 4.92866 65.1468 5.73613 65.3439 6.33329C65.4835 6.737 65.6887 7.10705 66.0254 7.35937C66.3045 7.57805 66.6166 7.70424 66.9696 7.70424C67.3227 7.70424 67.6347 7.57806 67.9057 7.36779C68.2342 7.11547 68.4394 6.73701 68.5708 6.34171C68.7925 5.69408 68.8582 4.97913 68.8582 4.29786C68.8582 3.65023 68.8089 2.94376 68.5954 2.32978C68.4558 1.91766 68.2423 1.49712 67.8893 1.22798C67.6101 1.01771 67.3063 0.883114 66.9532 0.883114C66.6001 0.883114 66.2881 1.0093 66.009 1.22798C65.6805 1.48871 65.467 1.85876 65.3274 2.25406C65.1386 2.85963 65.1139 3.66706 65.1139 4.29786ZM88.6878 4.17173C89.1312 4.17173 89.5007 4.02033 89.8127 3.69231C90.1247 3.37271 90.2725 2.98582 90.2725 2.54005C90.2725 2.08587 90.1165 1.70739 89.8045 1.38779C89.4925 1.06818 89.1148 0.908371 88.6796 0.908371C88.2362 0.908371 87.8667 1.06818 87.5547 1.38779C87.2427 1.70739 87.0867 2.08587 87.0867 2.54005C87.0867 2.99423 87.2427 3.37271 87.5547 3.69231C87.8749 4.01192 88.2444 4.17173 88.6878 4.17173ZM95.9628 4.29786C95.9628 4.92866 95.9956 5.73613 96.1927 6.33329C96.3323 6.737 96.5375 7.10705 96.8742 7.35937C97.1534 7.57805 97.4654 7.70424 97.8185 7.70424C98.1715 7.70424 98.4836 7.57806 98.7545 7.36779C99.083 7.11547 99.2882 6.73701 99.4196 6.34171C99.6413 5.69408 99.707 4.97913 99.707 4.29786C99.707 3.65023 99.6577 2.94376 99.4442 2.32978C99.3046 1.91766 99.0912 1.49712 98.7381 1.22798C98.4589 1.01771 98.1551 0.883114 97.802 0.883114C97.449 0.883114 97.137 1.0093 96.8578 1.22798C96.5294 1.48871 96.3158 1.85876 96.1763 2.25406C95.9956 2.85963 95.9628 3.66706 95.9628 4.29786ZM102.014 4.29786C102.014 4.92866 102.047 5.73613 102.244 6.33329C102.384 6.737 102.589 7.10705 102.926 7.35937C103.205 7.57805 103.517 7.70424 103.87 7.70424C104.223 7.70424 104.535 7.57806 104.806 7.36779C105.134 7.11547 105.34 6.73701 105.471 6.34171C105.693 5.69408 105.759 4.97913 105.759 4.29786C105.759 3.65023 105.709 2.94376 105.496 2.32978C105.356 1.91766 105.143 1.49712 104.79 1.22798C104.51 1.01771 104.207 0.883114 103.854 0.883114C103.5 0.883114 103.188 1.0093 102.909 1.22798C102.581 1.48871 102.367 1.85876 102.228 2.25406C102.047 2.85963 102.014 3.66706 102.014 4.29786Z" fill="#231F20"/>
</svg>
