<svg width="48" height="48" fill="none" xmlns="http://www.w3.org/2000/svg"><path d="M48 24.147C48 10.81 37.255 0 24 0S0 10.81 0 24.147C0 36.199 8.776 46.188 20.25 48V31.127h-6.094v-6.98h6.094v-5.32c0-6.052 3.583-9.395 9.065-9.395 2.625 0 5.372.472 5.372.472v5.942h-3.026c-2.981 0-3.911 1.862-3.911 3.773v4.528h6.656l-1.064 6.98H27.75V48C39.224 46.188 48 36.199 48 24.147z" fill="#1877F2"/><path d="M33.624 30.772l1.088-7.005h-6.808v-4.544c0-1.916.951-3.786 4-3.786H35V9.473S32.19 9 29.505 9c-5.607 0-9.272 3.355-9.272 9.428v5.339H14v7.005h6.233v16.934c2.541.392 5.13.392 7.671 0V30.772h5.72z" fill="#fff"/></svg>