<svg width="90" height="90" fill="none" xmlns="http://www.w3.org/2000/svg"><path d="M57 86c-.328.366-.672.707-1 1zm12-58a24.42 24.42 0 014 6m1 2c-.3-.677-.633-1.338-1-2zm1 2a17.12 17.12 0 00-1-2z" fill="#46B29D"/><path d="M75.998 49.616c0 9.255-2.595 18.494-5.79 23.278a53.447 53.447 0 01-10.172 11.37 36.14 36.14 0 01-3.375 2.46c-.33.21-.675.42-1.005.615a16.1 16.1 0 01-.99.54 10.242 10.242 0 01-6.916.87 9.234 9.234 0 01-1.636-.48 23.215 23.215 0 00-7.62-1.77c-.751.002-1.5.078-2.236.225-1.843.332-3.647.85-5.386 1.544a10.58 10.58 0 01-6.12.48 9.619 9.619 0 01-2.43-.87 22.024 22.024 0 01-.976-.54c-.33-.194-.675-.404-1.005-.614a31.995 31.995 0 01-3.375-2.46 53.442 53.442 0 01-10.172-11.37C3.6 68.11 1.004 58.871 1.004 49.616a38.803 38.803 0 011.575-11.489c.225-.72.465-1.44.735-2.13v-.014c.285-.675.585-1.35.9-1.995v-.015c.33-.645.69-1.275 1.065-1.89a23.234 23.234 0 013.076-3.99 15.895 15.895 0 019.766-4.92.028.028 0 01.022-.01c.009 0 .017.004.023.01a30.693 30.693 0 0111.266 1.35 55.087 55.087 0 006.826 1.32c1.485.166 2.235.166 2.235.166a40.526 40.526 0 009.061-1.485 43.47 43.47 0 016.796-1.35 16.476 16.476 0 0114.297 4.92c.85.89 1.633 1.842 2.34 2.849.24.375.495.75.735 1.14.375.615.735 1.245 1.066 1.89v.015c.315.645.615 1.32.9 1.994v.015c.27.69.51 1.41.735 2.13a39.811 39.811 0 011.575 11.49z" fill="#C52828"/><path d="M70.998 49.655c0 9.305-2.576 18.594-5.749 23.405a53.513 53.513 0 01-10.096 11.43 35.946 35.946 0 01-3.351 2.474c-.328.211-.67.422-.998.618-.328.197-.655.378-.983.543-.762.4-1.573.695-2.413.875a9.085 9.085 0 01-1.623-.483 22.802 22.802 0 00-7.565-1.78 11.58 11.58 0 00-2.22.227 11.569 11.569 0 00-2.233-.226 22.802 22.802 0 00-7.565 1.78 9.068 9.068 0 01-1.624.482 9.473 9.473 0 01-2.412-.875c-.313-.166-.64-.347-.968-.543a35.55 35.55 0 01-.998-.618 31.798 31.798 0 01-3.35-2.473A53.51 53.51 0 016.751 73.06c-3.172-4.81-5.748-14.1-5.748-23.405a39.482 39.482 0 011.563-11.551 32.8 32.8 0 01.73-2.142v-.015c.283-.678.58-1.357.894-2.005v-.015c.327-.649.685-1.282 1.057-1.9A23.329 23.329 0 018.3 28.015a15.71 15.71 0 019.695-4.946.028.028 0 01.022-.011c.009 0 .017.004.023.01a44.62 44.62 0 016.73 1.358 39.752 39.752 0 008.996 1.493s.745 0 2.234-.166a56.406 56.406 0 006.76-1.327 30.15 30.15 0 0111.2-1.357c3.725.42 7.18 2.175 9.74 4.946a23.322 23.322 0 013.053 4.012c.372.618.73 1.251 1.057 1.9v.015c.313.648.61 1.327.893 2.005v.015c.269.694.507 1.418.73 2.142a40.505 40.505 0 011.564 11.551z" fill="#F44335"/><path d="M22 87a12.898 12.898 0 01-1-1zM5 34a24.416 24.416 0 014-6m-4 6c-.367.662-.7 1.323-1 2zm-1 2a17.075 17.075 0 00-1 2z" fill="#46B29D"/><path d="M44.015 15l-.015.015z" fill="#14A085"/><path d="M49 52.485V49.5a1.5 1.5 0 00-1.5-1.5h-18a1.5 1.5 0 00-1.5 1.5v18a1.5 1.5 0 001.5 1.5h18.24L49 52.485z" fill="#4CAF50"/><path d="M67 56.691c4.421-8.077 13.263-8.077 17.684-4.038 4.421 4.038 4.421 12.116 0 20.193C81.59 78.903 73.631 84.96 67 89c-6.632-4.039-14.59-10.097-17.684-16.154-4.421-8.078-4.421-16.155 0-20.193 4.42-4.039 13.263-4.039 17.684 4.038z" fill="#E91E63"/><path d="M68.627 2.524h-.014a159.657 159.657 0 00-16.573-.482c-6.573.24-10.85 5.995-9.911 9.987a5.322 5.322 0 002.042 2.998c2.459 1.868 6.736 2.53 11.237 1.461C61.816 14.951 69 2.554 69 2.554s-.134-.015-.373-.03z" fill="#4CAF50"/><path d="M69 3.03s-7.233 11.989-13.685 13.475c-4.532 1.034-8.839.393-11.315-1.413a22.019 22.019 0 019.484-5.711C59.276 8.04 60.747 7.706 68.61 3h.015c.24.015.375.03.375.03z" fill="#8BC34A"/><path d="M68.045 2c-.015.015-.03.015-.045.03z" fill="#14A085"/><path d="M84.718 72.85C81.66 78.907 73.782 84.965 67.225 89A67.251 67.251 0 0165 87.575c6.023-3.959 12.552-9.342 15.267-14.726 4.376-8.068 4.376-16.15 0-20.185a10.16 10.16 0 00-4.852-2.429 10.725 10.725 0 019.302 2.43c4.377 4.033 4.377 12.116 0 20.184z" fill="#AD1457"/><path d="M35.756 23.637c-1.376-.21-3.184-.553-5.46-1.123l-.453-.114C23.759 20.86 12.438 18 4.48 30.74-3.298 43.21.257 64.56 6.023 73.21c4.495 6.746 10.666 12.684 16.11 15.499 1.66.849 3.498 1.29 5.362 1.285a12.234 12.234 0 004.415-.83 21.272 21.272 0 017.086-1.67c2.44.144 4.836.71 7.084 1.67a11.962 11.962 0 009.784-.457 31.015 31.015 0 004.688-3.056 87.895 87.895 0 006.179 4.13c.48.292 1.082.292 1.562 0 5.25-3.2 14.604-9.63 18.227-16.726 4.75-8.677 4.627-17.532-.303-22.036a12.084 12.084 0 00-8.24-3.03 34.029 34.029 0 00-4.465-17.25c-7.958-12.741-19.278-9.877-25.36-8.34l-.455.115a38.99 38.99 0 01-8.71 1.44 1.12 1.12 0 01-.128.003 12.008 12.008 0 00-.865-3.073l5.014-5.416c.027.022.06.038.087.06.008.008.01.02.018.028.144.143.316.256.504.33a13.387 13.387 0 007.56 2.072 20.447 20.447 0 004.68-.561C62.735 15.77 69.718 4.143 70.492 2.822A1.503 1.503 0 0069.325.567l-.07-.006a1.483 1.483 0 00-.545-.043A163.237 163.237 0 0052.056.04a12.49 12.49 0 00-9.54 4.862 8.463 8.463 0 00-1.849 6.944c.106.43.257.847.451 1.244l-4.739 5.12a11.969 11.969 0 00-1.411-1.515l-3.227-2.869a1.5 1.5 0 10-1.994 2.243l3.226 2.869a9.003 9.003 0 011.849 2.296l.006.013c.421.748.734 1.552.928 2.389zm19.41-9.163a14.645 14.645 0 01-8.45-.295 18.33 18.33 0 017.317-4.127 33.756 33.756 0 0010.491-3.754c-2.687 3.556-6.282 7.45-9.358 8.176zM44.904 6.721a9.634 9.634 0 017.263-3.68 95.08 95.08 0 013.452-.059c2.925 0 5.87.112 8.262.237A31.508 31.508 0 0153.335 7.13a21.988 21.988 0 00-9.136 5.277 3.365 3.365 0 01-.61-1.252 5.601 5.601 0 011.315-4.434zm39.287 46.514c3.891 3.553 3.768 10.939-.324 18.416-3.224 6.315-11.985 12.354-16.355 15.085-4.37-2.731-13.133-8.772-16.376-15.124-3.964-7.242-4.174-14.423-.592-18.077l.037-.039c.085-.085.162-.18.251-.26a9.188 9.188 0 016.148-2.261c.534 0 1.067.044 1.593.132a10.77 10.77 0 017.623 5.783 1.561 1.561 0 002.632 0 10.77 10.77 0 017.622-5.783 9.388 9.388 0 017.741 2.128zm-54.198 14.25V49.472h18.01v2.376c-3.184 3.635-3.809 9.434-1.877 15.637H29.994zm18.434-42.06l.46-.115c6.087-1.54 15.28-3.866 22.078 7.018a31.702 31.702 0 014.025 16.027 13.363 13.363 0 00-7.478 5.05 13.261 13.261 0 00-8.446-5.26 12.62 12.62 0 00-8.064 1.313 3.005 3.005 0 00-3-2.987v-3.003a1.5 1.5 0 10-3.001 0v3.002h-4.502v-3.002a1.5 1.5 0 10-3.002 0v3.002h-4.502v-3.002a1.5 1.5 0 10-3.001 0v3.002a3.006 3.006 0 00-3.002 3.003h-3.001a1.5 1.5 0 000 3.002h3.001v4.503h-3.001a1.5 1.5 0 000 3.002h3.001v4.503h-3.001a1.5 1.5 0 100 3.001h3.001a3.006 3.006 0 003.002 3.003v3.002a1.5 1.5 0 103.001 0v-3.002h4.502v3.002a1.5 1.5 0 103.002 0v-3.002h6.752c.37.842.77 1.687 1.232 2.53a36.137 36.137 0 009.603 10.742 26.861 26.861 0 01-3.597 2.279 8.96 8.96 0 01-7.33.324 23.776 23.776 0 00-8.163-1.87 23.79 23.79 0 00-8.166 1.871 8.946 8.946 0 01-7.322-.324C18.493 83.446 12.75 77.892 8.52 71.545 3.121 63.445.117 43.41 7.028 32.329c6.798-10.882 15.995-8.557 22.079-7.02l.46.116c2.118.543 4.264.968 6.43 1.272v6.148a6.068 6.068 0 01-4.284-2.147 1.5 1.5 0 10-2.585 1.524c1.338 2.272 4.623 3.741 8.37 3.741 3.745 0 7.031-1.469 8.37-3.74a1.501 1.501 0 00-2.586-1.525 6.067 6.067 0 01-4.284 2.147v-5.888a42.26 42.26 0 009.43-1.532z" fill="#000"/></svg>