<svg width="48" height="48" fill="none" xmlns="http://www.w3.org/2000/svg"><path d="M15.095 43c18.113 0 28.02-15.006 28.02-28.019 0-.426 0-.85-.028-1.273A20.036 20.036 0 0048 8.611a19.63 19.63 0 01-5.656 1.55 9.88 9.88 0 004.33-5.447 19.73 19.73 0 01-6.254 2.39 9.857 9.857 0 00-16.783 8.981A27.96 27.96 0 013.341 5.797 9.854 9.854 0 006.39 18.942a9.762 9.762 0 01-4.47-1.233v.125a9.85 9.85 0 007.9 9.653 9.832 9.832 0 01-4.446.17 9.86 9.86 0 009.2 6.838A19.757 19.757 0 010 38.577a27.884 27.884 0 0015.095 4.415" fill="#1DA1F2"/></svg>