<svg width="418" height="567" fill="none" xmlns="http://www.w3.org/2000/svg"><g filter="url(#filter0_d)"><path fill-rule="evenodd" clip-rule="evenodd" d="M121.751 495.987c39.023 15.962 73 29.86 74.249 62.513l12.873-26.883c.263-1.871.518-3.872.767-5.998 14.815-16.374 39.019-29.204 65.662-43.327 57.955-30.722 127.45-67.561 136.954-160.297 9.507-92.773-53.89-160.374-106.638-216.62-35.876-38.254-66.825-71.255-66.563-103.351l.267-1.914a49.55 49.55 0 01-.264 1.663v-.021l-2.896 10.39c-10.69 28.581-43.985 62.278-82.14 100.895C88.668 179.181 9.054 259.757 4.35 353.771c-4.618 92.306 61.557 119.374 117.401 142.216z" fill="#09F"/></g><defs><filter id="filter0_d" x=".121" y=".11" width="417.089" height="566.39" filterUnits="userSpaceOnUse" color-interpolation-filters="sRGB"><feFlood flood-opacity="0" result="BackgroundImageFix"/><feColorMatrix in="SourceAlpha" values="0 0 0 0 0 0 0 0 0 0 0 0 0 0 0 0 0 0 127 0"/><feOffset dy="4"/><feGaussianBlur stdDeviation="2"/><feColorMatrix values="0 0 0 0 0 0 0 0 0 0 0 0 0 0 0 0 0 0 0.1 0"/><feBlend in2="BackgroundImageFix" result="effect1_dropShadow"/><feBlend in="SourceGraphic" in2="effect1_dropShadow" result="shape"/></filter></defs></svg>