<svg width="25" height="25" fill="none" xmlns="http://www.w3.org/2000/svg"><path d="M25 12.5C25 5.596 19.404 0 12.5 0S0 5.596 0 12.5 5.596 25 12.5 25 25 19.404 25 12.5z" fill="#F58220"/><path d="M12.505 14.336c1.178 0 2.134-.936 2.134-2.09 0-1.155-.955-2.091-2.134-2.091-1.18 0-2.135.936-2.135 2.09 0 1.155.955 2.09 2.135 2.09z" fill="#fff"/><path d="M15.59 5.377H9.419a3.975 3.975 0 00-2.776 1.128A3.81 3.81 0 005.49 9.224v6.045a3.81 3.81 0 001.152 2.718 3.975 3.975 0 002.776 1.128h6.173a3.975 3.975 0 002.776-1.128 3.81 3.81 0 001.152-2.718V9.224a3.811 3.811 0 00-1.152-2.719 3.975 3.975 0 00-2.776-1.128zm-3.086 10.166a3.418 3.418 0 01-1.87-.555 3.314 3.314 0 01-1.24-1.48 3.234 3.234 0 01-.192-1.905c.13-.64.45-1.227.921-1.688a3.39 3.39 0 011.724-.902 3.434 3.434 0 011.946.187 3.35 3.35 0 011.51 1.215c.37.542.568 1.18.568 1.831a3.266 3.266 0 01-.987 2.33 3.408 3.408 0 01-2.38.967zM16.152 9.5a.854.854 0 01-.468-.14.828.828 0 01-.31-.369.81.81 0 01.183-.898.847.847 0 01.917-.179.838.838 0 01.378.304.812.812 0 01-.105 1.04.85.85 0 01-.595.242z" fill="#fff"/></svg>