<svg width="216" height="88" fill="none" xmlns="http://www.w3.org/2000/svg"><path fill-rule="evenodd" clip-rule="evenodd" d="M18.512 7.518c1.184.793 2.406 1.56 3.615 2.314-.075.294-.211.563-.087.755.225.243.561.025.972.115.275.064 1.658 1.496 1.933 1.739.623-.103.71-.141.76-.665.038-.397.05-.819.063-1.215 1.06-.255 2.63-.537 3.814-.754.561-.102 3.628-.729 3.79-.716.399.013 2.156 1.125 2.281 1.726.287 1.33.436 2.749.71 4.091 1.16-.217 1.472-.422 1.77-1.688l1.135-4.564c.387-1.419.15-1.598.798-1.828 2.182-.844 4.725-2.046 6.881-3.337 1.122-.818 1.347-1.15 1.334-1.61-.087-.5-.187-.78-.71-.909-.262-.064-.574-.076-.886-.115-.635-.076-1.121-.32-1.72-.294-1.396.039-2.044.78-3.665 1.407l-3.665 1.419C37.25 3.465 20.731 0 20.532 0c-.474-.013-.624.14-.973.498-.124.154-.249.294-.336.473.51.346 7.268 3.043 8.427 3.529.324.128 2.169 1.368 2.406 1.662-.474.192-1.646.754-2.132.972-1.122.434-1.234.677-2.02-.039a12.62 12.62 0 00-.772-.664c-1.446-1.126-1.571-1.253-2.78-.895l.61 2.352c-.972-.038-2.505-1.035-3.602-.946-.362.026-.598.294-.848.575zm176.271 9.96l-16.406 43.584h-4.812l19.398-51.55h3.652L216 61.063h-4.812l-16.405-43.584zm-48.768 20.085h-9.561v23.499h-4.525V9.512h4.525v23.423h9.462l15.832-23.422h5.522l-17.353 25.672 19.41 25.877h-5.697l-17.615-23.499zM88.659 56.42h34.107v4.642H88.659V56.42zm31.551-23.421v4.564H88.659V33h31.551zm2.132-23.486v4.628H88.659V9.513h33.683zM51.946 41.872v19.19h-4.45V37.231h18.25c6.744 0 12.08-4.36 12.08-11.545 0-7.326-5.186-11.622-12.08-11.622h-18.25V9.5h18.25c9.262 0 16.804 6.354 16.804 16.186 0 9.883-7.492 16.186-16.804 16.186h-13.8zM20.058 32.82c5.934 1.393 15.42 3.912 17.378 10.726.311 1.1.436 2.238.436 3.376 0 3.528-1.396 7.006-3.777 9.537-3.678 3.925-9.063 5.153-14.2 5.153h-3.053l2.194-4.641h.872c6.146 0 13.464-2.583 13.464-10.062 0-1.215-.3-2.353-.935-3.388-2.456-3.976-9.188-5.293-13.364-6.214-2.556-.562-5.111-1.202-7.554-2.122-5.174-1.956-10.06-5.306-10.06-11.558 0-8.093 6.083-13.296 13.5-14.396l.437-.064 5.796 4.437-3.141.025c-5.946.039-12.142 3.107-12.142 9.998 0 1.023.237 1.995.748 2.877 2.269 4.053 9.3 5.357 13.4 6.316zM4.6 48.175c.922 3.196 3.39 5.536 6.258 6.955l.96.473-1.945 4.13-.96-.461C4.937 57.367 1.608 53.941.3 49.581L0 48.57l4.288-1.47.312 1.074z" fill="#F58220"/><path fill-rule="evenodd" clip-rule="evenodd" d="M190.582 41.629v-4.564h8.414v4.564h-8.414z" fill="#F58220"/><path fill-rule="evenodd" clip-rule="evenodd" d="M214.243 84.497h1.583v-9.985h-3.042c-.773 0-1.521.204-2.107.754-.598.55-.823 1.304-.823 2.11 0 .703.225 1.33.711 1.84.362.372.798.627 1.284.768l.237.064-2.855 4.45h1.758l2.693-4.284h.561v4.283zm0-8.528v2.788h-1.297c-.237-.013-.474-.026-.711-.077-.236-.051-.423-.218-.573-.41-.199-.242-.262-.536-.262-.843 0-.294.038-.627.2-.87.137-.204.311-.357.536-.434.224-.09.511-.102.748-.115.249-.013.498-.013.735-.013h.624v-.026zm-8.702-1.457v9.985h1.583v-9.985h-1.583zm.786-3.938c-.325 0-.599.128-.823.358a1.2 1.2 0 00-.349.857c0 .332.124.614.349.856.224.23.498.358.823.358.324 0 .598-.127.835-.358.224-.23.349-.524.349-.856 0-.333-.112-.627-.349-.857a1.116 1.116 0 00-.835-.358zm-3.977 15.432h1.508v-3.069h-2.044V74.5h-1.583v8.438h-5.062V74.5h-1.583v9.985h8.751v1.522h.013zm-12.853-1.509h1.584v-9.985h-1.584v3.81h-5.086v-3.81h-1.583v9.985h1.583V79.87h5.086v4.628zm-8.701-4.705V79.6c-.012-1.24-.324-2.416-1.072-3.388-1.01-1.304-2.356-1.93-3.989-1.93-1.583 0-2.892.614-3.865 1.892-.76.984-1.134 2.11-1.134 3.362 0 1.368.474 2.57 1.346 3.593.973 1.15 2.281 1.598 3.74 1.598.648 0 1.309-.09 1.92-.332a4.635 4.635 0 001.533-.972c.499-.473.885-1.048 1.197-1.675l.087-.166-1.346-.729-.088.154c-.261.46-.598.959-.984 1.304a3.654 3.654 0 01-1.097.64 3.92 3.92 0 01-1.334.242c-.923 0-1.721-.32-2.356-1.01-.586-.614-.885-1.355-.973-2.199l-.025-.205h8.44v.013zm-1.758-1.457h-6.52l.088-.243c.199-.524.473-1.023.885-1.394.648-.588 1.396-.856 2.256-.856.524 0 1.035.115 1.521.345.449.217.848.498 1.159.895.237.307.399.652.524 1.023l.087.23zm-9.088-2.353v-1.47h-5.123v9.985h1.583v-8.515h3.54zm-9.237 8.515h1.583v-9.985h-1.583v1.368l-.299-.294a4.285 4.285 0 00-1.06-.793 4.571 4.571 0 00-2.169-.524c-1.384 0-2.568.524-3.54 1.521-.973 1.01-1.471 2.25-1.471 3.67 0 1.445.474 2.685 1.458 3.72.96 1.01 2.145 1.534 3.528 1.534a4.71 4.71 0 002.132-.485 4.937 4.937 0 001.134-.793l.3-.269v1.33h-.013zm-3.441-8.643c.973 0 1.808.346 2.494 1.061.698.73 1.009 1.624 1.009 2.634 0 .652-.137 1.292-.448 1.867a3.445 3.445 0 01-1.284 1.304 3.488 3.488 0 01-1.771.486 3.319 3.319 0 01-1.732-.486 3.572 3.572 0 01-1.284-1.355 3.737 3.737 0 01-.486-1.828c0-.653.162-1.266.473-1.842a3.462 3.462 0 011.284-1.342 3.152 3.152 0 011.745-.499zm-13.475 8.643h1.583v-9.985h-1.583v1.368l-.3-.294a4.28 4.28 0 00-1.059-.793 4.574 4.574 0 00-2.169-.524c-1.384 0-2.568.524-3.541 1.521-.972 1.01-1.471 2.25-1.471 3.67 0 1.445.474 2.685 1.459 3.72.96 1.01 2.144 1.534 3.528 1.534.748 0 1.471-.153 2.144-.485a4.937 4.937 0 001.134-.793l.3-.269v1.33h-.025zm-3.429-8.643c.973 0 1.808.346 2.494 1.061.698.73 1.009 1.624 1.009 2.634 0 .652-.137 1.292-.448 1.867a3.36 3.36 0 01-1.284 1.304 3.488 3.488 0 01-1.771.486 3.319 3.319 0 01-1.732-.486 3.572 3.572 0 01-1.284-1.355 3.737 3.737 0 01-.486-1.828c0-.653.162-1.266.473-1.842a3.462 3.462 0 011.284-1.342c.524-.345 1.11-.499 1.745-.499zm-8.576 8.643h1.583v-9.985h-1.583v3.81h-5.086v-3.81h-1.584v9.985h1.584V79.87h5.086v4.628zm-10.733 0h1.583v-9.985h-1.583v4.206h-1.571c-.437 0-1.06-.05-1.409-.358-.224-.192-.312-.677-.349-.971-.037-.32-.05-.64-.05-.96V74.5h-1.558v2.596c0 .818.187 1.636.748 2.25.586.639 1.446.818 2.269.818h1.92v4.334zm-14.1-9.985h-1.583v9.985h.412l6.557-6.776v6.776h1.583v-9.985h-.362l-6.607 6.827v-6.827zm-3.253 1.457v-1.457h-6.533v1.457h2.469v8.528h1.583V75.97h2.481zm-7.555.793l-.1-.166a4.235 4.235 0 00-1.072-1.24 5.383 5.383 0 00-1.52-.78 5.709 5.709 0 00-1.858-.294c-.972 0-1.92.217-2.78.69a5.043 5.043 0 00-1.957 1.93 5.299 5.299 0 00-.71 2.686c0 1.432.51 2.659 1.52 3.656 1.06 1.049 2.369 1.496 3.827 1.496.923 0 1.833-.166 2.668-.588a4.718 4.718 0 001.883-1.675l.112-.166-1.26-.857-.111.14c-.836 1.062-1.908 1.612-3.23 1.612-.685 0-1.346-.14-1.944-.486a3.505 3.505 0 01-1.359-1.355 3.764 3.764 0 01-.498-1.867c0-1.023.361-1.88 1.072-2.595.76-.755 1.682-1.074 2.717-1.074 1.334 0 2.431.499 3.242 1.598l.1.14 1.258-.805zm-18.811-2.25h-1.583v9.985h.411l6.557-6.776v6.776h1.583v-9.985h-.361l-6.607 6.827v-6.827zm-12.005 0h-1.57V88h1.583v-4.833l.299.269c.336.32.71.588 1.122.793a4.626 4.626 0 002.131.498c1.384 0 2.568-.524 3.528-1.534.985-1.035 1.459-2.276 1.459-3.72 0-1.432-.499-2.66-1.471-3.67-.972-1.01-2.157-1.521-3.553-1.521-.76 0-1.484.153-2.157.524a4.632 4.632 0 00-1.06.793l-.298.294v-1.381h-.013zm3.44 1.342c.624 0 1.21.154 1.758.486.549.32.973.78 1.284 1.343a3.741 3.741 0 01-.012 3.67c-.312.574-.735 1.035-1.284 1.354a3.32 3.32 0 01-1.733.486 3.497 3.497 0 01-1.782-.486c-.549-.32-.985-.741-1.284-1.304-.312-.575-.45-1.202-.45-1.867 0-1.022.312-1.904 1.01-2.633a3.354 3.354 0 012.494-1.049zm-14.123-1.342h-1.67l3.951 9L55.013 88h1.696l5.746-13.488H60.76l-3.017 7.07-3.091-7.07zm-3.067 1.457v-1.457h-6.532v1.457h2.468v8.528h1.583V75.97h2.481z" fill="#fff"/></svg>