<svg width="147" height="60" fill="none" xmlns="http://www.w3.org/2000/svg"><path fill-rule="evenodd" clip-rule="evenodd" d="M12.598 5.126c.806.54 1.638 1.064 2.46 1.578-.05.2-.143.383-.059.514.153.166.382.018.662.079.187.043 1.128 1.02 1.315 1.185.424-.07.484-.096.518-.453.025-.27.034-.558.042-.828.721-.175 1.79-.366 2.596-.515.382-.07 2.469-.496 2.58-.488.27.009 1.467.767 1.552 1.177.195.907.297 1.874.483 2.79.79-.149 1.001-.288 1.205-1.151l.772-3.112c.263-.968.102-1.09.543-1.247A32.106 32.106 0 0031.95 2.38c.764-.558.916-.784.908-1.098-.06-.34-.127-.532-.484-.619-.178-.044-.39-.052-.602-.078-.433-.053-.764-.218-1.17-.2-.951.025-1.392.53-2.495.958l-2.494.967C25.35 2.363 14.108 0 13.973 0c-.323-.008-.424.096-.662.34-.085.105-.17.201-.229.323.348.235 4.946 2.075 5.735 2.406.22.087 1.476.933 1.637 1.133-.322.13-1.12.514-1.45.663-.764.296-.84.462-1.375-.027a8.57 8.57 0 00-.526-.453c-.984-.767-1.069-.854-1.892-.61l.416 1.604c-.662-.026-1.705-.706-2.452-.645-.246.017-.407.2-.577.392zm119.962 6.791l-11.164 29.716h-3.275l13.201-35.147h2.486L147 41.633h-3.275L132.56 11.917zM99.371 25.611h-6.507v16.022h-3.08V6.486h3.08v15.97h6.44l10.774-15.97h3.758L102.027 23.99l13.209 17.643h-3.877L99.371 25.611zM60.337 38.469H83.55v3.164H60.337V38.47zM81.81 22.5v3.111H60.337V22.5H81.81zm1.45-16.014v3.156H60.338V6.486h22.924zM35.352 28.549v13.084h-3.028V25.385h12.42c4.59 0 8.22-2.973 8.22-7.872 0-4.995-3.529-7.924-8.22-7.924h-12.42V6.477h12.42c6.303 0 11.436 4.333 11.436 11.036 0 6.738-5.099 11.036-11.436 11.036h-9.392zM13.65 22.377c4.039.95 10.495 2.668 11.827 7.314a8.44 8.44 0 01.297 2.301c0 2.406-.95 4.777-2.57 6.503-2.503 2.676-6.168 3.513-9.664 3.513h-2.078l1.493-3.164h.594c4.182 0 9.162-1.761 9.162-6.86 0-.829-.203-1.604-.636-2.31-1.671-2.712-6.252-3.61-9.095-4.237-1.739-.384-3.478-.82-5.14-1.447C4.317 22.656.992 20.372.992 16.11c0-5.518 4.14-9.066 9.188-9.816l.297-.043 3.945 3.025-2.138.017c-4.047.026-8.264 2.118-8.264 6.817 0 .697.162 1.36.51 1.961 1.543 2.763 6.328 3.652 9.12 4.306zM3.13 32.846c.628 2.18 2.308 3.775 4.26 4.743l.653.322-1.324 2.816-.653-.314C3.36 39.114 1.094 36.778.204 33.805L0 33.117l2.918-1.003.213.733z" fill="#000"/><path fill-rule="evenodd" clip-rule="evenodd" d="M129.701 28.383v-3.112h5.727v3.112h-5.727zm16.103 29.228h1.077v-6.807h-2.07c-.526 0-1.035.139-1.434.514-.407.375-.56.889-.56 1.438 0 .48.153.907.484 1.255.246.253.543.427.874.523l.161.044-1.943 3.033h1.196l1.833-2.92h.382v2.92zm0-5.814v1.9h-.883a2.935 2.935 0 01-.483-.052c-.161-.035-.289-.148-.39-.279-.136-.165-.179-.366-.179-.575 0-.2.026-.427.136-.593a.719.719 0 01.365-.296c.153-.061.348-.07.509-.079.17-.008.339-.008.501-.008h.424v-.018zm-5.922-.993v6.807h1.077v-6.807h-1.077zm.534-2.685a.761.761 0 00-.56.244.84.84 0 000 1.168.76.76 0 00.56.244.793.793 0 00.569-.244.82.82 0 00.237-.584.788.788 0 00-.237-.584.76.76 0 00-.569-.244zM137.71 58.64h1.027v-2.092h-1.392v-5.753h-1.077v5.753h-3.445v-5.753h-1.077v6.808h5.956v1.037h.008zm-8.747-1.029h1.078v-6.807h-1.078V53.4h-3.461v-2.598h-1.078v6.809h1.078v-3.156h3.461v3.155zm-5.922-3.207v-.131c-.008-.846-.22-1.648-.729-2.31-.687-.89-1.604-1.316-2.715-1.316-1.077 0-1.968.418-2.63 1.29a3.654 3.654 0 00-.772 2.292c0 .933.322 1.752.916 2.45.662.784 1.553 1.09 2.545 1.09a3.53 3.53 0 001.307-.227 3.14 3.14 0 001.043-.663c.34-.322.603-.715.815-1.142l.059-.113-.916-.497-.059.105c-.179.314-.408.654-.671.889-.22.192-.475.331-.746.436a2.664 2.664 0 01-.908.165c-.628 0-1.171-.218-1.603-.688-.399-.419-.603-.924-.662-1.5l-.017-.14h5.743v.01zm-1.196-.994h-4.437l.06-.166c.135-.357.322-.697.602-.95.441-.4.95-.584 1.536-.584.356 0 .704.078 1.035.235a2.2 2.2 0 01.789.61c.161.21.271.445.356.698l.059.157zm-6.185-1.604v-1.002h-3.486v6.807h1.077v-5.805h2.409zm-6.286 5.806h1.077v-6.809h-1.077v.933l-.204-.2a2.915 2.915 0 00-.721-.54 3.106 3.106 0 00-1.476-.358c-.942 0-1.748.357-2.409 1.037a3.505 3.505 0 00-1.002 2.502c0 .985.323 1.83.993 2.537.653.688 1.459 1.046 2.401 1.046.509 0 1.001-.105 1.451-.331.28-.14.534-.323.772-.541l.203-.183v.907h-.008zm-2.342-5.893c.662 0 1.231.235 1.697.723.475.497.687 1.107.687 1.796 0 .445-.093.88-.305 1.273a2.343 2.343 0 01-.874.889c-.373.218-.78.331-1.205.331-.424 0-.814-.113-1.179-.331a2.442 2.442 0 01-.874-.924 2.556 2.556 0 01-.008-2.502c.212-.383.5-.697.874-.915a2.14 2.14 0 011.187-.34zm-9.17 5.892h1.077v-6.807H97.86v.932l-.203-.2a2.918 2.918 0 00-.721-.54 3.108 3.108 0 00-1.477-.358c-.941 0-1.747.357-2.409 1.037a3.506 3.506 0 00-1.001 2.502c0 .985.322 1.83.993 2.537.653.688 1.459 1.046 2.4 1.046.51 0 1.002-.105 1.46-.331.28-.14.534-.323.772-.541l.203-.183v.907h-.017zm-2.334-5.892c.662 0 1.23.235 1.697.723.475.497.687 1.107.687 1.796 0 .445-.093.88-.305 1.273-.212.383-.5.67-.874.889-.373.218-.78.331-1.205.331-.424 0-.814-.113-1.179-.331a2.44 2.44 0 01-.874-.924 2.555 2.555 0 01-.008-2.502c.212-.383.5-.697.874-.915.356-.236.755-.34 1.187-.34zm-5.837 5.892h1.078v-6.807H89.69V53.4h-3.46v-2.598h-1.078v6.809h1.078v-3.156h3.461v3.155zm-7.304 0h1.077v-6.807h-1.077v2.867h-1.07c-.296 0-.72-.035-.958-.244-.153-.13-.212-.462-.237-.662a5.614 5.614 0 01-.034-.654v-1.316h-1.06v1.77c0 .557.126 1.115.508 1.534.399.435.984.558 1.544.558h1.307v2.955zm-9.596-6.807h-1.077v6.807h.28l4.463-4.62v4.62h1.077v-6.807h-.246l-4.496 4.654v-4.654zm-2.214.993v-.993h-4.445v.993h1.68v5.815h1.077v-5.815h1.688zm-5.141.54l-.068-.113a2.887 2.887 0 00-.73-.845 3.88 3.88 0 00-2.3-.732c-.66 0-1.305.148-1.89.47-.56.314-1.01.75-1.332 1.317a3.617 3.617 0 00-.484 1.83c0 .976.348 1.813 1.035 2.493.721.715 1.612 1.02 2.605 1.02.627 0 1.247-.113 1.815-.4a3.213 3.213 0 001.281-1.143l.077-.113-.857-.584-.077.096c-.568.723-1.298 1.098-2.197 1.098-.467 0-.916-.096-1.324-.331a2.387 2.387 0 01-.924-.924 2.57 2.57 0 01-.34-1.273c0-.697.246-1.281.73-1.77.517-.514 1.145-.732 1.85-.732.907 0 1.654.34 2.205 1.09l.068.096.857-.55zm-12.802-1.534h-1.078v6.809h.28l4.463-4.62v4.62h1.077v-6.809h-.246l-4.496 4.655v-4.654zm-8.17 0h-1.07V60h1.078v-3.295l.204.183c.23.218.484.401.764.54.458.236.95.34 1.45.34.942 0 1.748-.357 2.401-1.046.67-.706.993-1.551.993-2.536a3.49 3.49 0 00-1.001-2.502c-.662-.689-1.468-1.037-2.418-1.037-.518 0-1.01.104-1.468.357a3.15 3.15 0 00-.721.54l-.204.2v-.94h-.008zm2.342.916c.424 0 .822.104 1.196.331.373.218.661.532.873.915a2.554 2.554 0 01-.009 2.502 2.32 2.32 0 01-.873.924 2.256 2.256 0 01-1.179.331c-.433 0-.84-.113-1.213-.33a2.23 2.23 0 01-.874-.89 2.631 2.631 0 01-.305-1.273c0-.697.212-1.299.687-1.795a2.28 2.28 0 011.697-.715zm-9.613-.916h-1.137l2.69 6.137L37.439 60h1.154l3.911-9.197H41.35l-2.053 4.821-2.104-4.82zm-2.087.994v-.993h-4.445v.993h1.68v5.815h1.077v-5.815h1.688z" fill="#000"/></svg>