<svg width="36" height="35" fill="none" xmlns="http://www.w3.org/2000/svg"><path d="M17.797 18.413c2.457 0 4.449-1.94 4.449-4.332 0-2.393-1.992-4.333-4.45-4.333-2.456 0-4.448 1.94-4.448 4.333 0 2.393 1.992 4.332 4.449 4.332z" stroke="#F58220" stroke-width="2" stroke-linecap="round" stroke-linejoin="round"/><path d="M28.92 14.08c0 9.75-11.124 17.331-11.124 17.331S6.673 23.83 6.673 14.081c0-2.873 1.172-5.628 3.258-7.66a11.277 11.277 0 017.865-3.172c2.95 0 5.78 1.142 7.865 3.173 2.086 2.031 3.258 4.786 3.258 7.659v0z" stroke="#F58220" stroke-width="2" stroke-linecap="round" stroke-linejoin="round"/></svg>