<svg width="635" height="585" fill="none" xmlns="http://www.w3.org/2000/svg"><g clip-path="url(#clip0)"><path d="M291.294 321.502c-.113 0-.184-.002-.209-.004l-13.565.002v-2h13.614c.315.011 6.746.192 12.671-6.997 8.829-10.715 16.08-37.24.481-102.756-20.975-88.096-3.481-165.923 5.014-195.295a9.756 9.756 0 00-1.583-8.569 9.749 9.749 0 00-7.8-3.883H97.342a9.796 9.796 0 00-7.9 4.021c-3.599 4.95-8.537 14.46-11.627 31.655l-1.969-.353c3.157-17.57 8.257-27.359 11.978-32.478A11.801 11.801 0 0197.341 0h202.576a11.752 11.752 0 0111.304 15.007c-8.451 29.22-25.854 106.644-4.989 194.277 15.818 66.438 8.214 93.537-.951 104.572-6.045 7.278-12.705 7.646-13.987 7.646z" fill="#E6E6E6"/><path d="M254.794 358.002c-.113 0-.185-.002-.209-.004L241.02 358v-2h13.614c.317.009 6.745.192 12.671-6.997 8.829-10.715 16.08-37.24.481-102.756-20.975-88.096-3.481-165.923 5.014-195.295a9.758 9.758 0 00-9.383-12.452H60.841a9.796 9.796 0 00-7.9 4.021c-3.598 4.95-8.536 14.46-11.627 31.655l-1.968-.353c3.157-17.57 8.256-27.359 11.978-32.478a11.8 11.8 0 019.517-4.845h202.576a11.753 11.753 0 0111.304 15.007c-8.451 29.22-25.854 106.644-4.989 194.277 15.818 66.438 8.214 93.537-.951 104.572-6.045 7.278-12.705 7.646-13.987 7.646z" fill="#CCC"/><path d="M218.294 394.502c-.113 0-.184-.002-.209-.004l-199.454.002a11.755 11.755 0 01-11.694-10.479c-.208-1.909.055-3.84.766-5.624 7.237-18.08 16.981-61.459.932-148.839-18.952-103.18-1.985-140.47 6.189-151.713A11.801 11.801 0 0124.342 73h202.575a11.753 11.753 0 0111.304 15.007c-8.451 29.22-25.854 106.644-4.989 194.277 15.818 66.438 8.214 93.537-.951 104.572-6.045 7.278-12.705 7.646-13.987 7.646zM24.342 75a9.796 9.796 0 00-7.9 4.021c-8.023 11.035-24.652 47.757-5.84 150.176 15.332 83.473 7.896 127.614-1.042 149.944a9.584 9.584 0 00.977 9.064 9.761 9.761 0 008.094 4.295h199.503c.315.015 6.746.193 12.671-6.997 8.829-10.715 16.08-37.24.481-102.756-20.975-88.096-3.481-165.923 5.014-195.295a9.756 9.756 0 00-1.583-8.569 9.747 9.747 0 00-7.8-3.883H24.342z" fill="#3F3D56"/><path d="M192.461 163h-159a8.001 8.001 0 010-16h159a8 8 0 110 16z" fill="#F58220"/><path d="M192.461 197h-159a8.001 8.001 0 010-16h159a8 8 0 110 16zm0 34h-159a8.001 8.001 0 010-16h159a8 8 0 110 16zm12 34h-159a8.001 8.001 0 010-16h159a8 8 0 110 16zm0 34h-159a8.001 8.001 0 010-16h159a8 8 0 110 16z" fill="#CCC"/><path d="M108.461 129h-75a8.001 8.001 0 010-16h75a8 8 0 110 16z" fill="#F58220"/><path d="M98.777 353.822c1.614-6.835 9.198-9.076 15.398-8.825 3.917.264 7.803.879 11.611 1.837 3.984.891 7.929 1.947 11.855 3.066 7.198 2.053 14.323 4.536 21.64 6.141 6.091 1.336 12.711 2.12 18.786.275 5.839-1.773 10.793-6.126 12.382-12.144 1.497-5.672-.559-11.873-6.054-14.465-5.012-2.364-11.343-1.162-13.827 4.184-2.801 6.026-.002 12.599 4.433 16.96a49.615 49.615 0 008.237 6.257 30.677 30.677 0 009.864 4.418c5.785 1.235 12.676-.585 15.66-6.112a10.317 10.317 0 001.171-4.037c.177-1.922-2.824-1.91-3 0-.505 5.503-6.95 8.081-11.77 7.477a23.922 23.922 0 01-9.125-3.542 53.39 53.39 0 01-7.558-5.333c-4.088-3.537-7.92-9.359-5.175-14.879 2.236-4.495 8.063-4.45 11.608-1.551 4.293 3.51 3.527 9.882.696 14.051-3.135 4.617-8.817 6.552-14.174 6.761-5.821.226-11.593-1.109-17.157-2.689-6.912-1.963-13.756-4.16-20.702-6.008-3.943-1.049-7.917-1.996-11.931-2.733a39.416 39.416 0 00-11.57-.801c-6.26.723-12.65 4.367-14.191 10.894-.443 1.878 2.448 2.679 2.893.798z" fill="#3F3D56"/><path d="M405.276 523.44a458.075 458.075 0 004.318 58.855c.095.685.198 1.37.293 2.055l184.402-1.031a73.143 73.143 0 001.591-2.065 87.562 87.562 0 004.816-7.13c7.12-11.817 10.379-25.652 7.113-35.198l-.058-.149a16.757 16.757 0 00-3.27-5.68c-7.447-8.383-22.504-6.985-36.167-.219 12.255-13.415 22.014-30.343 22.755-45.453.727-14.738-6.979-25.267-15.338-34.214a69.29 69.29 0 00-.823-.871c-.133-.148-.274-.288-.406-.436-6.522-6.818-14.125-13.54-25.13-12.727-12.069.894-25.451 11.003-34.833 22.783-9.383 11.772-15.618 25.146-21.937 38.197-6.328 13.044-13.175 26.42-23.329 37.569 13.753-17.396 24.842-37.189 28.938-56.439 4.097-19.25.492-37.738-11.766-46.804a28.675 28.675 0 00-12.557-5.068 33.827 33.827 0 00-1.612-.222c-11.347-1.291-24.895 2.634-36.422 12.014-12.694 10.329-21.495 25.641-25.874 40.177-4.378 14.535-4.845 28.529-4.704 42.056z" fill="#F2F2F2"/><path d="M525.923 583.701l3.526-.019c1.12-.7 2.245-1.392 3.375-2.076.7-.441 1.407-.866 2.116-1.3a965.32 965.32 0 0135.307-20.556 917.417 917.417 0 0135.674-18.79 1.478 1.478 0 00.85-1.69.423.423 0 00-.059-.123c-.167-.313-.539-.443-1.083-.176-1.466.735-2.94 1.47-4.406 2.221a943.177 943.177 0 00-35.796 19.097 979.711 979.711 0 00-35.414 20.879c-.246.15-.493.308-.74.458-1.119.692-2.231 1.384-3.35 2.075zm-45.465.254l2.18-.012c.492-.688.976-1.376 1.467-2.064 11.555-16.203 23.107-32.406 34.656-48.609 18.914-26.526 37.822-53.053 56.725-79.579a1.41 1.41 0 00.245-.48c.162-.588-.27-.932-.823-.871a1.66 1.66 0 00-1.152.733 2695371.41 2695371.41 0 00-88.242 123.784c-1.196 1.675-2.393 3.359-3.589 5.034-.492.688-.984 1.376-1.467 2.064zm-48.576-12.662c.111 3.675.354 7.291.672 10.874l.185 2.055 2.288-.013c-.07-.685-.14-1.37-.202-2.055-.483-5.176-.826-10.41-.873-15.787a220.197 220.197 0 014.336-44.391 276.48 276.48 0 0113.427-46.12 316.817 316.817 0 0121.97-45.63c.161-.238.233-.525.202-.81-.094-.652-.962-.846-1.611-.223a1.905 1.905 0 00-.328.415 338.753 338.753 0 00-3.108 5.46 316.465 316.465 0 00-21.028 45.79 275.144 275.144 0 00-12.519 46.189 217.296 217.296 0 00-3.411 44.246z" fill="#fff"/><path d="M209.005 354.532a2.485 2.485 0 01-.797-1.21 2.502 2.502 0 012.159-3.199 41.272 41.272 0 0116.193 1.66l53.315 16.465a5.496 5.496 0 013.853 4.744 5.503 5.503 0 01-2.908 5.375 5.494 5.494 0 01-4.191.391l-53.315-16.465a41.282 41.282 0 01-14.309-7.761z" fill="#3F3D56"/><path d="M427.552 422.932a10.73 10.73 0 01-3.801-2.688 10.747 10.747 0 01-1.067-13.049l-9.139-47.791 23.292-1.816 1.405 46.747a10.792 10.792 0 014.127 6.469 10.8 10.8 0 01-14.817 12.128z" fill="#FFB8B8"/><path d="M412.108 398.267l-23.723-110.483a17.5 17.5 0 1134.22-7.346l23.723 110.481a4.506 4.506 0 01-3.455 5.345l-25.421 5.458a4.512 4.512 0 01-3.388-.62 4.501 4.501 0 01-1.956-2.835z" fill="#F58220"/><path d="M373.17 572.064h-12.259l-5.833-47.288 18.095.001-.003 47.287z" fill="#FFB8B8"/><path d="M352.153 568.561h23.644v14.887h-38.53a14.889 14.889 0 0114.886-14.887z" fill="#2F2E41"/><path d="M414.17 571.064h-12.259l-5.833-47.288 18.095.001-.003 47.287z" fill="#FFB8B8"/><path d="M393.153 567.561h23.644v14.887h-38.53a14.889 14.889 0 0114.886-14.887zm-34.672-4.318a4.461 4.461 0 01-1.616-3.062l-14.252-156.78a4.491 4.491 0 011.102-3.378 4.507 4.507 0 013.211-1.526l71.479-2.68a4.503 4.503 0 014.357 2.85c.226.576.332 1.193.309 1.812l-5.714 156.176a4.509 4.509 0 01-4.089 4.317l-14.413 1.31a4.487 4.487 0 01-3.33-1.059 4.507 4.507 0 01-1.567-3.123l-6.615-99.217a1.435 1.435 0 00-1.496-1.399h-.006a1.431 1.431 0 00-1.37.856 1.414 1.414 0 00-.122.555l-5.919 99.885a4.481 4.481 0 01-4.045 4.211l-12.59 1.26a4.471 4.471 0 01-3.313-1.008h-.001z" fill="#2F2E41"/><path d="M385.977 243.523c13.565 0 24.561-10.996 24.561-24.561 0-13.564-10.996-24.561-24.561-24.561s-24.561 10.997-24.561 24.561c0 13.565 10.996 24.561 24.561 24.561z" fill="#FFB8B8"/><path d="M338.679 404.463a4.463 4.463 0 01-1.053-3.679c4.535-27.561 1.979-68.074-.964-97.207a44.204 44.204 0 0118.241-40.301l12.827-10.995a4.575 4.575 0 013.058-1.082l31.866.911a4.48 4.48 0 013.053 1.317l4.924 10.904.051.037a44.071 44.071 0 0117.915 37.691l-4.69 96.936a4.526 4.526 0 01-4.347 4.281l-77.348 2.717-.149.002a4.492 4.492 0 01-3.384-1.532z" fill="#F58220"/><path d="M245.903 364.012a10.732 10.732 0 017.721-10.573 10.727 10.727 0 014.645-.309l39.865-27.899 11.19 20.508-42.077 20.416a10.802 10.802 0 01-21.344-2.143z" fill="#FFB8B8"/><path d="M279.451 368.861a4.48 4.48 0 01-2.945-1.785l-15.384-20.96a4.503 4.503 0 01.964-6.291l91.095-66.863a17.502 17.502 0 0120.71 28.216l-91.095 66.863a4.466 4.466 0 01-3.345.82z" fill="#F58220"/><path d="M387.234 240.827c3.257-3.994 2.901-10.077.287-14.518-2.615-4.441-7.052-7.5-11.619-9.889-4.566-2.389-9.417-4.268-13.714-7.113-4.297-2.844-4.11-14.887-5.254-19.912l2.729.909c-1.049-1.342-1.385-5.307-2.434-6.649 3.084.305 5.455 3.233 8.538 3.538l-1.779-4.777c10.574-.652 17.149 6.696 27.723 6.044 5.239-.323 10.929-.527 15.236 2.473 3.743 2.608 5.638 7.121 6.881 11.51 2.669 9.423 3.084 19.978-1.526 28.619-4.611 8.641-15.237 14.464-24.521 11.344l-.547-1.579z" fill="#2F2E41"/><path d="M252.387 584h381a1 1 0 100-2h-381a1 1 0 100 2z" fill="#3F3D56"/></g><defs><clipPath id="clip0"><path fill="#fff" d="M0 0h634.387v584.35H0z"/></clipPath></defs></svg>