<svg width="500" height="500" fill="none" xmlns="http://www.w3.org/2000/svg"><path d="M500 382.4H0v.25h500v-.25zm-50.1 16.09h-33.12v.25h33.12v-.25zm-118.68 2.72h-8.69v.25h8.69v-.25zm84.56-12h-19.19v.25h19.19v-.25zm-320.13 1.68H52.46v.25h43.19v-.25zm15.24 0h-6.33v.25h6.33v-.25zm114.26 4.22h-93.68v.25h93.68v-.25z" fill="#EBEBEB"/><path d="M335.4 189.84c22.947 0 41.55-18.603 41.55-41.55 0-22.947-18.603-41.55-41.55-41.55-22.947 0-41.55 18.603-41.55 41.55 0 22.947 18.603 41.55 41.55 41.55z" fill="#F5F5F5"/><path d="M409.55 140.1a6.77 6.77 0 00-6.77-6.77 6.506 6.506 0 00-1.94.29c.096-.689.146-1.384.15-2.08a14.307 14.307 0 00-5.182-11.046 14.326 14.326 0 00-5.569-2.84 14.328 14.328 0 00-6.249-.194 12.529 12.529 0 00-23.23 6.33h-.21a11.552 11.552 0 00-7.947 19.591 11.547 11.547 0 007.947 3.499H403a6.768 6.768 0 006.55-6.78zm-106.94 37.24a6.773 6.773 0 00-1.979-4.784 6.774 6.774 0 00-4.781-1.986 6.61 6.61 0 00-2 .29 14.288 14.288 0 00-3.315-11.467 14.278 14.278 0 00-10.865-4.943 14.43 14.43 0 00-2.64.25 12.523 12.523 0 00-13.938-5.504A12.525 12.525 0 00253.86 161h-.21a11.547 11.547 0 00-11.21 11.545 11.552 11.552 0 0011.21 11.545H296a6.757 6.757 0 006.61-6.75zM116 190.15a6.773 6.773 0 00-1.979-4.784 6.774 6.774 0 00-4.781-1.986 6.977 6.977 0 00-2 .28c.104-.685.158-1.377.16-2.07a14.365 14.365 0 00-17-14.09 12.517 12.517 0 00-23.22 6.34h-.21a11.546 11.546 0 00-11.21 11.545 11.55 11.55 0 0011.21 11.545h42.39a6.753 6.753 0 006.64-6.78zm289.64 32.29a4.09 4.09 0 00-4.09-4.09c-.399 0-.797.057-1.18.17a8.666 8.666 0 00-2.019-6.918 8.665 8.665 0 00-6.551-3.002 8.315 8.315 0 00-1.59.15 7.566 7.566 0 00-8.429-3.31 7.57 7.57 0 00-5.571 7.14H376a6.999 6.999 0 100 14h25.62a4.088 4.088 0 002.868-1.237 4.092 4.092 0 001.152-2.903zM158.43 90.91a4.066 4.066 0 00-1.638-3.29 4.056 4.056 0 00-3.622-.62 8.663 8.663 0 00-2.019-6.918A8.666 8.666 0 00143 77.23a7.571 7.571 0 00-14 3.83h-.12a7 7 0 100 14h25.62a4.09 4.09 0 003.93-4.15zM89.86 243.66l27.08 123.01 4.92-2.31-28.44-121.39-3.56.69z" fill="#EBEBEB"/><path d="M400.78 366.08S384 250.5 421.72 131l-5.91-4.56s-44.16 90.4-37.73 242.92l22.7-3.28z" fill="#E6E6E6"/><path d="M432 99.58c13.82-9.06 34.27 5.35 37.08 27.87a43.01 43.01 0 00-6.35-3c-1.07-5.67-2.1-10.68-2.1-10.68l.74 10.17c-1.22-.44-2.55-.87-4-1.26l-1-5.47-.45 5.11a48.13 48.13 0 00-5.94-1l-2.58-16-1.3 15.68a42.7 42.7 0 00-6.13.27l-1.58-10.86v11.08c-1.751.283-3.481.68-5.18 1.19l-1.89-16.2s.05 9.11-.05 16.84a42.369 42.369 0 00-13.34 7.84l-.15-2s1.59-21.32 14.22-29.58z" fill="#E0E0E0"/><path d="M326.042 111.971c.078-.319 1.004-3.644 2.019-7.413l1.868-6.85 1.37-1.048c1.718-1.317 3.142-2.135 5.216-2.966l1.633-.648 6.872 1.935a2929.47 2929.47 0 0013.214 3.669c3.486.96 6.631 1.837 7.021 1.949l.655.213-.202 2.516c-.286 3.436-.211 3.72 1.093 4.22l1.085.43 2.158-1.752c1.187-.966 2.827-2.24 3.651-2.789 1.466-1.015 1.518-1.035 3.252-.87 2.007.192 2.226-.014 2.124-1.931-.05-.833.025-1.102.306-1.175.514-.152 12.46-6.242 12.942-6.597.295-.223.189-.434-.474-1.125-.43-.492-1.085-.982-1.426-1.09-.991-.37-4.734.127-7.865 1.033-2.489.716-5.838 1.276-6.038 1.005-.045-.054.569-1.878 1.368-4.085.8-2.208 1.372-4.111 1.281-4.22-.337-.41-3.027-.79-4.144-.596-1.345.223-3.322 1.365-7.351 4.193-4.484 3.162-3.892 3.243-12.22-1.667-1.78-1.048-3.397-1.835-3.523-1.942-.253-.137-.277-.528.365-.994 5.018-3.537 7.272-4.427 23.912-9.366 4.802-1.425 9.197-2.763 9.764-2.96.568-.197 2.009-.662 3.221-1.073 1.209-.387 2.295-.785 2.403-.875.297-.248-1.453-2.724-2.329-3.26-.64-.386-1.217-.366-7.422.272-8.6.862-40.446 4-49.345 4.859-3.983.373-7.125.576-7.589.456-1.464-.39-13.556-6.512-17.516-8.873-2.158-1.285-4.323-2.495-4.802-2.716-1.325-.553-4.773-.832-6.352-.505-.762.128-2.552.309-4.01.395-1.457.088-2.973.27-3.389.455-1.505.61-2.216 2.952-1.392 4.611.825 1.66 4.186 4.29 11.484 8.976 4.769 3.09 11.829 7.1 14.546 8.288 2.236.967 2.892 1.456 3.279 2.421.14.39.58 2.716.934 5.16 2.356 15.96 3.016 19.437 3.915 20.827.59.935 2.136 1.81 3.323 1.949.768.073.975-.008 1.115-.446z" fill="#F58220"/><path d="M412.89 92.34c-11-12.35-34.48-3.79-43.07 17.21a42.203 42.203 0 016.91-1.25c2.51-5.19 4.82-9.76 4.82-9.76l-3.37 9.62c1.29-.1 2.68-.16 4.17-.16l2.35-5-.9 5.05a48.25 48.25 0 016 .54l6.67-14.74-2.82 15.5a41.173 41.173 0 015.85 1.86l4.37-10.07L401 111.8a37.363 37.363 0 014.69 2.51l6.07-15.15s-2.44 8.78-4.36 16.26a42.36 42.36 0 0110.82 11.07l.67-1.89s4.01-20.98-6-32.26z" fill="#E0E0E0"/><path d="M402.32 121.63c11-10.73 19.26-1.39 19.26-1.39-4.13 1.07-7.82 3.72-11 7.09l-1.49-1.94.24 3.31c-.76.88-1.5 1.8-2.21 2.75l-2.52-5.73 1.08 7.76c-1 1.48-2 3-2.83 4.52l-1.11-5.68.09 7.53a90.9 90.9 0 00-2.47 4.94l-1.2-10.43-.16 13.49c-1.76 4.16-2.68 7.08-2.68 7.08s-4-22.56 7-33.3zM432 147l-2.27 1.31c-.33-1.75-.72-3.58-1.15-5.44l1.54-2.83-1.94 1.2c-.15-.62-.32-1.23-.48-1.85l2-5.54-3 2.21c-1.6-5-3.64-9.39-6.19-11.49 0 0 25.22 8.06 11 35.25 0 0-.46-4.3-1.47-9.95L432 147z" fill="#E0E0E0"/><path d="M407.2 124.75l-4-7.6 1.66 7.92c-.4.06-.81.14-1.22.22l-5.23-6.51 1.29 7.49a46.727 46.727 0 00-5.25 1.94A58.86 58.86 0 00389 131l-2.55-6.65 1.19 7.44c-1.73 1-3.42 2.13-5 3.27l-1.26-5.86.12 6.67c-2 1.44-3.86 2.9-5.58 4.33l.16-10.62-1.55 11.79c-1.76 1.5-3.35 2.94-4.7 4.22l-.19-7.37-1.87 9.36c-1.94 1.93-3.05 3.16-3.05 3.16 1-25.79 11-36 27.54-38.8 16.54-2.8 28.46 14.41 28.46 14.41s-5.14-2.44-13.52-1.6zm48.24 31.52l-1.51 7.73c-.73-1.91-1.72-4.36-3-7.09l1.36-11.25-2.48 8.87a87.12 87.12 0 00-6.72-11.6l2.36-7.8-3.82 5.79c-.77-1-1.56-2-2.38-2.92l1.34-4.91-2.07 4.11a36.45 36.45 0 00-1.73-1.78l1.63-6.55-2.59 5.67a28.662 28.662 0 00-5.29-3.83l2.63-8-4.12 7.26a18.349 18.349 0 00-8.29-1.73s5-8 14.19-10.75 29 13.89 20.4 50.6c0 0-.26-.83-.78-2.26l.87-9.56zm-15.16-71.33l1.57 4.66a9.91 9.91 0 00-1.72.25l-1.89-6.07L439.5 90c-1.199.358-2.343.88-3.4 1.55l-2.6-8.19 1.5 8.93c-.42.31-.84.65-1.27 1l-2.94-7.69L433 94a32.662 32.662 0 00-5.51 7.34L426.72 90l-1.3 15.39a92.383 92.383 0 00-5.2 14.91s-1.6-41 8.27-45.6c9.87-4.6 15.74 15.09 15.74 15.09a5.486 5.486 0 00-1.35-.22l-2.6-4.63z" fill="#E0E0E0"/><path d="M426.18 130.55l-.88 7.77-3-7.49-4 5.86-1.58-5.46-4.62 3.88s.57-9.91 3.52-14.44c2.95-4.53 11.81-1.35 10.56 9.88z" fill="#E0E0E0"/><path d="M303 255.49v-54.18S292 213 284.73 211.4c-7.27-1.6-16.73 3.93-16.73 3.93s9.53-1.39 13.07 2.48c3.54 3.87 19.34 4.28 19.34 4.28v35.38l2.59-1.98z" fill="#EBEBEB"/><path d="M351.5 238.88H349v3.41h-8.24v-3.41h-8.1v3.41h-8.24v-3.41h-8.09v3.41h-8.25v-3.41h-8.09v3.41h-8.24v-3.41h-8.1v3.41h-8.24v-3.41h-8.1v3.41h-8.24v-3.41h-2.77l-8.03 64.2 111.53-.46-8.3-63.74z" fill="#E0E0E0"/><path d="M369.24 285.48h-3.43v4.68h-11.32v-4.68h-11.12v4.68h-11.33v-4.68h-11.12v4.68H309.6v-4.68h-11.12v4.68h-11.33v-4.68h-11.12v4.68H264.7v-4.68h-11.12v4.68h-11.32v-4.68h-3.81l-11.04 88.21 153.25-.64-11.42-87.57z" fill="#EBEBEB"/><path d="M425.85 363.3c-2.37-2.67-4.6-5.4-7.08-8a3.195 3.195 0 01-.35-.42 21.247 21.247 0 00-2.55-1.41c-.16-.05-.68-.26-1.21-.46-1-.36-2-.75-3-1.15-6.21-2.5-11.79-5.4-16.48-10.33-2.57-2.7-4.62-5.85-7.28-8.47-.07.09-.59-.19-.84-.39l-2-.26c-1.07 0-2.15 0-3.22.07-1.53.07-3.06.19-4.59.33-6 8.72-13.5 20.63-16.82 22.2-5.15 2.44-52.61 15-56.11 14.23-3.5-.77-21.82.74-26.42.57-4.6-.17-12.93-2.21-25-7.76s-18.65-5.58-33.18-10.21c-14.53-4.63-24.27-6.39-32.77.73-8.5 7.12-31.85-7.91-39.13-10.05-7.28-2.14-21.2-14.47-30.7-8.72s-17.4 8.49-29.27 18.77c-11.87 10.28-35.42 30.15-35.42 30.15h401l-4.61-8.05a33.007 33.007 0 01-22.97-11.37z" fill="#F5F5F5"/><path d="M43.18 265s11.67-21 43.29-39.12c0 0 25.74-2.19 54.8 10.48 0 0 5.89 9.78-.81 13.64-6.7 3.86-12.25-3.9-12.25-3.9s-1.24 11.82-10 12.16c-8.76.34-11.3-8.26-11.3-8.26s-.86 10.85-11.29 13.59C86.6 266 81 258.26 81 258.26s-1.8 8.92-9.91 11.49c-6.52 2.06-11-3.55-11-3.55s-1.87 9.68-8.79 9.68c-5.95 0-8.12-10.88-8.12-10.88z" fill="#E0E0E0"/><path d="M250 427.56c107.082 0 193.89-5.068 193.89-11.32 0-6.252-86.808-11.32-193.89-11.32-107.083 0-193.89 5.068-193.89 11.32 0 6.252 86.807 11.32 193.89 11.32z" fill="#F5F5F5"/><path d="M384 366.91s4.35-6.37 8.31-8.15c3.96-1.78 4.6-8.55 6.75-8.92 2.15-.37 4.52 5.87 8.28 7.69 3.76 1.82 9.45 9.34 9.45 9.34l-32.79.04z" fill="#F58220"/><path opacity=".8" d="M384 366.91s4.35-6.37 8.31-8.15c3.96-1.78 4.6-8.55 6.75-8.92 2.15-.37 4.52 5.87 8.28 7.69 3.76 1.82 9.45 9.34 9.45 9.34l-32.79.04z" fill="#fff"/><path d="M415.62 412.77h-31.64l-4-45.9h39.64l-4 45.9z" fill="#F58220"/><path d="M421.53 364.49h-43.47v4.83h43.47v-4.83z" fill="#F58220"/><path opacity=".2" d="M421.53 364.49h-43.47v4.83h43.47v-4.83z" fill="#fff"/><path d="M397.93 367.89c2.88 4.52 15.21 23.17 22.85 24.53l.94-2.26s-6.84.82-22-23.41a1.08 1.08 0 00-1.43-.39 1.073 1.073 0 00-.526 1.124c.027.146.083.284.166.406z" fill="#263238"/><path d="M352.91 353.41a2.54 2.54 0 011.006-.107 2.536 2.536 0 011.748.939c.214.265.372.57.466.898l5.4 18.89 7-2.81s4.23 15.75-3.76 18.24C357 391.89 351 377.35 351 377.35l7.14-2-6.82-18.66a2.55 2.55 0 011.59-3.28z" fill="#F58220"/><path opacity=".4" d="M364.8 389.46c-7.8 2.43-13.8-12.11-13.8-12.11l7.14-2s1.23 2.1 2.61 1.58.82-2.93.82-2.93l7-2.81s4.22 15.81-3.77 18.27z" fill="#fff"/><path d="M424.67 416.65c-3.93-1.95-7.95-3.79-9.24-3.88-2.76-.18-4.35-1.41-6.32-3.76-1.97-2.35-2.77-5.07-6.33-8.85-3.56-3.78.39-5.3-7.13-6.27-7.52-.97-4.61-.36-9.23-3.69s-3.68-3.32-9.09-5.7c-5.41-2.38-2.25-3.28-8.58-3.81-4.37-.37-11.28 1.93-14.87 4.49-1.59 1.13-2.4 3-4 4-1.77 1.13-4.52-1-4.23 2.81a9.8 9.8 0 01.13 2.95c-.51 2.14-9.32 2.13-11.56 2.8a2.157 2.157 0 00-1.34.82c-.51.91.26 2.52-.73 2.85-.31.11-.66 0-1 .05-1.19.23-.88 2.37-2 2.86-1.12.49-2.41-.51-3.65 0-.95.36-1.27 1.64-2.1 2.15-1.45.88-2.95 1.53-4.38 2.47-2.48 1.62-4.63 3.61-7.29 5l-7.12 1.94-2.13.75 122.19.02z" fill="#F58220"/><path opacity=".8" d="M424.67 416.65c-3.93-1.95-7.95-3.79-9.24-3.88-2.76-.18-4.35-1.41-6.32-3.76-1.97-2.35-2.77-5.07-6.33-8.85-3.56-3.78.39-5.3-7.13-6.27-7.52-.97-4.61-.36-9.23-3.69s-3.68-3.32-9.09-5.7c-5.41-2.38-2.25-3.28-8.58-3.81-4.37-.37-11.28 1.93-14.87 4.49-1.59 1.13-2.4 3-4 4-1.77 1.13-4.52-1-4.23 2.81a9.8 9.8 0 01.13 2.95c-.51 2.14-9.32 2.13-11.56 2.8a2.157 2.157 0 00-1.34.82c-.51.91.26 2.52-.73 2.85-.31.11-.66 0-1 .05-1.19.23-.88 2.37-2 2.86-1.12.49-2.41-.51-3.65 0-.95.36-1.27 1.64-2.1 2.15-1.45.88-2.95 1.53-4.38 2.47-2.48 1.62-4.63 3.61-7.29 5l-7.12 1.94-2.13.75 122.19.02z" fill="#fff"/><path d="M340.75 398.45c.005.073.005.147 0 .22a18.002 18.002 0 01-2.84 9.55c-.15.23-.3.46-.47.69a18.209 18.209 0 01-3.76 3.93c-.32.261-.654.504-1 .73-.079.06-.162.114-.25.16l-.33.21a5.825 5.825 0 01-.53.32c-.28.16-.57.32-.86.46a18.14 18.14 0 01-21.32-3.72 17.71 17.71 0 01-3.05-4.27 18.08 18.08 0 01-2-8.29v-.06c0-.51 0-1 .07-1.52a17.888 17.888 0 011.93-6.72 16.46 16.46 0 01.88-1.53 18.538 18.538 0 013.84-4.3c.475-.389.973-.749 1.49-1.08.181-.129.367-.249.56-.36a17.806 17.806 0 014.6-2l.42-.11c1.446-.359 2.93-.54 4.42-.54.467 0 .927.02 1.38.06h.35a17.92 17.92 0 015.84 1.58l.23.11a18.17 18.17 0 016.894 5.7 18.17 18.17 0 013.336 8.3c.117.821.174 1.65.17 2.48z" fill="#F58220"/><path opacity=".6" d="M340.75 398.45a18.159 18.159 0 01-10.08 16.28 3.83 3.83 0 01-1-1.23c3.36-9.8 0-15.05 0-15.05v-.1l.24-1.57v-.29c.52-2.91 1.83-8.36 4.67-11.66a18.177 18.177 0 016.17 13.62zm-32.16-3.15s-3.19 3.19-2.25 11.44a18.203 18.203 0 014.72-22.42 21.922 21.922 0 00-2.47 10.98z" fill="#fff"/><path opacity=".2" d="M334.63 384.83c-4 4.64-5 13.62-5 13.62-11 2.69-21.07-3.15-21.07-3.15a21.999 21.999 0 012.47-11 18.194 18.194 0 0111.879-4.077 18.195 18.195 0 0111.691 4.587l.03.02zm-3.97 29.9a18.141 18.141 0 01-21.27-3.73c3.41 2 10.38 4.87 20.27 2.49.242.479.583.902 1 1.24z" fill="#fff"/><path opacity=".2" d="M330.36 382a21.368 21.368 0 00-1.31 2.08 32.18 32.18 0 00-1.91 4.28c-.56 1.47-1 3-1.4 4.49-.4 1.49-.74 3.06-1 4.61.105-1.577.325-3.145.66-4.69a38.528 38.528 0 011.3-4.58 28.259 28.259 0 012-4.3c.436-.693.91-1.36 1.42-2l.24.11zm-6.08-1.68c-.25.45-.48.91-.7 1.37a31.278 31.278 0 00-1.81 4.81c-.53 1.64-.93 3.32-1.31 5-.38 1.68-.7 3.38-1 5.08.102-1.731.309-3.454.62-5.16a43.66 43.66 0 011.2-5.06 28.25 28.25 0 011.95-4.85c.22-.41.45-.82.69-1.21l.36.02zm-6.15.46l-.31.81a35.51 35.51 0 00-1.35 4.55c-.39 1.54-.69 3.1-1 4.67-.31 1.57-.53 3.14-.76 4.72.035-1.6.165-3.196.39-4.78.219-1.598.519-3.183.9-4.75a29.907 29.907 0 011.47-4.59c.08-.18.16-.37.25-.55l.41-.08zm-5.02 2.1c-.34 1.12-.66 2.24-.89 3.38-.23 1.14-.5 2.56-.7 3.85-.2 1.29-.34 2.59-.46 3.9a27.278 27.278 0 01.08-3.94c.127-1.313.324-2.618.59-3.91.223-.987.497-1.961.82-2.92.18-.129.367-.249.56-.36zm21.67 21.64a17.816 17.816 0 01-.73 5.57 18.847 18.847 0 01-1.43 3.49c-.079.06-.162.114-.25.16a21.056 21.056 0 001.29-3.75c.468-1.78.671-3.62.6-5.46a20.026 20.026 0 00-.84-5.43 22.218 22.218 0 00-2.2-5.09 17.483 17.483 0 012.56 5 18.636 18.636 0 011 5.51zm3.59-.52l-.05 1.51-.21 1.5a9.939 9.939 0 01-.21 1.21c-.15.23-.3.46-.47.69.149-.641.25-1.293.3-1.95l.15-1.48V404c.035-.496.035-.994 0-1.49-.05-.49-.05-1-.14-1.47a21.872 21.872 0 00-1.47-5.73 20.332 20.332 0 00-2.94-5.16 16.99 16.99 0 013.29 5 21.002 21.002 0 011.62 5.82c.08.5.07 1 .11 1.51.042.506.049 1.014.02 1.52zm2.38-5.55c.005.073.005.147 0 .22l-.06-.34a26.546 26.546 0 00-2-6 21.666 21.666 0 00-3.46-5.33 18.577 18.577 0 013.8 5.16 24.805 24.805 0 011.58 3.89c.103.796.15 1.598.14 2.4zm-33.05-6.03a14.898 14.898 0 00-2.05 3c-.52.962-.958 1.965-1.31 3 0-.51 0-1 .07-1.52.268-.579.572-1.14.91-1.68a10.569 10.569 0 012.38-2.8zm.86-4.84c-.76.86-1.5 1.71-2.22 2.57a16.46 16.46 0 01.88-1.53 14.95 14.95 0 011.34-1.04zm0 11.58c1.66.64 3.34 1.2 5 1.7 1.696.503 3.419.914 5.16 1.23 3.465.747 7.054.703 10.5-.13a15.746 15.746 0 01-5.24 1 27.484 27.484 0 01-5.35-.42 38.28 38.28 0 01-5.18-1.36 34.917 34.917 0 01-4.89-2.02zm0 4.35a44.463 44.463 0 005.12 1.68c1.734.457 3.499.791 5.28 1 1.776.243 3.569.327 5.36.25l1.34-.06 1.34-.16c.9-.06 1.76-.32 2.66-.45a22.35 22.35 0 01-5.32 1.06 28.26 28.26 0 01-5.44-.14 34.254 34.254 0 01-5.32-1.14 28.145 28.145 0 01-5.02-2.04zm.44 3.76a33.275 33.275 0 004.87 1.82c1.662.476 3.362.81 5.08 1 .86.14 1.72.16 2.58.22.86.06 1.73 0 2.6-.05a30.01 30.01 0 005.14-.74 21.717 21.717 0 01-5.11 1.13 23.812 23.812 0 01-5.27-.06 26.442 26.442 0 01-5.13-1.16 22.813 22.813 0 01-4.76-2.16zm.75 2.83a32.081 32.081 0 004.59 1.71c1.562.467 3.161.802 4.78 1 1.615.24 3.251.304 4.88.19l1.22-.09 1.2-.2c.82-.08 1.59-.36 2.4-.52a17.93 17.93 0 01-4.79 1.2 21.118 21.118 0 01-5 0 24.988 24.988 0 01-4.83-1.11 21.378 21.378 0 01-4.45-2.18z" fill="#000"/><path d="M113.79 369.84s3.56-5.35 9.89-5.74c6.33-.39 11.67 7.68 11.67 7.68h-2s-5.11-5.51-8.77-5.51c-3.66 0-7.22 4.55-7.22 4.55l-3.57-.98zm-53.71 42.22c2.19-3.65 26.72-1.28 32.26-3.46l3 5.15s-4.23 2.34-11.25 1.51c-7.02-.83-17.63-1.05-20.4 1.39l-3.61-4.59z" fill="#263238"/><path opacity=".3" d="M60.08 412.06c2.19-3.65 26.72-1.28 32.26-3.46l3 5.15s-4.23 2.34-11.25 1.51c-7.02-.83-17.63-1.05-20.4 1.39l-3.61-4.59z" fill="#000"/><path d="M163.4 400.93c-.2.87-.42 1.72-.67 2.55-2 6.81-5.08 12.32-7.32 13.17H91.82a5.73 5.73 0 01-4.53-2.22l-.05-.07a4.998 4.998 0 01-.59-1c-4.39-9.17-8.82-27.51-2.59-35.87a13.877 13.877 0 012.24-2.36l.18-.14a18.717 18.717 0 014.34-2.65h.05c4.38-2 9.76-2.89 15-3.28 1.53-.12 3-.19 4.54-.22 3.9-.11 7.54 0 10.44.07 10.22.26 18.26 3.3 23.74 2.77a16.45 16.45 0 016 .48c.563.158 1.117.345 1.66.56a26.791 26.791 0 016.88 4.23c6.26 4.97 6.35 15.16 4.27 23.98z" fill="#263238"/><path opacity=".1" d="M163.4 400.93c-.2.87-.42 1.72-.67 2.55-2 6.81-5.08 12.32-7.32 13.17H91.82a5.73 5.73 0 01-4.53-2.22l-.05-.07a4.998 4.998 0 01-.59-1c-4.39-9.17-8.82-27.51-2.59-35.87a13.877 13.877 0 012.24-2.36l.18-.14a18.717 18.717 0 014.34-2.65h.05c4.38-2 9.76-2.89 15-3.28 1.53-.12 3-.19 4.54-.22 3.9-.11 7.54 0 10.44.07 10.22.26 18.26 3.3 23.74 2.77a16.45 16.45 0 016 .48c.563.158 1.117.345 1.66.56a26.791 26.791 0 016.88 4.23c6.26 4.97 6.35 15.16 4.27 23.98z" fill="#fff"/><path opacity=".2" d="M153.66 400.3c-4.55 0-13.65 2.17-27.1-.79a42.605 42.605 0 00-19.09-.14c-.15-2-.31-4.23-.49-6.65-1.19-16.25-10.46-23.07-16.11-20.37h-.05a24.942 24.942 0 00-4.34 2.65l-.18.14a13.877 13.877 0 00-2.24 2.36c-6.23 8.36-1.8 26.7 2.59 35.87.157.355.355.691.59 1l.05.07a5.757 5.757 0 004.32 1.95H103c4.65 0 5.2-4.26 4.68-13.41.79-.45 1.76-1 2.84-1.74 2.83-1.84 13.84-.93 18.59.85s17.21 2.57 23.24 1.59a40.283 40.283 0 0110.36-.19c.25-.83.47-1.68.67-2.55-2.06-.23-6.38-.64-9.72-.64z" fill="#000"/><path opacity=".2" d="M112.32 377.35c2.77 10.09 4.67 13.65 5.4 14.64.73.99 20.87 3.38 24.65 3.37a73.189 73.189 0 0013-1.28c2.57-.65 3.4-13.59-3.08-21.35a16.949 16.949 0 00-1.66-.56c3.53 7.92 3.61 17.62 3.19 19-.6 1.92-6.53 1.64-9.3 1.58-2.77-.06-20-1.13-21.76-1.83a9.134 9.134 0 01-4.15-3.45c-1.39-1.78-1.58-7.91-4.09-13.2a20.74 20.74 0 00-4.11-5.39c-1.49 0-3 .1-4.54.22a13.196 13.196 0 016.45 8.25z" fill="#000"/><path d="M92.34 386.64L86.8 388s-3.93 11.28-1.58 16c2.35 4.72-16 11.29-25.14 8l3.58 4.59s21.76-1.37 25.91-9.65c4.15-8.28-1.78-9.56-2.17-11.89-.39-2.33 4.94-8.41 4.94-8.41z" fill="#263238"/><path opacity=".1" d="M92.34 386.64L86.8 388s-3.93 11.28-1.58 16c2.35 4.72-16 11.29-25.14 8l3.58 4.59s21.76-1.37 25.91-9.65c4.15-8.28-1.78-9.56-2.17-11.89-.39-2.33 4.94-8.41 4.94-8.41z" fill="#fff"/><path d="M141.27 154s-21.4-12-25.83-15.08-28.13-26.35-29.45-27c0 0 .88-2.66-1.11-4.21-1.99-1.55-9.75-6.64-10.85-6.64-1.1 0-4 10.85-3.55 13.51.45 2.66 11.3 3.32 11.3 3.32s22.59 26.3 26.13 30c3.54 3.7 27.68 19.41 27.68 19.41l5.68-13.31z" fill="#E4897B"/><path d="M150.05 156.21s4.69 9.47-6.7 24.51l-25.11-18.46 10-18.15 21.81 12.1z" fill="#F58220"/><path opacity=".6" d="M143.35 180.72L131.49 172l-1.55-1.14-6.69-4.86-5-3.69 3.69-6.67 2.06-3.84 4.25-7.69 4.1 2.28 3.54 2 14.14 7.86c.464 1.098.751 2.262.85 3.45.47 3.99-.21 11.35-7.53 21.02z" fill="#fff"/><path opacity=".2" d="M143.35 180.72L131.49 172c4.07-8.42 14.6-11.39 19.41-12.34.45 4.03-.23 11.39-7.55 21.06z" fill="#000"/><path opacity=".2" d="M135.91 148.35l-3.54 2.06v-4.02l3.54 1.96zm-7.7 4.69l-4.44 6.23-1.84-3.68 2.09-3.79 4.19 1.24zm3.28 9.37l-1.55 8.45-6.69-4.91 8.24-3.54zm3.07-4.82l2.47 6.33 5.13-6.98-7.6.65z" fill="#fff"/><path d="M196.72 151.73s21.4-12 25.83-15.08 28.13-26.35 29.46-27c0 0-.89-2.66 1.1-4.21 1.99-1.55 9.75-6.64 10.85-6.64 1.1 0 4 10.85 3.55 13.51-.45 2.66-11.3 3.32-11.3 3.32s-22.59 26.31-26.13 30C226.54 149.32 202.4 165 202.4 165l-5.68-13.27zm-25.57 126.72s-.46 7.55-1.15 17.65c-.46 6.28-1 13.53-1.65 20.54-.84 9.42-1.79 18.4-2.74 24-.87 5.13-12.42 68.84-12.42 68.84h-7.74c2.44-59.41 6.22-82.45 6.36-85.91 0-1.13.09-2.7.14-4.57.15-6.78.28-17.49.36-25.28.06-5.62.09-9.71.09-9.71l18.75-5.56zM201 326.52c-.27 5.19-3.36 82.68-3.36 82.68h-8.51c-4.35-61.72-2.7-83.15-3.48-87.43-1.33-7.28-2.58-16.85-3.44-24-.69-5.71-1.12-9.82-1.12-9.82l17.35-7.5s1.05 9 1.84 19.78c.39 5.4.73 11.27.83 16.73.08 3.42.06 6.68-.11 9.56z" fill="#E4897B"/><path opacity=".2" d="M152.27 293.7l17.73 2.4c-.46 6.28-1 13.53-1.65 20.54L151.91 319c.15-6.8.28-17.51.36-25.3zm48.85 23.3l-15.46 4.76c-1.33-7.28-2.58-16.85-3.44-24l18.07 2.46c.39 5.41.71 11.28.83 16.78z" fill="#000"/><path d="M155 407.08h-10.23a.747.747 0 00-.72.58l-1.65 7.48a1.24 1.24 0 00.95 1.47c.093.01.187.01.28 0 3.3-.05 5.71-.26 9.85-.26 2.56 0 10.27.27 13.79.27 3.52 0 4-3.48 2.55-3.81-6.48-1.41-11.36-3.36-13.43-5.22a2.002 2.002 0 00-1.39-.51zm43.28-.26h-10.21a.728.728 0 00-.72.57l-1.66 7.49a1.249 1.249 0 001 1.47h.27c3.31-.05 5.71-.25 9.86-.25 2.55 0 10.26.26 13.79.26 3.53 0 4-3.48 2.54-3.8-6.48-1.41-11.35-3.37-13.42-5.23a2.013 2.013 0 00-1.45-.51z" fill="#F58220"/><path d="M171.85 312.27c.08-.68.16-1.39.24-2.19 1-10.24 2.09-22.53 3-34.37 3.45 9.28 4.94 22.33 6.74 36.56h21c-1.74-36.83-6.3-66.79-8.72-79.57h-44.54c-.06 4.58-.57 49-1.72 79.57h24z" fill="#263238"/><path opacity=".2" d="M171.85 312.27c.08-.68.16-1.39.24-2.19 1-10.24 2.09-22.53 3-34.37 3.45 9.28 4.94 22.33 6.74 36.56h21c-1.74-36.83-6.3-66.79-8.72-79.57h-44.54c-.06 4.58-.57 49-1.72 79.57h24z" fill="#fff"/><path d="M178 141.49c-.097.403-.218.8-.36 1.19a11.72 11.72 0 01-4.16 5.54c-.481.353-.989.667-1.52.94a10.54 10.54 0 01-12.58-2c-4.21-4.25-4.1-9.16-4.58-17.47a11.517 11.517 0 01.85-5.23 11.383 11.383 0 0114.88-6.14c8.12 3.32 9.24 15.68 7.47 23.17z" fill="#E4897B"/><path opacity=".2" d="M173.45 148.22c-.481.353-.989.667-1.52.94a10.571 10.571 0 01-9.11.4c.376-.999.877-1.946 1.49-2.82a16.451 16.451 0 019.14 1.48z" fill="#000"/><path d="M156.72 159c4.1 3.72 14.13 2.35 14.13 2.35s6.26-1.72 4.94-3.67c-3.68-.61-5.47-2.33-6.21-4.54a10.81 10.81 0 01-.37-4.21c.059-.789.163-1.573.31-2.35l-12.4-9.18c1.62 6.06 3.61 17.21-.4 21.6z" fill="#E4897B"/><path d="M173.45 133.93l1.79.67-.89-3.66s2.62-4 0-7.47c0 0 7.24-2.2 3.15-6-1.52-1.42-3.41 0-8.41-2.17-2.71-1.19-11.19-1.28-11.61 2.17 0 0-6.11 0-6.77 10.4a20.82 20.82 0 006.47 16.44s7.38 1.74 11-1.22 5.27-9.16 5.27-9.16z" fill="#263238"/><path d="M168.73 134.52a5.351 5.351 0 002.76 3.69c1.69.72 2.81-1.66 2.56-4.16-.23-2.22-1.38-5.34-3.19-4.92-1.81.42-2.72 3.15-2.13 5.39z" fill="#E4897B"/><path opacity=".2" d="M175.13 275.66c-.95 11.84-2 24.16-3 34.4-1.52-14.79-3.38-25.33-3.38-25.33s-1.74-1.43-6.53-9.07c-4.79-7.64 0-21.92 0-21.92-.22 13.26 12.91 21.92 12.91 21.92z" fill="#000"/><path d="M204.38 310.54l-.92 3.47H181.1v-3.21l23.28-.26zm-31.45.48l-.67 3.21h-25.32l-1.53-3.21h27.52zm3.12-154.43s-3.64-5.75-12.81-6.16c-9.17-.41-9.87 5.9-9.87 5.9l22.68.26z" fill="#F58220"/><path opacity=".5" d="M176.05 156.59s-3.64-5.75-12.81-6.16c-9.17-.41-9.87 5.9-9.87 5.9l22.68.26z" fill="#fff"/><path d="M143.12 153a471.732 471.732 0 01-1 93.53l53.73-3.28c-.6-54.83-7.95-89.37-7.95-89.37s-13.85 2.91-25.12 2.49a81.052 81.052 0 01-19.66-3.37z" fill="#F58220"/><path d="M187.94 153.92s7.18 16.78 7.95 33.76c.77 16.98-29.16 40.32-29.16 40.32s-23.07-15.88-40.87-14.44c-17.8 1.44-23.34 7.77-23.34 7.77s13.84-29.61 37.94-39.93c0 0-5-17.05 2.66-28.32 0-.08 16.66 5.38 44.82.84z" fill="#F58220"/><path opacity=".6" d="M195.89 187.68c.025.48.025.96 0 1.44-.041.742-.131 1.48-.27 2.21a23.942 23.942 0 01-1.53 5 55.07 55.07 0 01-8.28 13c-1.7 2.08-3.5 4.08-5.28 5.94a140.508 140.508 0 01-13.8 12.73 109.86 109.86 0 00-19.23-10.15c-2.05-.82-4.18-1.59-6.35-2.24a42.37 42.37 0 00-15.28-2 58.472 58.472 0 00-14.51 2.84c-.81.28-1.56.58-2.25.87l-.62.27a24.504 24.504 0 00-4.28 2.39c-.15.1-.29.21-.42.31s-.47.36-.65.52l-.24.21a1.353 1.353 0 00-.17.16l-.12.12-.07.07c0-.05.12-.26.3-.62l.28-.55c.28-.56.67-1.31 1.18-2.22l.22-.4.39-.69c.13-.24.27-.49.42-.74.58-1 1.26-2.16 2-3.39a101.46 101.46 0 0114.5-18.34 70.337 70.337 0 016.24-5.51 55.764 55.764 0 0112.36-7.45 48.255 48.255 0 01-1.55-13.46c.029-1.429.146-2.855.35-4.27a25.19 25.19 0 013.89-10.73 51.857 51.857 0 007.5 1.59c3.314.505 6.652.839 10 1 6.735.301 13.483.064 20.18-.71 2.28-.247 4.65-.58 7.11-1l.23.56a118.14 118.14 0 014.11 12.21c.44 1.59.88 3.29 1.3 5.07.42 1.78.74 3.37 1.06 5.14a83.69 83.69 0 011.28 10.82z" fill="#fff"/><path opacity=".2" d="M189 201.31l-3.16 8.08c-1.7 2.08-3.5 4.08-5.28 5.94l-6.43-12 14.87-2.02zm-54.44-7.72l-12.7.73a70.337 70.337 0 016.24-5.51l6.46 4.78zm14.65-31.99l-1.36 13.2-9-6.81c.029-1.429.146-2.855.35-4.27l10.01-2.12zm4.16 34.78l-4.16-12.68 12.65-2.34-8.49 15.02zm21.76-12.08v9.49l9.08-3.26-9.08-6.23zm-23.36 27.49l-4.27 6c-2.05-.82-4.18-1.59-6.35-2.24l-3.22-7.34 13.84 3.58zm-32.44-9.1l6.53 2.77-6.53 4.45v-7.22zm-7.98 13.67c-6.5 2.27-8.83 4.93-8.83 4.93a90.26 90.26 0 014.83-8.62l4 3.69zm53.36-12.28l-5.62 5.83 8.5 1.49-2.88-7.32zm0-36.6l6.61 8.9 4.73-10.08-11.34 1.18zm29.93 9.42l-8.45-5.56 6.09-4.65c.86 3.08 1.72 6.55 2.36 10.21zm1.24 12.22a21.985 21.985 0 01-1.8 7.25l-3.54-8.71 5.34 1.46zm-7.71-34.64l-5.35 5.52-2-5.08c2.28-.247 4.65-.58 7.11-1l.24.56zm-27.52 1.12l-3.93 8.32-6.1-9.29a97.42 97.42 0 0010.03.97z" fill="#fff"/><path opacity=".2" d="M195.89 187.68c.025.48.025.96 0 1.44-.041.742-.131 1.48-.27 2.21-7-11.1-5.34-21.14-5.34-21.14l3.31 1.57c.38 1.65.74 3.37 1.06 5.14a83.773 83.773 0 011.24 10.78z" fill="#000"/><path d="M167.53 109.73c11.87-4.09 14.85 11.72 3.06 22.41s-25.33 12-26.87 6.58c-1.54-5.42 5.69-22.72 23.81-28.99z" fill="#F58220"/><path d="M155.64 108.93c6.09 0 14.74 6.2 14.74 6.2s1.24 6.6-4.83 12.4c-6.07 5.8-11.55 6.72-14.93 4.47-3.38-2.25-4.32-11-4.32-11a6.701 6.701 0 014.32-4.45s1-7.55 5.02-7.62z" fill="#F58220"/><path opacity=".2" d="M165.55 127.53c-6.07 5.8-11.53 6.72-14.93 4.48a5.408 5.408 0 01-1.48-1.56c-2.2-3.31-2.84-9.42-2.84-9.42 5.8 7 12.52-.23 13.45-5.11a7.724 7.724 0 00-1.55-6.69c4 .86 8.38 3.42 10.64 4.87 1 .61 1.54 1 1.54 1s1.24 6.63-4.83 12.43z" fill="#000"/><path opacity=".6" d="M165.55 127.53c-6.07 5.8-11.53 6.72-14.93 4.48a5.408 5.408 0 01-1.48-1.56c6.08 1.81 13.32-1.2 17.21-6.61a13.395 13.395 0 002.49-9.74c1 .61 1.54 1 1.54 1s1.24 6.63-4.83 12.43z" fill="#fff"/><path d="M187.94 153.92s-4.69 9.48 6.7 24.51L219.75 160l-10-18.15-21.81 12.07z" fill="#F58220"/><path opacity=".6" d="M219.75 160l-6.55 4.81-9.69 7.13-8.87 6.52c-.58-.76-1.11-1.51-1.61-2.24a43.288 43.288 0 01-2.76-4.64 26.922 26.922 0 01-3.27-12.11c-.068-1.9.273-3.793 1-5.55l5.58-3.1 9.61-5.33 4.22-2.35 2.38-1.32 9.96 18.18z" fill="#fff"/><path opacity=".2" d="M213.2 164.78l-9.69 7.13-4.27-9.5 13.96 2.37zm-.9-15.28l-8.94 3.54-.23-7.55 4.22-2.35 4.95 6.36zm-15.58 7.44l-9.72 2.53c-.068-1.9.273-3.793 1-5.55l5.58-3.1 3.14 6.12zm-2.08 12.13l-1.64 7.12a43.288 43.288 0 01-2.76-4.64l4.4-2.48z" fill="#fff"/><path d="M256.44 324.61L241 323.39l5.1-65.11 15.49 1.21-5.15 65.12zm-12.27-4l9.51.74 4.63-59.13-9.5-.74-4.64 59.13zm1.6 87.93l2 .16a3.998 3.998 0 012.508 7.161 3.996 3.996 0 01-3.138.779l-2-.16a4 4 0 11.62-7.94h.01z" fill="#263238"/><path opacity=".1" d="M241.42 412.12a4.06 4.06 0 104.36-3.72 4.002 4.002 0 00-4.36 3.72z" fill="#fff"/><path d="M234.85 407.69l2 .15a4 4 0 11-.62 7.94l-2-.15a4 4 0 11.62-7.94z" fill="#263238"/><path opacity=".2" d="M230.5 411.27a4.057 4.057 0 002.206 3.936 4.063 4.063 0 004.481-.533 4.06 4.06 0 00-2.327-7.133 4.07 4.07 0 00-4.36 3.73z" fill="#fff"/><path d="M233.03 408.89l15.473 1.213a2.69 2.69 0 002.892-2.472l7.368-94.042a2.69 2.69 0 00-2.472-2.892l-15.472-1.212a2.69 2.69 0 00-2.892 2.472l-7.369 94.041a2.69 2.69 0 002.472 2.892z" fill="#263238"/><path opacity=".2" d="M240.754 409.482l7.757.608a2.691 2.691 0 002.892-2.472l7.368-94.042a2.69 2.69 0 00-2.472-2.892l-7.756-.607a2.69 2.69 0 00-2.892 2.471l-7.368 94.042a2.69 2.69 0 002.471 2.892z" fill="#fff"/><path d="M246.822 260.46l13.05 1.044a2.005 2.005 0 002.16-1.84l.099-1.23a2.008 2.008 0 00-1.84-2.16l-13.05-1.044a2.007 2.007 0 00-2.16 1.84l-.099 1.23a2.007 2.007 0 001.84 2.16z" fill="#263238"/><path opacity=".2" d="M246.822 260.46l13.05 1.044a2.005 2.005 0 002.16-1.84l.099-1.23a2.008 2.008 0 00-1.84-2.16l-13.05-1.044a2.007 2.007 0 00-2.16 1.84l-.099 1.23a2.007 2.007 0 001.84 2.16z" fill="#fff"/><path opacity=".2" d="M247.122 261.759l1.087.085a2 2 0 002.149-1.838l.096-1.226a2 2 0 00-1.838-2.15l-1.086-.085a2 2 0 00-2.15 1.838l-.096 1.227a2 2 0 001.838 2.149z" fill="#000"/><path d="M287.54 320.64l-6.66 85a5.677 5.677 0 01-6.1 5.22l-31-2.43a3.998 3.998 0 01-3.65-4.29l6.87-88.37a4.001 4.001 0 014.28-3.66l31 2.43a5.669 5.669 0 013.898 1.956 5.686 5.686 0 011.362 4.144z" fill="#F58220"/><path opacity=".2" d="M287.54 320.64l-6.66 85a5.677 5.677 0 01-6.1 5.22l-31-2.43a3.998 3.998 0 01-3.65-4.29l6.87-88.37a4.001 4.001 0 014.28-3.66l31 2.43a5.669 5.669 0 013.898 1.956 5.686 5.686 0 011.362 4.144z" fill="#fff"/><path opacity=".2" d="M266.22 313.28v.12l-1.11-.09a4.002 4.002 0 00-4.28 3.67l-6.92 88.34a4.002 4.002 0 002.73 4.08l-12.89-1a4.001 4.001 0 01-3.66-4.28l6.91-88.34a4 4 0 014.28-3.67l14.94 1.17z" fill="#000"/><path opacity=".2" d="M265.958 316.376l-.459-.035a1.09 1.09 0 00-1.172 1.001l-6.785 86.605c-.047.6.401 1.124 1.001 1.171l.459.036a1.09 1.09 0 001.172-1.001l6.785-86.605a1.09 1.09 0 00-1.001-1.172zm6.209.913l-.459-.036a1.09 1.09 0 00-1.172 1.001l-6.785 86.605a1.09 1.09 0 001.001 1.172l.459.036a1.09 1.09 0 001.172-1.002l6.785-86.604a1.09 1.09 0 00-1.001-1.172zm6.212.373l-.459-.036a1.09 1.09 0 00-1.171 1.002l-6.786 86.604a1.09 1.09 0 001.002 1.172l.458.036a1.09 1.09 0 001.172-1.002l6.786-86.604a1.09 1.09 0 00-1.002-1.172zm6.193.363l-.459-.036a1.09 1.09 0 00-1.171 1.002l-6.786 86.604a1.09 1.09 0 001.002 1.172l.458.036a1.09 1.09 0 001.172-1.001l6.786-86.605a1.09 1.09 0 00-1.002-1.172z" fill="#000"/></svg>