<svg width="112" height="36" fill="none" xmlns="http://www.w3.org/2000/svg"><path fill-rule="evenodd" clip-rule="evenodd" d="M105.508 31.451h.806c.122-.692.434-1.276.975-1.738a2.761 2.761 0 011.849-.677c.799 0 1.484.277 2.04.862A2.88 2.88 0 01112 31.95c0 .792-.274 1.47-.814 2.038-.556.577-1.241.854-2.04.854a2.778 2.778 0 01-1.903-.723c-.563-.492-.845-1.138-.929-1.877h-.806v2.47h-.8v-5.546h.8v2.284zm-3.068-1.569v4.83h-.799v-4.83h-1.416v-.715h3.646v.715h-1.431zm-2.816.493l-.64.4-.03-.039c-.48-.638-1.119-.93-1.903-.93-.616 0-1.157.192-1.598.622a2.045 2.045 0 00-.632 1.508 2.145 2.145 0 001.088 1.877c.358.2.747.284 1.15.284.784 0 1.416-.315 1.903-.93l.03-.039.64.423-.03.046a2.644 2.644 0 01-1.059.93c-.472.231-.99.331-1.507.331-.822 0-1.56-.253-2.162-.83a2.724 2.724 0 01-.86-2.03c0-.531.138-1.031.404-1.493.266-.461.64-.823 1.103-1.076a3.18 3.18 0 011.569-.385c.357 0 .707.054 1.05.17.304.1.601.238.86.438.243.184.449.423.601.684l.023.039zm-7.482-1.208h.8v5.545h-.8v-5.545zm.404-2.23a.59.59 0 01.44.184.62.62 0 01.184.446c0 .17-.061.323-.183.446a.594.594 0 01-.441.185.566.566 0 01-.434-.185.607.607 0 01-.183-.446c0-.177.06-.323.183-.446a.594.594 0 01.434-.184zm-2.528 5.16H86.99v2.615h-.799v-5.545h.8v2.161h3.029v-2.16h.799v5.544h-.8v-2.615zm-9.849-.046c.023.554.198 1.046.587 1.454.38.4.852.584 1.392.584.267 0 .533-.046.784-.138.236-.085.457-.208.647-.37.229-.2.427-.492.579-.753l.023-.046.677.361-.023.047a3.391 3.391 0 01-.677.93c-.251.23-.54.416-.868.538-.35.131-.715.185-1.088.185-.822 0-1.56-.254-2.109-.892-.494-.577-.76-1.238-.76-2 0-.7.212-1.323.639-1.869.555-.707 1.286-1.046 2.184-1.046.913 0 1.674.346 2.245 1.07.427.545.602 1.2.61 1.884v.054H80.17v.007zm-50.873-.392c.578.285.89.761.89 1.438 0 .462-.167.862-.464 1.208-.358.407-.876.538-1.4.538-.709 0-1.333-.215-1.82-.738l-.038-.039.503-.577.038.047c.334.377.753.553 1.248.553.289 0 .578-.069.791-.269.206-.192.282-.438.282-.715 0-.27-.084-.508-.29-.692a.962.962 0 00-.677-.262h-.48v-.715h.42a.981.981 0 00.608-.215c.198-.154.274-.37.274-.616a.823.823 0 00-.22-.584c-.175-.192-.434-.246-.678-.246-.41 0-.784.184-1.103.43l-.046.031-.457-.561.038-.039c.457-.384.99-.623 1.591-.623.441 0 .837.123 1.172.416.327.284.48.646.48 1.076.007.539-.213.931-.662 1.154zm6.637 2.215c-.252.285-.548.53-.899.7-.38.184-.783.27-1.202.27-.776 0-1.439-.285-1.987-.855-.555-.576-.822-1.269-.822-2.068 0-.793.282-1.477.83-2.039a2.695 2.695 0 011.994-.846c.426 0 .837.085 1.218.285.342.177.624.43.86.738v-.892h.8v5.545h-.8v-.838h.008zm5.122.139l2.078-4.838h.434l2.062 4.838h.663v1.4h-.777v-.693h-4.338v.723h-.8v-1.43h.678zm8.662-4.977c.837 0 1.537.3 2.1.923.51.562.761 1.23.761 1.992 0 .777-.274 1.454-.799 2.023-.555.6-1.256.87-2.062.87-.807 0-1.515-.27-2.07-.87a2.884 2.884 0 01-.8-2.023c0-.761.251-1.423.761-1.992.564-.623 1.271-.923 2.109-.923zm9.88 1.77l-2.026 3.906h-.197l-2.025-3.922-1.301 3.922h-.838l1.873-5.545h.258l2.14 4.184 2.138-4.184h.274l1.85 5.545h-.838l-1.309-3.907zm5.647-1.77c.837 0 1.537.3 2.1.923.51.562.762 1.23.762 1.992 0 .777-.274 1.454-.8 2.023-.555.6-1.255.87-2.062.87-.807 0-1.515-.27-2.07-.87a2.884 2.884 0 01-.8-2.023c0-.761.251-1.423.761-1.992.564-.623 1.271-.923 2.109-.923zm6.69 2.67c.624.26.96.738.96 1.453 0 1.223-.952 1.561-2.018 1.561h-1.621v-5.545h1.598c.45 0 .982.077 1.31.423.266.277.403.607.403.992.007.515-.198.892-.632 1.115zm4.14-.878l-1.75 3.884h-.86l2.504-5.545h.19l2.543 5.545h-.845l-1.781-3.884zm35.104 1.146c0-.584-.206-1.092-.609-1.507-.396-.408-.868-.63-1.431-.63-.571 0-1.043.215-1.438.63a2.107 2.107 0 00-.609 1.507c0 .577.19 1.07.578 1.485.396.423.891.615 1.462.615.57 0 1.057-.2 1.453-.615.404-.416.594-.916.594-1.485zm-27.035-.638c-.076-.285-.19-.57-.373-.8-.183-.23-.419-.4-.685-.523a2.14 2.14 0 00-.898-.2c-.51 0-.952.162-1.332.5-.297.27-.48.646-.594 1.023h3.882zm-50.235-1.515c-.373 0-.715.092-1.035.277-.32.192-.571.454-.754.777a2.176 2.176 0 000 2.138 2.047 2.047 0 001.789 1.076c.373 0 .723-.1 1.043-.284.32-.185.578-.43.76-.762.184-.33.267-.7.267-1.084 0-.592-.182-1.108-.601-1.53a1.994 1.994 0 00-1.469-.608zm9.423.646l-1.492 3.546h2.915l-1.423-3.546zm6.378-.63c-.57 0-1.043.215-1.439.622a2.12 2.12 0 00-.6 1.515c0 .377.09.739.273 1.07.183.322.427.576.746.76.32.185.662.27 1.028.27a2.008 2.008 0 001.773-1.03c.183-.331.274-.685.274-1.07 0-.592-.198-1.092-.609-1.515-.403-.407-.875-.623-1.446-.623zm15.527 0c-.57 0-1.043.215-1.438.622a2.12 2.12 0 00-.602 1.515c0 .377.092.739.274 1.07.183.322.427.576.746.76.32.185.662.27 1.028.27a2.008 2.008 0 001.773-1.03 2.17 2.17 0 00.274-1.07c0-.592-.198-1.092-.609-1.515-.403-.407-.875-.623-1.446-.623zm4.826.045v1.577h.395c.214 0 .587.008.792-.046a.66.66 0 00.327-.23.736.736 0 00.153-.485.873.873 0 00-.16-.531c-.084-.108-.198-.223-.335-.246-.22-.046-.556-.039-.776-.039h-.396zm0 2.338v1.793h.692c.213 0 .525 0 .739-.07a.7.7 0 00.357-.269.89.89 0 00.153-.538c0-.262-.077-.492-.26-.67-.19-.184-.433-.245-.692-.245h-.99z" fill="#231F20"/><path fill-rule="evenodd" clip-rule="evenodd" d="M.898 29.391h3.853v-3.4h.898v8.237h-.898V30.3H.898v3.927H0v-8.236h.898v3.4zm6.392 3.961l3.061-7.36h.343l3.233 7.36h.62v2.091h-.898v-1.207H7.543v1.207h-.898v-2.09h.645zm9.012-5.397a.68.68 0 01.507.212.734.734 0 01.204.527.734.734 0 01-.204.527.676.676 0 01-.507.213.676.676 0 01-.506-.213.734.734 0 01-.204-.527c0-.204.066-.382.204-.527a.723.723 0 01.506-.212zm0 4.93a.68.68 0 01.507.212.733.733 0 01.204.527.734.734 0 01-.204.527.671.671 0 01-.507.221.684.684 0 01-.506-.22.734.734 0 01-.204-.528c0-.204.066-.382.204-.527a.723.723 0 01.506-.212zm-8 .467h4.58l-2.343-5.448-2.237 5.448z" fill="#F58220"/><path fill-rule="evenodd" clip-rule="evenodd" d="M7.817 14.961l-.714.564-.033-.05a3.307 3.307 0 00-1.207-1.018 3.41 3.41 0 00-1.552-.345 3.4 3.4 0 00-1.708.454 3.23 3.23 0 00-1.215 1.22 3.489 3.489 0 00-.435 1.724c0 .942.303 1.75.968 2.414.674.673 1.503.967 2.439.967 1.1 0 1.995-.446 2.71-1.295l.033-.042.714.555-.041.05a4.094 4.094 0 01-1.486 1.203 4.615 4.615 0 01-1.987.42c-1.29 0-2.44-.412-3.293-1.42C.312 19.536 0 18.551 0 17.458c0-1.177.402-2.186 1.223-3.01.846-.85 1.889-1.22 3.071-1.22a4.5 4.5 0 012.012.446 3.907 3.907 0 011.47 1.261l.04.025zm2.34-.647v2.456h.304c.64 0 1.543.025 2.143.269a2.21 2.21 0 011.067.858c.263.395.395.833.395 1.304 0 .647-.247 1.194-.69 1.656-.51.53-1.199.715-1.913.715h-2.21v-8.15h4.049v.9h-3.145v-.008zm6.109 1.043c.197 0 .37.067.51.21a.72.72 0 01.204.521.72.72 0 01-.205.522.686.686 0 01-.509.21.685.685 0 01-.509-.21.72.72 0 01-.205-.521.72.72 0 01.205-.522.685.685 0 01.509-.21zm0 4.878c.197 0 .37.067.51.21a.72.72 0 01.204.522.72.72 0 01-.205.521.68.68 0 01-.509.219.693.693 0 01-.509-.219.72.72 0 01-.205-.521.72.72 0 01.205-.522.685.685 0 01.509-.21zm-6.109-2.549v2.97h.903c.37 0 .887-.017 1.224-.169a1.35 1.35 0 00.607-.513c.156-.235.23-.488.23-.765 0-.345-.098-.648-.32-.909a1.533 1.533 0 00-.805-.496c-.443-.11-1.001-.117-1.461-.117h-.378zm17.63-3.254h-1.281l.541-.9h1.643v8.15h-.904v-7.25zm3.62 3.17c0-.782.058-1.74.337-2.48.206-.53.51-1.01.96-1.346a2.324 2.324 0 011.397-.463c.517 0 .993.151 1.412.463.468.345.78.84 1.002 1.379.295.74.361 1.649.361 2.44 0 .79-.066 1.698-.361 2.43-.214.538-.526 1.034-1.002 1.38a2.349 2.349 0 01-1.42.47c-.51 0-.978-.151-1.388-.454-.452-.336-.755-.816-.96-1.346-.28-.732-.337-1.682-.337-2.473zm7.407 2.75c.197 0 .37.068.509.211a.72.72 0 01.205.522.72.72 0 01-.205.521.68.68 0 01-.51.219.693.693 0 01-.508-.219.72.72 0 01-.205-.521.72.72 0 01.205-.522.698.698 0 01.509-.21zm1.667-2.75c0-.782.057-1.74.336-2.48.206-.53.51-1.01.961-1.346a2.324 2.324 0 011.396-.463c.517 0 .993.151 1.412.463.468.345.78.84 1.002 1.379.296.74.361 1.649.361 2.44 0 .79-.065 1.698-.361 2.43-.214.538-.526 1.034-1.002 1.38a2.349 2.349 0 01-1.42.47 2.29 2.29 0 01-1.388-.454c-.451-.336-.755-.816-.96-1.346-.28-.732-.337-1.682-.337-2.473zm6.051 0c0-.782.058-1.74.337-2.48.205-.53.509-1.01.96-1.346a2.324 2.324 0 011.396-.463c.518 0 .994.151 1.413.463.468.345.78.84 1.002 1.379.295.74.36 1.649.36 2.44 0 .79-.065 1.698-.36 2.43-.214.538-.526 1.034-1.002 1.38a2.349 2.349 0 01-1.42.47c-.51 0-.978-.151-1.388-.454-.452-.336-.756-.816-.961-1.346-.28-.732-.337-1.682-.337-2.473zm9.074.598h3.046v.79h-3.047v-.79zm9.09-3.768h-1.282l.542-.9h1.642v8.15h-.903v-7.25zm7.635 2.775c.403.219.805.505 1.068.892.246.361.361.773.361 1.21a2.56 2.56 0 01-.608 1.683c-.541.656-1.297.892-2.118.892-.755 0-1.494-.194-2.012-.783-.427-.487-.69-1.06-.69-1.724 0-.454.116-.866.362-1.245.263-.403.681-.698 1.092-.925a2.19 2.19 0 01-.788-.723 1.804 1.804 0 01-.296-1.001c0-.379.115-.732.312-1.051a2.21 2.21 0 01.87-.808c.37-.202.772-.294 1.191-.294.41 0 .796.092 1.166.294.345.194.632.463.838.808.197.328.303.69.303 1.076 0 .362-.09.707-.287 1.01a2.425 2.425 0 01-.764.69zm3.391 3.146c.198 0 .37.067.51.21a.72.72 0 01.205.522.72.72 0 01-.205.521.68.68 0 01-.51.219.693.693 0 01-.509-.219.72.72 0 01-.205-.521.72.72 0 01.205-.522.685.685 0 01.51-.21zm1.66-2.75c0-.783.057-1.742.336-2.482.205-.53.509-1.009.96-1.345a2.324 2.324 0 011.396-.463c.518 0 .994.151 1.413.463.468.345.78.84 1.001 1.379.296.74.362 1.649.362 2.44 0 .79-.066 1.698-.362 2.43-.213.538-.525 1.034-1.001 1.38a2.349 2.349 0 01-1.42.47c-.51 0-.978-.151-1.389-.454-.451-.336-.755-.816-.96-1.346-.28-.732-.337-1.682-.337-2.473zm6.05 0c0-.783.058-1.742.337-2.482.206-.53.51-1.009.961-1.345a2.324 2.324 0 011.396-.463c.517 0 .993.151 1.412.463.468.345.78.84 1.002 1.379.295.74.361 1.649.361 2.44 0 .79-.066 1.698-.361 2.43-.214.538-.526 1.034-1.002 1.38a2.349 2.349 0 01-1.42.47 2.29 2.29 0 01-1.388-.454c-.452-.336-.755-.816-.96-1.346-.28-.732-.337-1.682-.337-2.473zm-51.162.016c0 .631.033 1.439.23 2.036.14.403.344.773.681 1.026.28.218.591.345.944.345s.666-.127.937-.337c.328-.252.533-.63.665-1.026.221-.648.287-1.362.287-2.044 0-.647-.05-1.354-.263-1.968-.14-.412-.353-.832-.706-1.102-.28-.21-.583-.344-.936-.344-.353 0-.665.126-.944.344-.329.261-.542.631-.682 1.027-.189.597-.213 1.412-.213 2.043zm9.073 0c0 .631.033 1.439.23 2.036.14.403.345.773.681 1.026.28.218.592.345.945.345s.665-.127.936-.337c.328-.252.533-.63.665-1.026.221-.648.287-1.362.287-2.044 0-.647-.05-1.354-.263-1.968-.14-.412-.353-.832-.706-1.102-.279-.21-.583-.344-.936-.344-.353 0-.665.126-.944.344-.328.261-.542.631-.682 1.027-.188.597-.213 1.412-.213 2.043zm6.051 0c0 .631.033 1.439.23 2.036.14.403.345.773.682 1.026.279.218.591.345.944.345s.665-.127.936-.337c.329-.252.534-.63.665-1.026.222-.648.288-1.362.288-2.044 0-.647-.05-1.354-.263-1.968-.14-.412-.353-.832-.706-1.102-.28-.21-.583-.344-.936-.344a1.51 1.51 0 00-.945.344c-.328.261-.541.631-.681 1.027-.189.597-.213 1.412-.213 2.043zm23.656-3.39c-.385 0-.739.11-1.026.37-.255.236-.402.53-.402.884 0 .37.172.673.435.925.287.278.624.412 1.018.412a1.5 1.5 0 00.706-.185c.222-.126.386-.294.517-.513a1.32 1.32 0 00.19-.656c0-.336-.14-.614-.362-.85-.287-.294-.681-.386-1.076-.386zm.033 3.44c-.509 0-.952.16-1.314.522-.336.328-.533.732-.533 1.211 0 .286.082.555.23.808.156.26.37.446.632.58.296.152.624.21.952.21.501 0 .961-.134 1.322-.504.32-.328.493-.707.493-1.17 0-.462-.197-.832-.517-1.152a1.792 1.792 0 00-1.265-.504zm7.16-.05c0 .631.033 1.439.23 2.036.14.403.345.773.682 1.026.279.218.59.345.944.345.353 0 .665-.127.936-.337.328-.252.534-.63.665-1.026.222-.648.287-1.362.287-2.044 0-.647-.049-1.354-.262-1.968-.14-.412-.353-.832-.706-1.102-.28-.21-.583-.344-.937-.344-.352 0-.665.126-.944.344-.328.261-.542.631-.681 1.027-.18.597-.214 1.412-.214 2.043zm6.052 0c0 .631.033 1.439.23 2.036.14.403.345.773.681 1.026.28.218.591.345.944.345s.666-.127.936-.337c.329-.252.534-.63.666-1.026.221-.648.287-1.362.287-2.044 0-.647-.05-1.354-.263-1.968-.14-.412-.353-.832-.706-1.102-.279-.21-.583-.344-.936-.344-.353 0-.665.126-.944.344-.329.261-.542.631-.682 1.027-.18.597-.213 1.412-.213 2.043zM4.779 1.093H.903V8.37H0V.219h5.69v8.15h-.903V1.093h-.008zm3.588 2.482h3.876V.21h.903v8.15h-.903V4.474H8.367V8.36h-.903V.21h.903v3.365zm7.357 1.312h3.046v.79h-3.046v-.79zm10.157-3.794h-3.875V8.37h-.904V.219h5.69v8.15h-.903V1.093h-.008zm4.582.017v7.25h-.912V1.11h-1.748v-.9h4.409v.9h-1.75zm3.522 1.043c.197 0 .37.067.51.21a.72.72 0 01.205.522.72.72 0 01-.206.521.685.685 0 01-.509.21.685.685 0 01-.509-.21.72.72 0 01-.205-.521.72.72 0 01.205-.522.718.718 0 01.51-.21zm0 4.878c.197 0 .37.068.51.21a.72.72 0 01.205.522.72.72 0 01-.206.522.68.68 0 01-.509.218.693.693 0 01-.509-.218.72.72 0 01-.205-.522.72.72 0 01.205-.521.685.685 0 01.51-.21zM45.506 1.11h-1.28l.541-.9h1.642v8.15h-.903V1.11zm3.621 3.18c0-.783.058-1.742.337-2.482.205-.53.509-1.009.96-1.345A2.324 2.324 0 0151.82 0c.518 0 .994.151 1.413.463.468.344.78.84 1.001 1.379.296.74.362 1.648.362 2.44 0 .79-.066 1.698-.362 2.43-.213.538-.525 1.034-1.001 1.38a2.349 2.349 0 01-1.42.47c-.51 0-.978-.151-1.389-.454-.451-.336-.755-.816-.96-1.346-.288-.74-.337-1.69-.337-2.473zm7.406 2.741c.197 0 .37.068.51.21a.72.72 0 01.205.522.72.72 0 01-.206.522.68.68 0 01-.509.218.693.693 0 01-.509-.218.72.72 0 01-.205-.522.72.72 0 01.205-.521.685.685 0 01.51-.21zM58.2 4.29c0-.782.058-1.74.337-2.48.205-.53.509-1.01.96-1.346A2.324 2.324 0 0160.895 0c.517 0 .993.151 1.412.463.468.344.78.84 1.002 1.379.295.74.36 1.648.36 2.44 0 .79-.065 1.698-.36 2.43-.214.538-.526 1.034-1.002 1.38a2.349 2.349 0 01-1.42.47c-.51 0-.978-.151-1.388-.454-.452-.336-.756-.816-.961-1.346-.28-.74-.337-1.69-.337-2.473zm6.052 0c0-.782.057-1.74.336-2.48.206-.53.51-1.01.961-1.346A2.323 2.323 0 0166.945 0c.517 0 .994.151 1.412.463.468.344.78.84 1.002 1.379.296.74.361 1.648.361 2.44 0 .79-.065 1.698-.361 2.43-.213.538-.525 1.034-1.002 1.38a2.349 2.349 0 01-1.42.47 2.29 2.29 0 01-1.388-.454c-.452-.336-.755-.816-.96-1.346-.28-.74-.337-1.69-.337-2.473zm9.073.598h3.046v.79h-3.046v-.79zm9.081-3.777h-1.28l.541-.9h1.643v8.15h-.904V1.11zm6.766 3.785a2.492 2.492 0 01-.665.093 2.15 2.15 0 01-1.626-.707c-.46-.488-.665-1.068-.665-1.74 0-.455.099-.892.32-1.28a2.45 2.45 0 01.912-.908 2.489 2.489 0 012.496-.017c.378.22.673.53.887.926.213.395.32.815.32 1.261 0 .362-.074.724-.197 1.06-.164.454-.435.917-.698 1.32L87.85 8.587l-.747-.487 2.07-3.205zm4.262 2.136c.197 0 .37.068.509.21a.72.72 0 01.205.522.72.72 0 01-.205.522.68.68 0 01-.51.218.693.693 0 01-.508-.218.72.72 0 01-.206-.522.711.711 0 01.714-.732zM95.1 4.29c0-.782.057-1.74.336-2.48.206-.53.51-1.01.961-1.346A2.323 2.323 0 0197.794 0c.517 0 .993.151 1.412.463.468.344.78.84 1.002 1.379.295.74.361 1.648.361 2.44 0 .79-.066 1.698-.361 2.43-.214.538-.526 1.034-1.002 1.38a2.348 2.348 0 01-1.42.47c-.51 0-.978-.151-1.388-.454-.452-.336-.755-.816-.96-1.346-.28-.74-.337-1.69-.337-2.473zm6.051 0c0-.782.058-1.74.337-2.48.205-.53.509-1.01.96-1.346A2.325 2.325 0 01103.845 0c.518 0 .994.151 1.413.463.468.344.78.84 1.001 1.379.296.74.362 1.648.362 2.44 0 .79-.066 1.698-.362 2.43-.213.538-.525 1.034-1.001 1.38a2.349 2.349 0 01-1.421.47c-.509 0-.977-.151-1.388-.454-.451-.336-.755-.816-.96-1.346-.279-.74-.337-1.69-.337-2.473zm-51.171.009c0 .63.033 1.438.23 2.035.14.404.345.774.681 1.026.28.22.592.345.945.345s.665-.126.936-.336c.328-.253.533-.631.665-1.026.222-.648.287-1.363.287-2.044 0-.648-.049-1.354-.263-1.968-.14-.412-.353-.833-.706-1.102-.279-.21-.583-.345-.936-.345a1.5 1.5 0 00-.944.345c-.328.26-.542.63-.681 1.026-.181.606-.214 1.413-.214 2.044zm9.081 0c0 .63.033 1.438.23 2.035.14.404.345.774.682 1.026.279.22.591.345.944.345s.665-.126.936-.336c.329-.253.534-.631.665-1.026.222-.648.288-1.363.288-2.044 0-.648-.05-1.354-.263-1.968-.14-.412-.353-.833-.706-1.102-.28-.21-.583-.345-.936-.345-.353 0-.665.126-.945.345-.328.26-.541.63-.681 1.026-.189.606-.214 1.413-.214 2.044zm6.052 0c0 .63.033 1.438.23 2.035.14.404.345.774.681 1.026.28.22.592.345.945.345s.665-.126.936-.336c.328-.253.533-.631.665-1.026.222-.648.287-1.363.287-2.044 0-.648-.05-1.354-.263-1.968-.14-.412-.353-.833-.706-1.102-.279-.21-.583-.345-.936-.345a1.5 1.5 0 00-.944.345c-.329.26-.542.63-.682 1.026-.188.606-.213 1.413-.213 2.044zm23.574-.126c.443 0 .813-.152 1.125-.48.312-.32.46-.706.46-1.152a1.58 1.58 0 00-.468-1.152 1.52 1.52 0 00-1.125-.48c-.444 0-.813.16-1.125.48-.312.32-.468.698-.468 1.152 0 .454.156.833.468 1.152.32.32.69.48 1.133.48zm7.275.126c0 .63.033 1.438.23 2.035.14.404.344.774.681 1.026.28.22.591.345.945.345.352 0 .665-.126.935-.336.329-.253.534-.631.666-1.026.221-.648.287-1.363.287-2.044 0-.648-.05-1.354-.263-1.968-.14-.412-.353-.833-.706-1.102-.28-.21-.583-.345-.936-.345a1.5 1.5 0 00-.944.345c-.329.26-.542.63-.682 1.026-.18.606-.213 1.413-.213 2.044zm6.051 0c0 .63.033 1.438.23 2.035.14.404.345.774.682 1.026.279.22.591.345.944.345s.665-.126.936-.336c.328-.253.534-.631.665-1.026.222-.648.288-1.363.288-2.044 0-.648-.05-1.354-.263-1.968-.14-.412-.353-.833-.706-1.102-.28-.21-.583-.345-.936-.345-.354 0-.666.126-.945.345-.328.26-.542.63-.681 1.026-.181.606-.214 1.413-.214 2.044z" fill="#231F20"/></svg>